<?xml version="1.0" encoding="UTF-8"?>
<svg xmlns="http://www.w3.org/2000/svg" viewBox="0 0 500 500">
  <g id="BACKGROUND">
    <rect width="500" height="500" style="fill: #eae3cd;" />
  </g>
  <g id="OBJECTS">
    <g>
      <g>
        <rect y="347.68" width="500" height="152.32" style="fill: #e27197;" />
        <rect y="346.83" width="500" height="1.71" style="fill: #2e1036;" />
      </g>
      <g>
        <polygon points="52.35 358.16 35.04 347.77 170.89 347.77 52.35 358.16" style="fill: #2e1036; opacity: .5;" />
        <g style="opacity: .5;">
          <path
            d="m252.76,344.75L40.49,130.09c-1.55-1.57-4.23-.48-4.24,1.73l-1.21,215.94,215.94,1.2c2.21.01,3.33-2.65,1.78-4.22Zm-105.18-28.41l-61.88-.41c-8.93-.06-16.12-7.34-16.07-16.26l.34-61.81c.08-14.41,17.54-21.53,27.67-11.28l61.53,62.22c10.14,10.25,2.81,27.64-11.6,27.54Z"
            style="fill: #2e1036;" />
        </g>
        <path
          d="m270.38,354.52L58.11,139.87c-1.55-1.57-4.23-.48-4.24,1.73l-1.21,215.94,215.94,1.2c2.21.01,3.33-2.65,1.78-4.22Zm-105.18-28.41l-61.88-.41c-8.93-.06-16.12-7.34-16.07-16.26l.34-61.81c.08-14.41,17.54-21.53,27.67-11.28l61.53,62.22c10.14,10.25,2.81,27.64-11.61,27.54Z"
          style="fill: #e27197; stroke: #2e1036; stroke-linejoin: round; stroke-width: 1.71px;" />
        <polyline points="70.41 357.21 70.44 350.8 70.47 344.38"
          style="fill: none; stroke: #2e1036; stroke-linecap: round; stroke-miterlimit: 10; stroke-width: 1.77px;" />
        <line x1="76.31" y1="357.24" x2="76.34" y2="350.82"
          style="fill: none; stroke: #2e1036; stroke-linecap: round; stroke-miterlimit: 10; stroke-width: 1.77px;" />
        <polyline points="82.21 357.26 82.24 350.85 82.27 344.44"
          style="fill: none; stroke: #2e1036; stroke-linecap: round; stroke-miterlimit: 10; stroke-width: 1.77px;" />
        <line x1="88.11" y1="357.29" x2="88.14" y2="350.88"
          style="fill: none; stroke: #2e1036; stroke-linecap: round; stroke-miterlimit: 10; stroke-width: 1.77px;" />
        <polyline points="94 357.32 94.03 350.9 94.06 344.49"
          style="fill: none; stroke: #2e1036; stroke-linecap: round; stroke-miterlimit: 10; stroke-width: 1.77px;" />
        <line x1="99.9" y1="357.34" x2="99.93" y2="350.93"
          style="fill: none; stroke: #2e1036; stroke-linecap: round; stroke-miterlimit: 10; stroke-width: 1.77px;" />
        <polyline points="105.8 357.37 105.83 350.96 105.86 344.54"
          style="fill: none; stroke: #2e1036; stroke-linecap: round; stroke-miterlimit: 10; stroke-width: 1.77px;" />
        <line x1="111.7" y1="357.4" x2="111.73" y2="350.99"
          style="fill: none; stroke: #2e1036; stroke-linecap: round; stroke-miterlimit: 10; stroke-width: 1.77px;" />
        <polyline points="117.59 357.43 117.62 351.01 117.65 344.6"
          style="fill: none; stroke: #2e1036; stroke-linecap: round; stroke-miterlimit: 10; stroke-width: 1.77px;" />
        <line x1="123.49" y1="357.45" x2="123.52" y2="351.04"
          style="fill: none; stroke: #2e1036; stroke-linecap: round; stroke-miterlimit: 10; stroke-width: 1.77px;" />
        <polyline points="129.39 357.48 129.42 351.07 129.45 344.65"
          style="fill: none; stroke: #2e1036; stroke-linecap: round; stroke-miterlimit: 10; stroke-width: 1.77px;" />
        <line x1="135.29" y1="357.51" x2="135.31" y2="351.09"
          style="fill: none; stroke: #2e1036; stroke-linecap: round; stroke-miterlimit: 10; stroke-width: 1.77px;" />
        <polyline points="141.18 357.53 141.21 351.12 141.24 344.71"
          style="fill: none; stroke: #2e1036; stroke-linecap: round; stroke-miterlimit: 10; stroke-width: 1.77px;" />
        <line x1="147.08" y1="357.56" x2="147.11" y2="351.15"
          style="fill: none; stroke: #2e1036; stroke-linecap: round; stroke-miterlimit: 10; stroke-width: 1.77px;" />
        <polyline points="152.98 357.59 153.01 351.17 153.04 344.76"
          style="fill: none; stroke: #2e1036; stroke-linecap: round; stroke-miterlimit: 10; stroke-width: 1.77px;" />
        <line x1="158.88" y1="357.61" x2="158.9" y2="351.2"
          style="fill: none; stroke: #2e1036; stroke-linecap: round; stroke-miterlimit: 10; stroke-width: 1.77px;" />
        <polyline points="164.77 357.64 164.8 351.23 164.83 344.81"
          style="fill: none; stroke: #2e1036; stroke-linecap: round; stroke-miterlimit: 10; stroke-width: 1.77px;" />
        <line x1="170.67" y1="357.67" x2="170.7" y2="351.25"
          style="fill: none; stroke: #2e1036; stroke-linecap: round; stroke-miterlimit: 10; stroke-width: 1.77px;" />
        <polyline points="176.63 344.87 176.6 351.28 176.57 357.69"
          style="fill: none; stroke: #2e1036; stroke-linecap: round; stroke-miterlimit: 10; stroke-width: 1.77px;" />
        <line x1="182.46" y1="357.72" x2="182.49" y2="351.31"
          style="fill: none; stroke: #2e1036; stroke-linecap: round; stroke-miterlimit: 10; stroke-width: 1.77px;" />
        <polyline points="188.36 357.75 188.39 351.33 188.42 344.92"
          style="fill: none; stroke: #2e1036; stroke-linecap: round; stroke-miterlimit: 10; stroke-width: 1.77px;" />
        <line x1="194.26" y1="357.78" x2="194.29" y2="351.36"
          style="fill: none; stroke: #2e1036; stroke-linecap: round; stroke-miterlimit: 10; stroke-width: 1.77px;" />
        <polyline points="200.16 357.8 200.19 351.39 200.22 344.98"
          style="fill: none; stroke: #2e1036; stroke-linecap: round; stroke-miterlimit: 10; stroke-width: 1.77px;" />
        <line x1="206.05" y1="357.83" x2="206.08" y2="351.42"
          style="fill: none; stroke: #2e1036; stroke-linecap: round; stroke-miterlimit: 10; stroke-width: 1.77px;" />
        <polyline points="211.95 357.86 211.98 351.44 212.01 345.03"
          style="fill: none; stroke: #2e1036; stroke-linecap: round; stroke-miterlimit: 10; stroke-width: 1.77px;" />
        <line x1="217.85" y1="357.88" x2="217.88" y2="351.47"
          style="fill: none; stroke: #2e1036; stroke-linecap: round; stroke-miterlimit: 10; stroke-width: 1.77px;" />
        <polyline points="223.75 357.91 223.78 351.5 223.8 345.08"
          style="fill: none; stroke: #2e1036; stroke-linecap: round; stroke-miterlimit: 10; stroke-width: 1.77px;" />
        <line x1="229.64" y1="357.94" x2="229.67" y2="351.52"
          style="fill: none; stroke: #2e1036; stroke-linecap: round; stroke-miterlimit: 10; stroke-width: 1.77px;" />
        <polyline points="235.54 357.96 235.57 351.55 235.6 345.14"
          style="fill: none; stroke: #2e1036; stroke-linecap: round; stroke-miterlimit: 10; stroke-width: 1.77px;" />
        <line x1="241.44" y1="357.99" x2="241.47" y2="351.58"
          style="fill: none; stroke: #2e1036; stroke-linecap: round; stroke-miterlimit: 10; stroke-width: 1.77px;" />
        <polyline points="247.34 358.02 247.37 351.6 247.39 345.19"
          style="fill: none; stroke: #2e1036; stroke-linecap: round; stroke-miterlimit: 10; stroke-width: 1.77px;" />
        <line x1="253.23" y1="358.04" x2="253.26" y2="351.63"
          style="fill: none; stroke: #2e1036; stroke-linecap: round; stroke-miterlimit: 10; stroke-width: 1.77px;" />
        <line x1="54.3" y1="156.96" x2="60.72" y2="156.99"
          style="fill: none; stroke: #2e1036; stroke-linecap: round; stroke-miterlimit: 10; stroke-width: 1.77px;" />
        <polyline points="54.28 162.85 60.69 162.88 67.1 162.91"
          style="fill: none; stroke: #2e1036; stroke-linecap: round; stroke-miterlimit: 10; stroke-width: 1.77px;" />
        <line x1="54.25" y1="168.75" x2="60.66" y2="168.78"
          style="fill: none; stroke: #2e1036; stroke-linecap: round; stroke-miterlimit: 10; stroke-width: 1.77px;" />
        <polyline points="54.22 174.65 60.64 174.68 67.05 174.71"
          style="fill: none; stroke: #2e1036; stroke-linecap: round; stroke-miterlimit: 10; stroke-width: 1.77px;" />
        <line x1="54.2" y1="180.55" x2="60.61" y2="180.58"
          style="fill: none; stroke: #2e1036; stroke-linecap: round; stroke-miterlimit: 10; stroke-width: 1.77px;" />
        <polyline points="54.17 186.44 60.58 186.47 67 186.5"
          style="fill: none; stroke: #2e1036; stroke-linecap: round; stroke-miterlimit: 10; stroke-width: 1.77px;" />
        <line x1="54.14" y1="192.34" x2="60.56" y2="192.37"
          style="fill: none; stroke: #2e1036; stroke-linecap: round; stroke-miterlimit: 10; stroke-width: 1.77px;" />
        <polyline points="54.12 198.24 60.53 198.27 66.94 198.3"
          style="fill: none; stroke: #2e1036; stroke-linecap: round; stroke-miterlimit: 10; stroke-width: 1.77px;" />
        <line x1="54.09" y1="204.14" x2="60.5" y2="204.17"
          style="fill: none; stroke: #2e1036; stroke-linecap: round; stroke-miterlimit: 10; stroke-width: 1.77px;" />
        <polyline points="54.06 210.03 60.48 210.06 66.89 210.09"
          style="fill: none; stroke: #2e1036; stroke-linecap: round; stroke-miterlimit: 10; stroke-width: 1.77px;" />
        <line x1="54.04" y1="215.93" x2="60.45" y2="215.96"
          style="fill: none; stroke: #2e1036; stroke-linecap: round; stroke-miterlimit: 10; stroke-width: 1.77px;" />
        <polyline points="54.01 221.83 60.42 221.86 66.84 221.89"
          style="fill: none; stroke: #2e1036; stroke-linecap: round; stroke-miterlimit: 10; stroke-width: 1.77px;" />
        <line x1="53.98" y1="227.73" x2="60.4" y2="227.75"
          style="fill: none; stroke: #2e1036; stroke-linecap: round; stroke-miterlimit: 10; stroke-width: 1.77px;" />
        <polyline points="53.95 233.62 60.37 233.65 66.78 233.68"
          style="fill: none; stroke: #2e1036; stroke-linecap: round; stroke-miterlimit: 10; stroke-width: 1.77px;" />
        <line x1="53.93" y1="239.52" x2="60.34" y2="239.55"
          style="fill: none; stroke: #2e1036; stroke-linecap: round; stroke-miterlimit: 10; stroke-width: 1.77px;" />
        <polyline points="53.9 245.42 60.31 245.45 66.73 245.48"
          style="fill: none; stroke: #2e1036; stroke-linecap: round; stroke-miterlimit: 10; stroke-width: 1.77px;" />
        <line x1="53.87" y1="251.31" x2="60.29" y2="251.34"
          style="fill: none; stroke: #2e1036; stroke-linecap: round; stroke-miterlimit: 10; stroke-width: 1.77px;" />
        <polyline points="53.85 257.21 60.26 257.24 66.67 257.27"
          style="fill: none; stroke: #2e1036; stroke-linecap: round; stroke-miterlimit: 10; stroke-width: 1.77px;" />
        <line x1="53.82" y1="263.11" x2="60.23" y2="263.14"
          style="fill: none; stroke: #2e1036; stroke-linecap: round; stroke-miterlimit: 10; stroke-width: 1.77px;" />
        <polyline points="53.79 269.01 60.21 269.04 66.62 269.07"
          style="fill: none; stroke: #2e1036; stroke-linecap: round; stroke-miterlimit: 10; stroke-width: 1.77px;" />
        <line x1="53.77" y1="274.9" x2="60.18" y2="274.93"
          style="fill: none; stroke: #2e1036; stroke-linecap: round; stroke-miterlimit: 10; stroke-width: 1.77px;" />
        <polyline points="53.74 280.8 60.15 280.83 66.57 280.86"
          style="fill: none; stroke: #2e1036; stroke-linecap: round; stroke-miterlimit: 10; stroke-width: 1.77px;" />
        <line x1="53.71" y1="286.7" x2="60.13" y2="286.73"
          style="fill: none; stroke: #2e1036; stroke-linecap: round; stroke-miterlimit: 10; stroke-width: 1.77px;" />
        <polyline points="53.69 292.6 60.1 292.63 66.51 292.66"
          style="fill: none; stroke: #2e1036; stroke-linecap: round; stroke-miterlimit: 10; stroke-width: 1.77px;" />
        <line x1="53.66" y1="298.49" x2="60.07" y2="298.52"
          style="fill: none; stroke: #2e1036; stroke-linecap: round; stroke-miterlimit: 10; stroke-width: 1.77px;" />
        <polyline points="53.63 304.39 60.05 304.42 66.46 304.45"
          style="fill: none; stroke: #2e1036; stroke-linecap: round; stroke-miterlimit: 10; stroke-width: 1.77px;" />
        <line x1="53.61" y1="310.29" x2="60.02" y2="310.32"
          style="fill: none; stroke: #2e1036; stroke-linecap: round; stroke-miterlimit: 10; stroke-width: 1.77px;" />
        <polyline points="53.58 316.19 59.99 316.22 66.41 316.24"
          style="fill: none; stroke: #2e1036; stroke-linecap: round; stroke-miterlimit: 10; stroke-width: 1.77px;" />
        <line x1="53.55" y1="322.08" x2="59.96" y2="322.11"
          style="fill: none; stroke: #2e1036; stroke-linecap: round; stroke-miterlimit: 10; stroke-width: 1.77px;" />
        <polyline points="53.52 327.98 59.94 328.01 66.35 328.04"
          style="fill: none; stroke: #2e1036; stroke-linecap: round; stroke-miterlimit: 10; stroke-width: 1.77px;" />
        <line x1="53.5" y1="333.88" x2="59.91" y2="333.91"
          style="fill: none; stroke: #2e1036; stroke-linecap: round; stroke-miterlimit: 10; stroke-width: 1.77px;" />
        <polyline points="53.47 339.78 59.88 339.8 66.3 339.83"
          style="fill: none; stroke: #2e1036; stroke-linecap: round; stroke-miterlimit: 10; stroke-width: 1.77px;" />
      </g>
      <g>
        <path d="m170.96,293.87v30.34c3.76-1.46,6.8-4.38,8.46-8.33,2.45-5.82,1.22-12.23-3.22-16.72l-5.24-5.3Z"
          style="fill: #2e1036; opacity: .2;" />
        <ellipse cx="250.5" cy="383" rx="76.86" ry="20.19" style="fill: #2e1036; opacity: .5;" />
        <path
          d="m263.97,346.83h48.64v-165.66c0-12.22-44.52-15.48-70.83-15.48s-70.83,3.26-70.83,15.48v71.61l93.01,94.05Z"
          style="fill: #2e1036; opacity: .2;" />
        <path
          d="m263,359.57l5.6.03h.02c1.37,0,2.54-.78,3.07-2.04.53-1.27.26-2.66-.7-3.64l-104.5-105.68v41.1l9.72,9.82c4.44,4.49,5.68,10.9,3.22,16.72-2.29,5.43-7.17,8.89-12.94,9.32v33.82l36.15,24.46,70.82,1.63-10.45-25.55Z"
          style="fill: #2e1036; opacity: .5;" />
        <path d="m197.45,181.16v194.31h.26c0,24.79,139.43,24.79,139.43,0h.26v-194.31c0-19.5-139.94-19.5-139.94,0Z"
          style="fill: #35669a; stroke: #2e1036; stroke-linejoin: round; stroke-width: 1.71px;" />
        <ellipse cx="267.43" cy="184.31" rx="62.63" ry="12.08"
          style="fill: #2e1036; stroke: #2e1036; stroke-miterlimit: 10; stroke-width: .32px;" />
        <g>
          <rect x="167.57" y="221.71" width="166.2" height="35.99" transform="translate(-15.89 461.6) rotate(-83.49)"
            style="fill: #b2acab; stroke: #2e1036; stroke-miterlimit: 10; stroke-width: 1.71px;" />
          <path
            d="m280.02,121.32l-16.74,146.82-31.28-3.57,15.04-131.88c.33.12.68.2,1.04.25,2.55.29,4.85-1.54,5.15-4.09.1-.84-.04-1.65-.36-2.37l27.15-5.16"
            style="fill: #b2acab; stroke: #2e1036; stroke-miterlimit: 10; stroke-width: 1.71px;" />
          <polygon points="280.02 121.32 263.28 268.14 260.36 267.81 277 121.9 280.02 121.32"
            style="fill: #b2acab; stroke: #2e1036; stroke-miterlimit: 10; stroke-width: 1.71px;" />
          <line x1="278.3" y1="136.39" x2="245.91" y2="142.55"
            style="fill: none; stroke: #2e1036; stroke-miterlimit: 10; stroke-width: 1.71px;" />
          <line x1="276.58" y1="151.47" x2="244.19" y2="157.62"
            style="fill: none; stroke: #2e1036; stroke-miterlimit: 10; stroke-width: 1.71px;" />
          <line x1="274.87" y1="166.54" x2="242.47" y2="172.69"
            style="fill: none; stroke: #2e1036; stroke-miterlimit: 10; stroke-width: 1.71px;" />
          <line x1="273.15" y1="181.61" x2="240.76" y2="187.76"
            style="fill: none; stroke: #2e1036; stroke-miterlimit: 10; stroke-width: 1.71px;" />
          <line x1="271.43" y1="196.68" x2="239.04" y2="202.83"
            style="fill: none; stroke: #2e1036; stroke-miterlimit: 10; stroke-width: 1.71px;" />
          <line x1="269.71" y1="211.75" x2="237.32" y2="217.91"
            style="fill: none; stroke: #2e1036; stroke-miterlimit: 10; stroke-width: 1.71px;" />
          <line x1="267.99" y1="226.82" x2="235.6" y2="232.98"
            style="fill: none; stroke: #2e1036; stroke-miterlimit: 10; stroke-width: 1.71px;" />
          <line x1="266.27" y1="241.89" x2="233.88" y2="248.05"
            style="fill: none; stroke: #2e1036; stroke-miterlimit: 10; stroke-width: 1.71px;" />
          <path d="m260.42,320.52l19.37-169.87c.19-1.66-.61-3.27-2.04-4.12l-11.94-7.12-20.46,179.39"
            style="fill: #1b4d78; stroke: #2e1036; stroke-linejoin: round; stroke-width: 1.71px;" />
          <path d="m264.85,320.53l17.4-152.6c.12-1.01-.37-2-1.25-2.53l-7.32-4.37-18.07,158.44"
            style="fill: #e27197; stroke: #2e1036; stroke-linejoin: round; stroke-width: 1.71px;" />
          <path d="m223.47,316.3l19.37-169.87c.19-1.66,1.33-3.05,2.92-3.56l13.24-4.25-20.46,179.39"
            style="fill: #1b4d78; stroke: #2e1036; stroke-linejoin: round; stroke-width: 1.71px;" />
          <path d="m219.15,315.32l17.4-152.6c.12-1.01.82-1.87,1.79-2.18l8.12-2.61-18.07,158.44"
            style="fill: #e27197; stroke: #2e1036; stroke-linejoin: round; stroke-width: 1.71px;" />
          <path
            d="m248.11,236.87c-.2,1.71,1.03,3.26,2.75,3.45s3.26-1.03,3.45-2.75-1.03-3.26-2.75-3.45c-1.71-.2-3.26,1.03-3.45,2.75Z"
            style="fill: #2e1036;" />
          <path
            d="m247.52,273.82c7.61.87,14.48-4.6,15.35-12.2.87-7.61-4.6-14.48-12.2-15.35s-14.48,4.6-15.35,12.2c-.87,7.61,4.6,14.48,12.2,15.35"
            style="fill: #2e1036; stroke: #b2acab; stroke-miterlimit: 10; stroke-width: 1.71px;" />
        </g>
        <g>
          <path
            d="m347.15,120.74c-2.11,10.26-9.35,17.44-16.16,16.04-6.81-1.4-10.62-10.86-8.5-21.12,1.87-9.07,16.78-32.7,20.22-38.07.25-.39.85-.27.92.19,1.04,6.29,5.39,33.89,3.52,42.96Z"
            style="fill: #41204c; stroke: #2e1036; stroke-miterlimit: 10; stroke-width: 1.71px;" />
          <path
            d="m290.04,335.53h0c-1.9-.39-3.13-2.23-2.78-4.13l36.45-196.44c.36-1.96,2.26-3.23,4.21-2.83l7.72,1.59c1.95.4,3.19,2.33,2.75,4.27l-44.18,194.85c-.43,1.89-2.29,3.09-4.18,2.7Z"
            style="fill: #00b9f2; stroke: #2e1036; stroke-miterlimit: 10; stroke-width: 1.71px;" />
          <path d="m324.29,130.41c.61-2.98,15.98.18,15.37,3.17l-5.93,26.15c.2-.96-14.13-3.91-14.33-2.95l4.89-26.36Z"
            style="fill: #b2acab; stroke: #2e1036; stroke-miterlimit: 10; stroke-width: 1.71px;" />
          <path
            d="m322.37,137.78l1.21-8.63c.51-2.48,17.76,1.07,17.25,3.55l-2.3,8.4c-.08.28-.87.35-1.79.16l-12.77-2.63c-.92-.19-1.62-.57-1.58-.85Z"
            style="fill: #e5d9da; stroke: #2e1036; stroke-miterlimit: 10; stroke-width: 1.71px;" />
        </g>
        <g>
          <path
            d="m214.11,152.12l-18.22-33.19-9.44,5.18,20.48,37.32.04-.02,72.79,132.62c.58,1.06,1.96,1.35,2.92.64,29.8-22.13-29.71-136.43-68.58-142.55Z"
            style="fill: #b2acab; stroke: #2e1036; stroke-miterlimit: 10; stroke-width: 1.71px;" />
          <path
            d="m184.84,130.93l11.32,20.63c2.19,4,19.49-5.5,17.3-9.49l-11.38-20.74c9.24-9.89,6.57-22.22-.3-34.73-8.56-15.59-23.14-24.04-38.73-15.48-15.59,8.56-17.3,25.94-8.74,41.53,6.94,12.64,17.11,20.97,30.53,18.29Zm-16.34-26.08c-4.25-7.74-5.4-15.3,2.33-19.55s12.49,1.34,16.74,9.07c4.25,7.74,6.4,14.75-1.34,19s-13.49-.79-17.74-8.53Z"
            style="fill: #1b4d78; stroke: #2e1036; stroke-miterlimit: 10; stroke-width: 1.71px;" />
          <path
            d="m229.75,111.56l-10.74.67,2.36,37.78c-29.57,25.96-18.71,154.36,18.31,157.12,1.2.09,2.21-.9,2.13-2.1l-9.44-150.99h.04s-2.66-42.49-2.66-42.49Z"
            style="fill: #e5d9da; stroke: #2e1036; stroke-miterlimit: 10; stroke-width: 1.71px;" />
          <path
            d="m227.39,152.91l9.53,152.44c.03.47-.11.9-.35,1.25,1.01.28,2.05.47,3.11.54,1.2.09,2.21-.9,2.13-2.1l-9.58-153.18c-1.7.11-3.31.47-4.84,1.05Z"
            style="fill: #b2acab; stroke: #2e1036; stroke-miterlimit: 10; stroke-width: 1.71px;" />
          <path
            d="m223.63,169.96c.13,2.11-1.47,3.93-3.59,4.06-2.11.13-3.93-1.47-4.06-3.59-.13-2.11,1.47-3.93,3.59-4.06s3.93,1.47,4.06,3.59Z"
            style="fill: #b2acab; stroke: #2e1036; stroke-miterlimit: 10; stroke-width: 1.71px;" />
          <path
            d="m250.25,82.25c-1.11-17.75-11.85-31.53-29.6-30.42-17.75,1.11-25.55,16.04-24.44,33.8.89,14.24,5.23,26.09,18.32,29.51l1.48,23.61c.28,4.55,19.98,3.32,19.7-1.23l-1.47-23.49c12.78-4.92,16.91-17.4,16.02-31.78Zm-26.59,17.7c-8.81.55-10.74-6.53-11.29-15.34-.55-8.81.48-16.07,9.29-16.62,8.81-.55,11.88,6.45,12.43,15.27.55,8.81-1.62,16.14-10.43,16.69Z"
            style="fill: #35669a; stroke: #2e1036; stroke-miterlimit: 10; stroke-width: 1.71px;" />
        </g>
        <path
          d="m206.11,182.18l-.99,7.97s13.93,10.12,39.88,12.9c25.95,2.79,84.05-11.14,84.05-11.14v-10.27c-5.3,5.63-30.88,9.91-61.62,9.91s-55.46-4.13-61.34-9.63l.02.26Z"
          style="fill: #2e1036; opacity: .5;" />
        <g>
          <g>
            <line x1="271.9" y1="341.89" x2="274.78" y2="322.38" style="fill: #00b9f2;" />
            <polygon points="271.9 341.89 273.15 322.14 276.41 322.62 271.9 341.89" style="fill: #2e1036;" />
          </g>
          <g>
            <line x1="322.52" y1="342.22" x2="319.89" y2="322.66" style="fill: #00b9f2;" />
            <polygon points="322.52 342.22 318.26 322.88 321.52 322.44 322.52 342.22" style="fill: #2e1036;" />
          </g>
          <path
            d="m273.91,328.54h0c-2.84-.42-4.8-3.06-4.38-5.9l23.01-156.15c.42-2.84,3.06-4.8,5.9-4.38h0c2.84.42,4.8,3.06,4.38,5.9l-23.01,156.15c-.42,2.84-3.06,4.8-5.9,4.38Z"
            style="fill: #b2acab; stroke: #2e1036; stroke-miterlimit: 10; stroke-width: 1.71px;" />
          <path
            d="m320.53,328.84h0c2.84-.38,4.84-3,4.46-5.84l-21.02-156.43c-.38-2.84-3-4.84-5.84-4.46h0c-2.84.38-4.84,3-4.46,5.84l21.02,156.43c.38,2.84,3,4.84,5.84,4.46Z"
            style="fill: #e5d9da; stroke: #2e1036; stroke-miterlimit: 10; stroke-width: 1.71px;" />
          <path
            d="m304.52,165.58l-11.58-.07.26-41.25c.02-3.2,2.63-5.78,5.83-5.75h0c3.2.02,5.78,2.63,5.75,5.83l-.26,41.25Z"
            style="fill: #b2acab; stroke: #2e1036; stroke-miterlimit: 10; stroke-width: 1.71px;" />
          <line x1="299.1" y1="127.2" x2="298.85" y2="165.54"
            style="fill: #00b9f2; stroke: #2e1036; stroke-linecap: round; stroke-miterlimit: 10; stroke-width: 1.71px;" />
          <path
            d="m298.63,181.13h0c-6.13-.04-11.07-5.04-11.03-11.17l.14-21.49,22.2.14-.14,21.49c-.04,6.13-5.04,11.07-11.17,11.03Z"
            style="fill: #e27197; stroke: #2e1036; stroke-miterlimit: 10; stroke-width: 1.71px;" />
          <path
            d="m303.22,165.1c-.02,2.61-2.14,4.71-4.75,4.69-2.61-.02-4.71-2.15-4.69-4.75.02-2.61,2.15-4.71,4.75-4.69,2.61.02,4.71,2.15,4.69,4.75Z"
            style="fill: #b2acab; stroke: #2e1036; stroke-miterlimit: 10; stroke-width: 1.71px;" />
        </g>
        <path
          d="m334.94,182.22c-2.25.97-4.21,2.47-5.89,4.26-5.3,5.63-30.88,9.91-61.62,9.91-32.33,0-58.93-4.72-62.28-10.79-.52-.94-1.31-1.7-2.3-2.13l-4.54-1.94c-.41-.17-.86.12-.86.56v193.38h.26c0,24.79,139.43,24.79,139.43,0h.26v-193.38c0-.44-.45-.74-.86-.56l-1.61.69Z"
          style="fill: #35669a;" />
        <path d="m197.45,181.16v194.31h.26c0,24.79,139.43,24.79,139.43,0h.26v-194.31"
          style="fill: none; stroke: #2e1036; stroke-linecap: round; stroke-linejoin: round; stroke-width: 1.71px;" />
        <path
          d="m330.06,184.31c0,.69-.3,1.35-.7,1.91-.44.53-.94,1.02-1.5,1.42-1.12.81-2.35,1.45-3.61,2-2.53,1.1-5.16,1.91-7.82,2.62-5.33,1.36-10.75,2.26-16.18,3-10.88,1.43-21.86,1.94-32.82,1.99-10.96-.04-21.94-.55-32.82-1.98-5.43-.74-10.86-1.64-16.18-3-2.65-.71-5.29-1.52-7.82-2.62-1.26-.55-2.49-1.19-3.61-2-.56-.4-1.07-.89-1.5-1.42-.4-.56-.7-1.21-.7-1.91.04.69.38,1.31.8,1.83.46.49.98.93,1.55,1.29,1.13.74,2.37,1.31,3.64,1.79,2.54.97,5.18,1.64,7.84,2.22,5.31,1.18,10.72,1.94,16.14,2.51,10.84,1.12,21.76,1.58,32.66,1.58,10.91,0,21.82-.46,32.66-1.58,5.42-.57,10.83-1.33,16.14-2.51,2.66-.58,5.3-1.26,7.84-2.23,1.27-.48,2.51-1.06,3.64-1.79.58-.36,1.09-.8,1.55-1.29.42-.52.76-1.13.8-1.83Z"
          style="fill: #2e1036;" />
      </g>
      <g>
        <path
          d="m376.56,416.33l-32.02-45.86-6.29,2.52v-146.74l-43.94,2.58h0s-.02,0-.03,0h-.17c-9.82.62-16.08,6.42-15.58,14.45l3.69,62.65c0,.13.03.26.07.39.13,1.84,2.11,34.61,3.16,51.99l2.1,35.92c.47-.03.92-.07,1.39-.11l35.55,24.51,52.08-2.3Z"
          style="fill: #2e1036; opacity: .5;" />
        <path
          d="m452.05,346.83l-7.33-125.47c-.15-2.55-1.28-4.89-3.19-6.59-1.91-1.7-4.37-2.55-6.92-2.4l-96.35,5.65v128.81h113.79Z"
          style="fill: #2e1036; opacity: .2;" />
        <path
          d="m310.39,243.24l1.85,31.33,1.85,31.33c0,.1.03.19.06.28.03.09,3.17,52.09,3.17,52.09l3.03,51.82c.2,3.42,1.77,6.43,4.14,8.53,2.37,2.11,5.54,3.31,8.96,3.11l57.03-3.34,57.03-3.34c8.29-.52,13.45-6.59,15.13-8.47,2.11-2.37,3.31-5.54,3.11-8.96l-4.88-83.43-4.88-83.43c-.14-2.43-1.26-4.58-2.95-6.08-1.69-1.5-3.95-2.36-6.39-2.22l-60.58,3.55-60.58,3.55s0,0,0,0,0,0,0,0h-.09s-.09.01-.09.01c-8.72.54-15.4,5.5-14.9,13.66Z"
          style="fill: #2e1036; stroke: #2e1036; stroke-linejoin: round; stroke-width: 1.47px;" />
        <path
          d="m454.09,410.72l-114.06,6.68c-6.83.4-12.7-4.81-13.1-11.64l-9.75-166.86c-.28-4.87,3.43-9.05,8.3-9.33l121.17-7.1c4.87-.29,9.05,3.43,9.33,8.3l9.75,166.86c.4,6.83-4.82,12.7-11.65,13.1Z"
          style="fill: #4582c3; stroke: #2e1036; stroke-miterlimit: 10; stroke-width: 1.71px;" />
        <path
          d="m459.48,293.43c.56,9.52-138.25,17.66-138.8,8.14l-3.69-62.65c-.28-4.87,3.43-9.05,8.3-9.33l121.17-7.1c4.87-.29,9.05,3.43,9.33,8.3l3.69,62.65Z"
          style="fill: none; stroke: #2e1036; stroke-miterlimit: 10; stroke-width: 1.71px;" />
        <path
          d="m449,285.67l-118.87,6.97c-2.5.15-4.65-1.76-4.8-4.27l-2.67-45.73c-.26-4.49,3.16-8.34,7.65-8.6l111.68-6.55c4.49-.26,8.34,3.16,8.6,7.65l2.67,45.73c.15,2.5-1.76,4.65-4.27,4.8Z"
          style="fill: #35669a;" />
        <rect x="335.41" y="319.82" width="17.83" height="17.83" rx="3.72" ry="3.72"
          transform="translate(651.12 -35.26) rotate(86.45)"
          style="fill: #eaeaea; stroke: #2e1036; stroke-miterlimit: 10; stroke-width: 1.71px;" />
        <rect x="336.88" y="343.63" width="17.83" height="17.83" rx="3.72" ry="3.72"
          transform="translate(676.26 -14.41) rotate(86.45)"
          style="fill: #eaeaea; stroke: #2e1036; stroke-miterlimit: 10; stroke-width: 1.71px;" />
        <rect x="338.36" y="367.43" width="17.83" height="17.83" rx="3.72" ry="3.72"
          transform="translate(701.41 6.45) rotate(86.45)"
          style="fill: #eaeaea; stroke: #2e1036; stroke-miterlimit: 10; stroke-width: 1.71px;" />
        <rect x="359.21" y="318.35" width="17.83" height="17.83" rx="3.72" ry="3.72"
          transform="translate(671.98 -60.41) rotate(86.45)"
          style="fill: #eaeaea; stroke: #2e1036; stroke-miterlimit: 10; stroke-width: 1.71px;" />
        <rect x="360.69" y="342.15" width="17.83" height="17.83" rx="3.72" ry="3.72"
          transform="translate(697.12 -39.55) rotate(86.45)"
          style="fill: #eaeaea; stroke: #2e1036; stroke-miterlimit: 10; stroke-width: 1.71px;" />
        <rect x="362.16" y="365.96" width="17.83" height="17.83" rx="3.72" ry="3.72"
          transform="translate(722.27 -18.69) rotate(86.45)"
          style="fill: #eaeaea; stroke: #2e1036; stroke-miterlimit: 10; stroke-width: 1.71px;" />
        <rect x="383.02" y="316.87" width="17.83" height="17.83" rx="3.72" ry="3.72"
          transform="translate(692.84 -85.55) rotate(86.45)"
          style="fill: #eaeaea; stroke: #2e1036; stroke-miterlimit: 10; stroke-width: 1.71px;" />
        <rect x="384.49" y="340.68" width="17.83" height="17.83" rx="3.72" ry="3.72"
          transform="translate(717.98 -64.69) rotate(86.45)"
          style="fill: #eaeaea; stroke: #2e1036; stroke-miterlimit: 10; stroke-width: 1.71px;" />
        <rect x="385.97" y="364.48" width="17.83" height="17.83" rx="3.72" ry="3.72"
          transform="translate(743.13 -43.83) rotate(86.45)"
          style="fill: #eaeaea; stroke: #2e1036; stroke-miterlimit: 10; stroke-width: 1.71px;" />
        <rect x="406.82" y="315.4" width="17.83" height="17.83" rx="3.72" ry="3.72"
          transform="translate(713.7 -110.7) rotate(86.45)"
          style="fill: #eaeaea; stroke: #2e1036; stroke-miterlimit: 10; stroke-width: 1.71px;" />
        <rect x="409.03" y="339.18" width="17.83" height="41.68" rx="3.72" ry="3.72"
          transform="translate(-21.48 26.55) rotate(-3.55)"
          style="fill: #eaeaea; stroke: #2e1036; stroke-miterlimit: 10; stroke-width: 1.71px;" />
        <rect x="430.62" y="313.92" width="17.83" height="17.83" rx="3.72" ry="3.72"
          transform="translate(734.55 -135.84) rotate(86.45)"
          style="fill: #eaeaea; stroke: #2e1036; stroke-miterlimit: 10; stroke-width: 1.71px;" />
        <rect x="432.1" y="337.73" width="17.83" height="17.83" rx="3.72" ry="3.72"
          transform="translate(759.7 -114.98) rotate(86.45)"
          style="fill: #eaeaea; stroke: #2e1036; stroke-miterlimit: 10; stroke-width: 1.71px;" />
        <rect x="433.58" y="361.53" width="17.83" height="17.83" rx="3.72" ry="3.72"
          transform="translate(784.84 -94.12) rotate(86.45)"
          style="fill: #eaeaea; stroke: #2e1036; stroke-miterlimit: 10; stroke-width: 1.71px;" />
        <rect x="325.67" y="242.21" width="124.47" height="37.44" transform="translate(-14.7 23.3) rotate(-3.38)"
          style="fill: #e27197; stroke: #2e1036; stroke-miterlimit: 10; stroke-width: 1.71px;" />
        <path
          d="m325.07,282.87l-2.14-36.34c-.13-2.14,1.51-3.98,3.65-4.1l120.06-7.09c2.14-.13,3.98,1.51,4.1,3.65l2.14,36.34c.13,2.14-1.51,3.98-3.65,4.1l-120.06,7.09c-2.14.13-3.98-1.51-4.1-3.65Zm3.3-31.51l1.53,26.06c.13,2.14,1.96,3.77,4.1,3.65l109.79-6.47c2.14-.13,3.77-1.96,3.65-4.1l-1.53-26.06c-.13-2.14-1.96-3.77-4.1-3.65l-109.79,6.47c-2.14.13-3.77,1.96-3.65,4.1Z"
          style="fill: #eaeaea; stroke: #2e1036; stroke-miterlimit: 10; stroke-width: 1.71px;" />
        <path
          d="m352.2,268.64l12.16-.75.2,3.19-12.31.76-.19-3.04-3.04.19-.57-9.27,3.04-.19-.19-3.04,9.27-.57.19,3.04,3.04-.19.39,6.23-12.16.75.18,2.89Zm-.38-6.08l8.96-.56-.18-2.89-8.96.56.18,2.89Z"
          style="fill: #2e1036;" />
        <path d="m366.67,258.59l15.35-.95.2,3.19-15.35.95-.2-3.19Zm.38,6.08l15.35-.95.2,3.19-15.35.95-.2-3.19Z"
          style="fill: #2e1036;" />
        <path
          d="m391.18,260.27l-2.89.18.57,9.12-3.19.2-.95-15.35,3.19-.2.19,3.04,2.89-.18-.19-3.04,3.19-.2.19,3.04,2.89-.18-.19-3.04,3.19-.2.95,15.35-3.19.2-.57-9.12-2.89.18.57,9.12-3.19.2-.57-9.12Z"
          style="fill: #2e1036;" />
        <path
          d="m406.89,265.25l8.96-.56-.19-3.04,3.19-.2.2,3.19-3.04.19.19,3.04-9.27.57-.19-3.04-3.04.19-.57-9.27,3.04-.19-.19-3.04,9.27-.57.19,3.04,3.04-.19.2,3.19-3.19.2-.19-3.04-8.96.56.56,8.96Z"
          style="fill: #2e1036;" />
        <path
          d="m421.57,255.32l1.77-.11-.11-1.77,1.77-.11-.11-1.77,3.54-.22-.1-1.68-5.23.32.11,1.77-1.86.12-.12-1.86,1.77-.11-.11-1.77,5.4-.34.11,1.77,1.77-.11.12,1.86-1.77.11.11,1.77-3.54.22.1,1.68,5.31-.33.12,1.86-8.95.55-.12-1.86Z"
          style="fill: #2e1036;" />
        <path
          d="m449,285.67l-118.87,6.97c-2.5.15-4.65-1.76-4.8-4.27l-2.67-45.73c-.26-4.49,3.16-8.34,7.65-8.6l111.68-6.55c4.49-.26,8.34,3.16,8.6,7.65l2.67,45.73c.15,2.5-1.76,4.65-4.27,4.8Z"
          style="fill: none; stroke: #2e1036; stroke-miterlimit: 10; stroke-width: 1.71px;" />
        <path
          d="m359.69,300.21l-16.32,1.01c-1.31.08-2.44-.91-2.52-2.22h0c-.08-1.31.91-2.44,2.22-2.52l16.32-1.01c1.31-.08,2.44.91,2.52,2.22h0c.08,1.31-.91,2.44-2.22,2.52Z"
          style="fill: #eaeaea; stroke: #2e1036; stroke-miterlimit: 10; stroke-width: 1.71px;" />
        <path
          d="m437.09,295.41l-16.32,1.01c-1.31.08-2.44-.91-2.52-2.22h0c-.08-1.31.91-2.44,2.22-2.52l16.32-1.01c1.31-.08,2.44.91,2.52,2.22h0c.08,1.31-.91,2.44-2.22,2.52Z"
          style="fill: #eaeaea; stroke: #2e1036; stroke-miterlimit: 10; stroke-width: 1.71px;" />
      </g>
    </g>
  </g>
</svg>