<?xml version="1.0" encoding="utf-8"?>
<!-- Generator: Adobe Illustrator 27.5.0, SVG Export Plug-In . SVG Version: 6.00 Build 0)  -->
<svg version="1.1" xmlns="http://www.w3.org/2000/svg" xmlns:xlink="http://www.w3.org/1999/xlink" x="0px" y="0px"
	viewBox="0 0 500 500" style="enable-background:new 0 0 500 500;" xml:space="preserve">
	<g id="BACKGROUND">
		<rect y="0" style="fill:transparent;" width="500" height="500" />
	</g>
	<g id="OBJECTS">
		<g>
			<g>
				<g>
					<polygon style="fill:#002398;"
						points="92.845,356.389 234.051,440.269 416.466,330.946 274.919,247.95 				" />
					<polygon style="fill:#EDEFFF;"
						points="92.845,354.418 234.051,438.299 416.466,328.975 274.919,245.979 				" />
					<polygon style="fill:#C5D4FF;"
						points="288.858,274.396 390.885,334.91 399.315,330.357 296.458,270.209 				" />
					<polygon style="fill:#14FFE8;"
						points="269.991,284.694 372.018,345.208 380.448,340.655 277.59,280.507 				" />
					<polygon style="fill:#FFB700;"
						points="251.123,294.992 315.954,333.453 324.384,328.9 258.723,290.805 				" />
					<polygon style="fill:#41029C;"
						points="232.255,305.29 334.283,365.804 342.712,361.25 239.855,301.103 				" />
					<polygon style="fill:#E7202A;"
						points="268.874,348.503 315.415,376.102 323.845,371.549 276.474,344.316 				" />
					<path style="fill:#41029C;" d="M288.858,384.814c0,13.836-24.239,25.062-54.138,25.062c-29.899,0-54.136-11.226-54.136-25.062
					c0-13.845,24.237-25.068,54.136-25.068C264.619,359.747,288.858,370.97,288.858,384.814z" />
					<path style="fill:#41029C;" d="M230.305,342.14c0,5.197-9.104,9.414-20.335,9.414c-11.23,0-20.335-4.217-20.335-9.414
					c0-5.2,9.104-9.416,20.335-9.416C221.201,332.724,230.305,336.94,230.305,342.14z" />
					<path style="fill:#00C8C3;" d="M197.132,357.905c0,2.615-4.581,4.737-10.233,4.737c-5.651,0-10.233-2.122-10.233-4.737
					c0-2.617,4.581-4.738,10.233-4.738C192.551,353.167,197.132,355.289,197.132,357.905z" />
					<path style="fill:#FFB700;" d="M234.721,410.299c-29.899,0-54.539-11.652-54.539-25.487c0-8.234,8.977-15.537,22.216-20.107
					l66.54,39.527C259.611,407.758,247.702,410.299,234.721,410.299z" />
					<path style="fill:#00C8C3;" d="M191.806,409.078l42.444-25.437l42.714,25.373c-11.493,4.346-26.169,7.477-42.165,7.477
					C218.511,416.491,203.497,413.682,191.806,409.078z" />
				</g>
				<g>
					<path style="fill:#F1F1F5;" d="M300.556,386.126L300.556,386.126c0.798,0.886,2.175,0.957,3.061,0.159l9.305-8.383
					c0.885-0.798,0.957-2.175,0.16-3.061h0c-0.798-0.886-2.175-0.958-3.061-0.16l-9.305,8.384
					C299.831,383.864,299.759,385.241,300.556,386.126z" />
					<path style="fill:#08094E;" d="M299.085,387.866l-0.129-0.129c-0.705-0.705-0.705-1.859,0-2.564l9.228-9.228
					c0.705-0.705,1.859-0.705,2.564,0l0.129,0.129c0.705,0.705,0.705,1.859,0,2.564l-9.228,9.228
					C300.944,388.571,299.79,388.571,299.085,387.866z" />
					<path style="fill:#FFD46B;" d="M320.944,383.488l-0.229,0.233l-16.586,1.299c-1.327,0.104-2.433-1.002-2.329-2.329l1.301-16.584
					l0.231-0.226L320.944,383.488z" />
					<path style="fill:#FFB700;" d="M324.856,375.04c-4.312-4.079-8.655-8.392-13.921-11.235c-1.341-0.724-2.726-1.205-4.117-1.478
					l111.088-111.074l1.783,12.13l4.133,3.706l3.556,3.554l8.441-1.479L327.059,377.926
					C326.472,376.862,325.744,375.88,324.856,375.04z" />
					<path style="fill:#FFDA00;" d="M354.25,332.985l-0.412-0.412c-2.246-2.246-2.246-5.921,0-8.167l13.867-13.867
					c2.246-2.246,5.921-2.246,8.167,0l0.412,0.412c2.246,2.246,2.246,5.921,0,8.167l-13.867,13.867
					C360.171,335.231,356.496,335.231,354.25,332.985z" />
					<path style="fill:#FFB700;" d="M325.031,344.11l17.14,18.706l-20.191,20.191c0,0-0.004,0-0.006,0
					c-0.019,0.019-0.039,0.042-0.06,0.062c-2.291,2.291-8.158,0.141-13.106-4.807c-4.947-4.95-7.099-10.819-4.809-13.106
					c0.023-0.022,0.043-0.043,0.064-0.062l-0.008-0.013L325.031,344.11z" />
					<path style="fill:#FF9A00;" d="M410.917,258.23l17.139,18.702l-5.543,5.539h-0.006c-0.021,0.021-0.04,0.041-0.059,0.064
					c-2.29,2.287-8.007-0.015-12.952-4.964c-4.946-4.947-7.252-10.661-4.964-12.952c0.021-0.021,0.044-0.04,0.063-0.06l-0.006-0.011
					L410.917,258.23z" />
					<path style="fill:#CAE1FF;" d="M411.48,257.667l17.139,18.706l-5.541,5.535c0,0-0.003,0-0.005,0
					c-0.019,0.019-0.039,0.042-0.06,0.062c-2.291,2.291-8.158,0.141-13.106-4.807c-4.947-4.95-7.1-10.819-4.809-13.106
					c0.023-0.023,0.043-0.043,0.064-0.062l-0.008-0.013L411.48,257.667z" />
					<g>
						<path style="fill:#A9062A;" d="M418.645,250.499l0.09,1.991c0.228,0.011,0.465,0.04,0.706,0.081l5.953,5.109l4.133,3.706
						l3.556,3.554l1.269,1.956c0.09,0.367,0.156,0.723,0.199,1.065c0.789,0.749,2.21,0.265,2.21,0.265l-8.716,8.72
						c0,0-0.004,0-0.006,0c-0.018,0.019-0.039,0.043-0.058,0.062c-2.289,2.29-8.158,0.138-13.103-4.809
						c-4.95-4.949-7.103-10.816-4.813-13.102c0.021-0.025,0.041-0.043,0.062-0.064l-0.004-0.012L418.645,250.499z" />
						<path style="fill:#E7202A;" d="M436.567,268.425c-2.29,2.289-8.161,0.135-13.106-4.811c-4.947-4.948-7.098-10.815-4.811-13.108
						c2.29-2.289,8.155-0.134,13.104,4.817C436.701,260.266,438.856,266.134,436.567,268.425z" />
						<path style="fill:#FF3B2A;" d="M433.951,262.451c-1.223,1.222-4.358,0.072-6.998-2.569c-2.641-2.642-3.79-5.775-2.569-6.999
						c1.223-1.222,4.355-0.071,6.997,2.572C434.022,258.094,435.173,261.228,433.951,262.451z" />
					</g>
				</g>
				<g>
					<g>
						<g>
							<polygon style="fill:#000C1F;" points="158.197,294.081 82.27,344.308 77.195,341.264 77.474,200.531 158.475,153.347 
							163.549,156.391 						" />
							<polygon style="fill:#00204E;"
								points="163.271,297.124 82.27,344.308 82.548,203.574 163.549,156.391 						" />
							<path style="fill:#303B8E;" d="M91.82,239.199L91.82,239.199c-2.944,1.715-5.33,6.072-5.33,9.733v0
							c0,3.66,2.386,5.238,5.33,3.523h0c2.944-1.715,5.33-6.072,5.33-9.733S94.764,237.484,91.82,239.199z" />
							<path style="fill:#303B8E;" d="M106.639,230.567c-2.944,1.715-5.33,6.072-5.33,9.733s2.387,5.238,5.33,3.523
							c2.944-1.715,5.33-6.072,5.33-9.733S109.582,228.852,106.639,230.567z" />
							<path style="fill:#303B8E;" d="M121.458,221.935L121.458,221.935c-2.944,1.715-5.33,6.072-5.33,9.733s2.386,5.238,5.33,3.523
							h0c2.944-1.715,5.33-6.072,5.33-9.733C126.788,221.798,124.401,220.22,121.458,221.935z" />
							<path style="fill:#748CB7;" d="M91.82,258.753L91.82,258.753c-2.944,1.715-5.33,6.072-5.33,9.733s2.386,5.238,5.33,3.523h0
							c2.944-1.715,5.33-6.072,5.33-9.733S94.764,257.038,91.82,258.753z" />
							<path style="fill:#748CB7;" d="M106.639,250.121c-2.944,1.715-5.33,6.072-5.33,9.733v0c0,3.66,2.387,5.238,5.33,3.523
							c2.944-1.715,5.33-6.072,5.33-9.733v0C111.969,249.983,109.582,248.406,106.639,250.121z" />
							<path style="fill:#748CB7;" d="M121.458,241.489L121.458,241.489c-2.944,1.715-5.33,6.072-5.33,9.733s2.386,5.238,5.33,3.523
							h0c2.944-1.715,5.33-6.072,5.33-9.733S124.401,239.774,121.458,241.489z" />
							<path style="fill:#748CB7;" d="M91.82,278.306L91.82,278.306c-2.944,1.715-5.33,6.072-5.33,9.733s2.386,5.238,5.33,3.523h0
							c2.944-1.715,5.33-6.072,5.33-9.733C97.15,278.169,94.764,276.591,91.82,278.306z" />
							<path style="fill:#748CB7;" d="M106.639,269.674c-2.944,1.715-5.33,6.072-5.33,9.733s2.387,5.238,5.33,3.523
							c2.944-1.715,5.33-6.072,5.33-9.732C111.969,269.537,109.582,267.96,106.639,269.674z" />
							<path style="fill:#748CB7;" d="M121.458,261.042L121.458,261.042c-2.944,1.715-5.33,6.072-5.33,9.733s2.386,5.238,5.33,3.523
							h0c2.944-1.715,5.33-6.072,5.33-9.732v0C126.788,260.905,124.401,259.328,121.458,261.042z" />
							<path style="fill:#748CB7;" d="M91.82,297.86L91.82,297.86c-2.944,1.715-5.33,6.072-5.33,9.733s2.386,5.238,5.33,3.523h0
							c2.944-1.715,5.33-6.072,5.33-9.733S94.764,296.145,91.82,297.86z" />
							<path style="fill:#748CB7;" d="M106.639,289.228c-2.944,1.715-5.33,6.072-5.33,9.733s2.387,5.238,5.33,3.523
							c2.944-1.715,5.33-6.072,5.33-9.733S109.582,287.513,106.639,289.228z" />
							<path style="fill:#748CB7;" d="M121.458,280.596L121.458,280.596c-2.944,1.715-5.33,6.072-5.33,9.733l0,0
							c0,3.66,2.386,5.238,5.33,3.523h0c2.944-1.715,5.33-6.072,5.33-9.733S124.401,278.881,121.458,280.596z" />
							<path style="fill:#748CB7;" d="M91.82,317.413L91.82,317.413c-2.944,1.715-5.33,6.072-5.33,9.733s2.386,5.238,5.33,3.523h0
							c2.944-1.715,5.33-6.072,5.33-9.733v0C97.15,317.276,94.764,315.699,91.82,317.413z" />
							<path style="fill:#748CB7;" d="M106.639,308.781L106.639,308.781c-2.944,1.715-5.33,6.072-5.33,9.733s2.387,5.238,5.33,3.523
							c2.944-1.715,5.33-6.072,5.33-9.733S109.582,307.067,106.639,308.781z" />
							<path style="fill:#748CB7;" d="M121.458,300.15L121.458,300.15c-2.944,1.715-5.33,6.072-5.33,9.733s2.386,5.238,5.33,3.523h0
							c2.944-1.715,5.33-6.072,5.33-9.733S124.401,298.435,121.458,300.15z" />
							<path style="fill:#303B8E;" d="M136.276,213.303c-2.944,1.715-5.33,6.072-5.33,9.733l0,0c0,3.66,2.386,5.238,5.33,3.523
							c2.944-1.715,5.33-6.072,5.33-9.733S139.22,211.589,136.276,213.303z" />
							<path style="fill:#99000E;" d="M151.095,204.671c-2.944,1.715-5.33,6.072-5.33,9.733c0,3.66,2.387,5.238,5.33,3.523
							c2.944-1.715,5.33-6.072,5.33-9.733l0,0C156.425,204.534,154.039,202.957,151.095,204.671z" />
							<path style="fill:#303B8E;" d="M136.276,232.857c-2.944,1.715-5.33,6.072-5.33,9.733s2.386,5.238,5.33,3.523v0
							c2.944-1.715,5.33-6.072,5.33-9.733S139.22,231.142,136.276,232.857z" />
							<path style="fill:#303B8E;" d="M151.095,224.225c-2.944,1.715-5.33,6.072-5.33,9.732v0c0,3.66,2.387,5.238,5.33,3.523
							c2.944-1.715,5.33-6.072,5.33-9.733S154.039,222.51,151.095,224.225z" />
							<path style="fill:#303B8E;" d="M136.276,252.41c-2.944,1.715-5.33,6.072-5.33,9.733s2.386,5.238,5.33,3.523
							c2.944-1.715,5.33-6.072,5.33-9.733C141.607,252.273,139.22,250.696,136.276,252.41z" />
							<path style="fill:#303B8E;" d="M151.095,243.779c-2.944,1.715-5.33,6.072-5.33,9.733s2.387,5.238,5.33,3.523
							c2.944-1.715,5.33-6.072,5.33-9.733S154.039,242.064,151.095,243.779z" />
							<path style="fill:#303B8E;" d="M151.095,263.332c-2.944,1.715-5.33,6.072-5.33,9.733s2.387,5.238,5.33,3.523
							c2.944-1.715,5.33-6.072,5.33-9.733S154.039,261.617,151.095,263.332z" />
							<path style="fill:#303B8E;" d="M151.095,282.886L151.095,282.886c-2.944,1.715-5.33,6.072-5.33,9.733s2.387,5.238,5.33,3.523
							c2.944-1.715,5.33-6.072,5.33-9.733C156.425,282.748,154.039,281.171,151.095,282.886z" />
							<path style="fill:#303B8E;" d="M136.276,271.964c-2.944,1.715-5.33,6.072-5.33,9.733v19.554c0,3.66,2.386,5.238,5.33,3.523
							c2.944-1.715,5.33-6.072,5.33-9.733v-19.554C141.607,271.827,139.22,270.249,136.276,271.964z" />
							<polygon style="fill:#000C39;"
								points="163.271,193.458 82.27,240.641 82.548,203.574 163.549,156.391 						" />
							<polygon style="fill:#FFFFFF;"
								points="159.634,189.74 86.287,232.464 86.287,207.633 159.634,164.908 						" />
							<polygon style="fill:#95DBE7;"
								points="158.421,188.76 87.522,230.059 87.522,208.599 158.421,167.301 						" />
							<path style="fill:#4760B3;"
								d="M92.852,252.934L92.852,252.934c-2.944,1.715-5.33,0.138-5.33-3.523l0,0
							c0-3.66,2.386-8.018,5.33-9.733l0,0c2.944-1.715,5.33-0.137,5.33,3.523l0,0C98.183,246.862,95.796,251.219,92.852,252.934z" />
							<path style="fill:#4760B3;"
								d="M107.671,244.302L107.671,244.302c-2.944,1.715-5.33,0.138-5.33-3.523l0,0
							c0-3.66,2.387-8.018,5.33-9.733l0,0c2.944-1.715,5.33-0.137,5.33,3.523l0,0C113.001,238.23,110.615,242.587,107.671,244.302z" />
							<path style="fill:#4760B3;"
								d="M122.49,235.67L122.49,235.67c-2.944,1.715-5.33,0.137-5.33-3.523l0,0
							c0-3.66,2.386-8.018,5.33-9.733l0,0c2.944-1.715,5.33-0.138,5.33,3.523v0C127.82,229.598,125.434,233.955,122.49,235.67z" />
							<path style="fill:#8FB3D0;"
								d="M92.852,272.487L92.852,272.487c-2.944,1.715-5.33,0.138-5.33-3.523v0
							c0-3.66,2.386-8.018,5.33-9.733l0,0c2.944-1.715,5.33-0.138,5.33,3.523l0,0C98.183,266.415,95.796,270.773,92.852,272.487z" />
							<path style="fill:#8FB3D0;" d="M107.671,263.855L107.671,263.855c-2.944,1.715-5.33,0.138-5.33-3.523l0,0
							c0-3.66,2.387-8.018,5.33-9.733l0,0c2.944-1.715,5.33-0.138,5.33,3.523l0,0C113.001,257.783,110.615,262.141,107.671,263.855z
							" />
							<path style="fill:#8FB3D0;"
								d="M122.49,255.224L122.49,255.224c-2.944,1.715-5.33,0.137-5.33-3.523l0,0
							c0-3.66,2.386-8.018,5.33-9.733l0,0c2.944-1.715,5.33-0.138,5.33,3.523l0,0C127.82,249.151,125.434,253.509,122.49,255.224z" />
							<path style="fill:#8FB3D0;"
								d="M92.852,292.041L92.852,292.041c-2.944,1.715-5.33,0.138-5.33-3.523l0,0
							c0-3.66,2.386-8.018,5.33-9.733l0,0c2.944-1.715,5.33-0.137,5.33,3.523l0,0C98.183,285.969,95.796,290.326,92.852,292.041z" />
							<path style="fill:#8FB3D0;"
								d="M107.671,283.409L107.671,283.409c-2.944,1.715-5.33,0.138-5.33-3.523l0,0
							c0-3.66,2.387-8.018,5.33-9.733l0,0c2.944-1.715,5.33-0.137,5.33,3.523v0C113.001,277.337,110.615,281.694,107.671,283.409z" />
							<path style="fill:#8FB3D0;"
								d="M122.49,274.777L122.49,274.777c-2.944,1.715-5.33,0.138-5.33-3.523l0,0
							c0-3.66,2.386-8.018,5.33-9.733l0,0c2.944-1.715,5.33-0.138,5.33,3.523l0,0C127.82,268.705,125.434,273.062,122.49,274.777z" />
							<path style="fill:#8FB3D0;"
								d="M92.852,311.595L92.852,311.595c-2.944,1.715-5.33,0.137-5.33-3.523l0,0
							c0-3.66,2.386-8.018,5.33-9.733l0,0c2.944-1.715,5.33-0.138,5.33,3.523l0,0C98.183,305.522,95.796,309.88,92.852,311.595z" />
							<path style="fill:#8FB3D0;"
								d="M107.671,302.963L107.671,302.963c-2.944,1.715-5.33,0.137-5.33-3.523l0,0
							c0-3.66,2.387-8.018,5.33-9.733l0,0c2.944-1.715,5.33-0.138,5.33,3.523v0C113.001,296.89,110.615,301.248,107.671,302.963z" />
							<path style="fill:#8FB3D0;"
								d="M122.49,294.331L122.49,294.331c-2.944,1.715-5.33,0.138-5.33-3.523l0,0
							c0-3.66,2.386-8.018,5.33-9.733l0,0c2.944-1.715,5.33-0.138,5.33,3.523l0,0C127.82,288.259,125.434,292.616,122.49,294.331z" />
							<path style="fill:#8FB3D0;"
								d="M92.852,331.148L92.852,331.148c-2.944,1.715-5.33,0.138-5.33-3.523l0,0
							c0-3.66,2.386-8.018,5.33-9.733l0,0c2.944-1.715,5.33-0.138,5.33,3.523l0,0C98.183,325.076,95.796,329.433,92.852,331.148z" />
							<path style="fill:#8FB3D0;" d="M107.671,322.516L107.671,322.516c-2.944,1.715-5.33,0.138-5.33-3.523l0,0
							c0-3.66,2.387-8.018,5.33-9.733l0,0c2.944-1.715,5.33-0.138,5.33,3.523l0,0C113.001,316.444,110.615,320.802,107.671,322.516z
							" />
							<path style="fill:#8FB3D0;"
								d="M122.49,313.884L122.49,313.884c-2.944,1.715-5.33,0.138-5.33-3.523l0,0
							c0-3.66,2.386-8.018,5.33-9.733l0,0c2.944-1.715,5.33-0.138,5.33,3.523l0,0C127.82,307.812,125.434,312.17,122.49,313.884z" />
							<path style="fill:#4760B3;" d="M137.309,227.038L137.309,227.038c-2.944,1.715-5.33,0.138-5.33-3.523l0,0
							c0-3.66,2.387-8.018,5.33-9.733l0,0c2.944-1.715,5.33-0.138,5.33,3.523l0,0C142.639,220.966,140.252,225.323,137.309,227.038z
							" />
							<path style="fill:#E7202A;" d="M152.127,218.406L152.127,218.406c-2.944,1.715-5.33,0.138-5.33-3.523l0,0
							c0-3.66,2.386-8.018,5.33-9.733l0,0c2.944-1.715,5.33-0.138,5.33,3.523l0,0C157.458,212.334,155.071,216.691,152.127,218.406z
							" />
							<path style="fill:#4760B3;" d="M137.309,246.592L137.309,246.592c-2.944,1.715-5.33,0.138-5.33-3.523l0,0
							c0-3.66,2.387-8.018,5.33-9.733l0,0c2.944-1.715,5.33-0.138,5.33,3.523l0,0C142.639,240.519,140.252,244.877,137.309,246.592z
							" />
							<path style="fill:#4760B3;"
								d="M152.127,237.96L152.127,237.96c-2.944,1.715-5.33,0.138-5.33-3.523l0,0
							c0-3.66,2.386-8.018,5.33-9.733l0,0c2.944-1.715,5.33-0.138,5.33,3.523l0,0C157.458,231.887,155.071,236.245,152.127,237.96z" />
							<path style="fill:#4760B3;"
								d="M137.309,266.145L137.309,266.145c-2.944,1.715-5.33,0.138-5.33-3.523l0,0
							c0-3.66,2.387-8.018,5.33-9.733l0,0c2.944-1.715,5.33-0.138,5.33,3.523l0,0C142.639,260.073,140.252,264.43,137.309,266.145z" />
							<path style="fill:#4760B3;" d="M152.127,257.513L152.127,257.513c-2.944,1.715-5.33,0.138-5.33-3.523l0,0
							c0-3.66,2.386-8.018,5.33-9.733l0,0c2.944-1.715,5.33-0.137,5.33,3.523l0,0C157.458,251.441,155.071,255.798,152.127,257.513z
							" />
							<path style="fill:#4760B3;" d="M152.127,277.067L152.127,277.067c-2.944,1.715-5.33,0.138-5.33-3.523l0,0
							c0-3.66,2.386-8.018,5.33-9.733l0,0c2.944-1.715,5.33-0.138,5.33,3.523l0,0C157.458,270.995,155.071,275.352,152.127,277.067z
							" />
							<path style="fill:#4760B3;" d="M152.127,296.621L152.127,296.621c-2.944,1.715-5.33,0.137-5.33-3.523v0
							c0-3.66,2.386-8.018,5.33-9.733l0,0c2.944-1.715,5.33-0.137,5.33,3.523l0,0C157.458,290.548,155.071,294.906,152.127,296.621z
							" />
						</g>
						<path style="fill:#4760B3;" d="M137.309,305.252L137.309,305.252c-2.944,1.715-5.33,0.138-5.33-3.523v-19.554
						c0-3.66,2.387-8.018,5.33-9.733l0,0c2.944-1.715,5.33-0.138,5.33,3.523v19.554C142.639,299.18,140.252,303.538,137.309,305.252
						z" />

						<text transform="matrix(0.8042 -0.4685 0 1 141.7918 195.1278)"
							style="fill:#4E9DC6; font-family:'Viga-Regular'; font-size:21.0419px;">0.</text>

						<text transform="matrix(0.8042 -0.4685 0 1 88.6781 250.1826)"
							style="fill:#FFFFFF; font-family:'JosefinSans-Bold'; font-size:4.5772px;">MRC</text>

						<text transform="matrix(0.8042 -0.4685 0 1 91.5042 269.1878)"
							style="fill:#FFFFFF; font-family:'JosefinSans-Bold'; font-size:7.6879px;">7</text>

						<text transform="matrix(0.8042 -0.4685 0 1 91.0831 288.4828)"
							style="fill:#FFFFFF; font-family:'JosefinSans-Bold'; font-size:7.6879px;">4</text>

						<text transform="matrix(0.8042 -0.4685 0 1 106.019 280.4419)"
							style="fill:#FFFFFF; font-family:'JosefinSans-Bold'; font-size:7.6879px;">5</text>

						<text transform="matrix(0.8042 -0.4685 0 1 120.4233 271.3922)"
							style="fill:#FFFFFF; font-family:'JosefinSans-Bold'; font-size:7.6879px;">6</text>

						<text transform="matrix(0.8042 -0.4685 0 1 91.5042 308.5032)"
							style="fill:#FFFFFF; font-family:'JosefinSans-Bold'; font-size:7.6879px;">1</text>

						<text transform="matrix(0.8042 -0.4685 0 1 90.5523 328.4248)"
							style="fill:#FFFFFF; font-family:'JosefinSans-Bold'; font-size:7.6879px;">0</text>

						<text transform="matrix(0.8042 -0.4685 0 1 103.5069 320.8788)"
							style="fill:#FFFFFF; font-family:'JosefinSans-Bold'; font-size:7.6879px;">00</text>

						<text transform="matrix(0.8042 -0.4685 0 1 121.922 308.4822)"
							style="fill:#FFFFFF; font-family:'JosefinSans-Bold'; font-size:7.6879px;">,</text>

						<text transform="matrix(0.8042 -0.4685 0 1 106.019 300.0483)"
							style="fill:#FFFFFF; font-family:'JosefinSans-Bold'; font-size:7.6879px;">2</text>

						<text transform="matrix(0.8042 -0.4685 0 1 121.1085 291.2588)"
							style="fill:#FFFFFF; font-family:'JosefinSans-Bold'; font-size:7.6879px;">3</text>

						<text transform="matrix(0.8042 -0.4685 0 1 150.4513 271.8444)"
							style="fill:#FFFFFF; font-family:'JosefinSans-Bold'; font-size:7.6879px;">_</text>

						<text transform="matrix(0.8042 -0.4685 0 1 106.019 260.7329)"
							style="fill:#FFFFFF; font-family:'JosefinSans-Bold'; font-size:7.6879px;">8</text>

						<text transform="matrix(0.8042 -0.4685 0 1 120.744 252.1557)"
							style="fill:#FFFFFF; font-family:'JosefinSans-Bold'; font-size:7.6879px;">9</text>

						<text transform="matrix(0.8042 -0.4685 0 1 105.5313 240.6918)"
							style="fill:#FFFFFF; font-family:'JosefinSans-Bold'; font-size:4.5772px;">M+</text>

						<text transform="matrix(0.8042 -0.4685 0 1 120.4233 232.0172)"
							style="fill:#FFFFFF; font-family:'JosefinSans-Bold'; font-size:4.5772px;">M-</text>

						<text transform="matrix(0.8042 -0.4685 0 1 148.9569 215.2335)"
							style="fill:#FFFFFF; font-family:'JosefinSans-Bold'; font-size:4.5772px;">ON</text>

						<text transform="matrix(0.8042 -0.4685 0 1 135.215 223.4012)"
							style="fill:#FFFFFF; font-family:'JosefinSans-Bold'; font-size:4.5772px;">+/-</text>

						<text transform="matrix(0.8042 -0.4685 0 1 135.215 243.7263)"
							style="fill:#FFFFFF; font-family:'JosefinSans-Bold'; font-size:7.6879px;">%</text>

						<text transform="matrix(0.8042 -0.4685 0 1 135.215 263.4353)"
							style="fill:#FFFFFF; font-family:'JosefinSans-Bold'; font-size:7.6879px;">X</text>

						<text transform="matrix(0.8042 -0.4685 0 1 135.847 291.6072)"
							style="fill:#FFFFFF; font-family:'JosefinSans-Bold'; font-size:7.6879px;">+</text>

						<text transform="matrix(0.8042 -0.4685 0 1 150.4513 293.2506)"
							style="fill:#FFFFFF; font-family:'JosefinSans-Bold'; font-size:7.6879px;">=</text>
						<g>
							<polygon style="fill:#FFFFFF;"
								points="153.795,250.258 150.459,252.201 150.459,251.513 153.795,249.57 						" />
							<path style="fill:#FFFFFF;" d="M152.587,249.159c0,0.315-0.206,0.691-0.46,0.839c-0.254,0.148-0.46,0.012-0.46-0.304
							c0-0.316,0.206-0.691,0.46-0.839C152.381,248.707,152.587,248.843,152.587,249.159z" />
							<path style="fill:#FFFFFF;" d="M152.587,252.077c0,0.316-0.206,0.691-0.46,0.839s-0.46,0.012-0.46-0.304
							c0-0.316,0.206-0.691,0.46-0.839S152.587,251.761,152.587,252.077z" />
						</g>
						<g>
							<polygon style="fill:#FFFFFF;"
								points="152.982,231.116 150.252,232.706 150.252,232.143 152.982,230.553 						" />
							<path style="fill:#FFFFFF;" d="M152.742,231.764l1.132-1.369c0.053-0.064,0.053-0.158,0-0.16l-1.132-0.05
							c-0.048-0.002-0.105,0.074-0.105,0.141v1.419C152.638,231.811,152.694,231.822,152.742,231.764z" />
						</g>
					</g>
					<path style="opacity:0.19;fill:#FFFFFF;" d="M90.817,228.14l5.691-3.315l9.877-27.214l-5.691,3.315L90.817,228.14z
					 M117.769,190.98l-9.877,27.214l11.383-6.631l9.877-27.214L117.769,190.98z M135.435,180.69l-9.877,27.214l22.766-13.261
					l9.877-27.214L135.435,180.69z" />
				</g>
				<g>
					<g>
						<g>
							<path style="fill:#890073;" d="M421.245,200.458c0,0,15.874,21.696,0,38.628l-138.246,79.261l2.25-22.641l-1.176-15.019
							L421.245,200.458z" />
							<polygon style="fill:#320035;"
								points="181.533,252.538 194.101,248.218 285.595,298.997 280.563,312.72 						" />
							<polygon style="fill:#ECFFFF;" points="282.999,305.859 186.782,250.962 186.782,221.588 245.338,234.036 271.414,243.642 
							282.999,252.334 275.531,269.968 284.223,290.762 						" />
							<path style="fill:#550053;" d="M181.533,252.538l98.798,56.942c4.53-11.332,0.357-21.442-0.979-24.182l-97.82-56.379v-7.33
							l102.541,59.1l0.426,0.746c0.384,0.672,9.301,16.665,0.045,34.02l-1.545,2.894l-101.467-58.479V252.538z" />
							<polygon style="fill:#FFB700;"
								points="203.918,275.555 260.79,308.73 279.531,298.608 221.772,265.717 						" />
							<polygon style="fill:#0034B9;"
								points="189.635,259.709 237.162,287.433 252.823,278.974 204.555,251.488 						" />
							<polygon style="fill:#D70F95;"
								points="181.533,221.588 322.291,140.661 421.245,200.458 284.073,280.688 						" />
						</g>
					</g>
					<g>
						<g>
							<path style="fill:#A6B6F7;" d="M421.245,155.653c0,0,15.874,21.697,0,38.629l-138.246,79.261l2.25-22.641l-1.176-15.019
							L421.245,155.653z" />
							<path style="fill:#DCEBFF;" d="M396.856,177.57c0,0,9.972,13.63,0,24.266l-86.844,49.79c0,0,2.583-4.072,2.629-10.739
							c0.049-7.182-1.954-12.918-1.954-12.918L396.856,177.57z" />
							<polygon style="fill:#4F669F;"
								points="181.533,207.734 194.101,203.413 285.595,254.192 280.563,267.916 						" />
							<polygon style="fill:#ECFFFF;" points="282.999,261.055 186.782,206.158 186.782,176.784 245.338,189.232 271.414,198.838 
							282.999,207.53 275.531,225.164 284.223,245.957 						" />
							<path style="fill:#7D96DB;" d="M181.533,207.734l98.798,56.941c4.53-11.331,0.357-21.441-0.979-24.182l-97.82-56.378v-7.331
							l102.541,59.1l0.426,0.746c0.384,0.672,9.301,16.664,0.045,34.02l-1.545,2.894l-101.467-58.479V207.734z" />
							<polygon style="fill:#DCEBFF;"
								points="181.533,176.784 322.291,95.857 421.245,155.653 284.073,235.884 						" />
							<path style="fill:#BBD4FF;" d="M201.134,174.513c0.908,0.521,0.939,1.36,0.07,1.874c-0.87,0.514-2.311,0.508-3.219-0.013
							c-0.908-0.521-0.939-1.36-0.07-1.874C198.785,173.986,200.226,173.992,201.134,174.513z" />
							<polygon style="fill:#009EFF;"
								points="203.463,174.787 318.466,108.668 399.315,157.522 287.242,223.074 						" />
							<polygon style="opacity:0.07;fill:#525859;" points="317.187,133.455 335.391,122.872 356.266,134.438 370.136,126.376 
							349.261,114.81 351.5,113.508 336.269,104.304 333.356,105.997 318.739,97.899 304.79,105.919 319.486,114.061 
							301.282,124.643 						" />
						</g>
					</g>
				</g>
				<polygon style="fill:#D70F95;" points="161.82,345.833 150.266,352.55 137.017,345.209 128.214,350.326 141.463,357.667 
				129.909,364.384 140.004,369.977 151.558,363.26 164.807,370.6 173.61,365.483 160.361,358.142 171.914,351.426 			" />
				<polygon style="fill:#0034B9;"
					points="175.938,325.741 170.376,328.975 163.998,325.441 159.76,327.904 166.138,331.438 
				160.576,334.671 165.436,337.364 170.997,334.13 177.375,337.664 181.613,335.201 175.235,331.667 180.797,328.434 			" />
				<g>
					<polygon style="fill:#FFB700;"
						points="317.957,175.489 307.996,181.372 292.5,149.188 302.461,143.305 				" />

					<ellipse transform="matrix(0.0252 -0.9997 0.9997 0.0252 114.5505 442.4696)" style="fill:#FFB700;"
						cx="284.166" cy="162.495" rx="5.686" ry="9.78" />
					<path style="fill:#FFB700;" d="M333.279,158.643c3.9,2.238,4.034,5.841,0.298,8.047c-3.735,2.206-9.925,2.18-13.825-0.057
					c-3.9-2.238-4.034-5.84-0.299-8.047C323.189,156.379,329.378,156.405,333.279,158.643z" />
				</g>
				<polygon style="fill:#FF7D00;" points="367.465,94.108 333.356,104.581 298.611,92.376 298.611,101.078 319.486,112.644 
				301.282,114.525 301.282,123.227 317.187,132.038 335.391,121.456 356.266,133.022 370.136,124.959 370.136,116.257 
				349.26,113.393 367.465,102.81 			" />
				<polygon style="fill:#FFCD00;"
					points="351.56,85.297 333.356,95.879 312.48,84.313 298.611,92.376 319.486,103.942 
				301.282,114.525 317.187,123.337 335.391,112.754 356.266,124.32 370.136,116.257 349.26,104.691 367.465,94.108 			" />
				<polygon style="fill:#0034B9;"
					points="233.001,165.453 265.576,184.456 276.311,178.658 243.227,159.819 			" />
				<g>
					<path style="fill:#08094E;" d="M432.303,131.026l0.074,0.124c0.401,0.676,0.175,1.557-0.501,1.958l-8.849,5.244
					c-0.676,0.401-1.557,0.175-1.958-0.501l-0.073-0.124c-0.401-0.676-0.175-1.557,0.501-1.957l8.849-5.244
					C431.021,130.125,431.902,130.35,432.303,131.026z" />
					<path style="fill:#FFD46B;" d="M414.757,130.099l0.221-0.133l12.918,2.248c1.034,0.18,1.662,1.24,1.323,2.233l-4.211,11.415
					l-0.919,0.525L414.757,130.099z" />
					<path style="fill:#001486;" d="M410.12,135.786c2.496,3.957,4.97,8.098,8.435,11.298c0.882,0.815,1.846,1.453,2.855,1.932
					l-106.52,63.115l1.008-9.611l-2.432-3.637l-2.021-3.408l-6.734-0.52l104.292-61.803
					C409.241,134.079,409.605,134.971,410.12,135.786z" />
					<path style="fill:#001486;" d="M403.944,159.37l-9.434-17.631l19.361-11.473c0,0,0.003,0.001,0.004,0.001
					c0.018-0.011,0.038-0.024,0.058-0.036c2.197-1.302,6.257,1.486,9.069,6.231c2.81,4.746,3.308,9.648,1.112,10.947
					c-0.022,0.012-0.042,0.025-0.061,0.035l0.003,0.012L403.944,159.37z" />
					<path style="fill:#FF9A00;" d="M321.589,208.169l-9.434-17.628l5.314-3.147l0.004,0.001c0.02-0.011,0.039-0.024,0.057-0.037
					c2.196-1.299,6.111,1.576,8.92,6.32c2.811,4.743,3.455,9.557,1.26,10.859c-0.02,0.012-0.041,0.022-0.059,0.034l0.002,0.01
					L321.589,208.169z" />
					<path style="fill:#CAE1FF;" d="M321.049,208.489l-9.433-17.631l5.312-3.144c0,0,0.003,0.001,0.004,0.001
					c0.018-0.011,0.038-0.024,0.058-0.036c2.197-1.302,6.257,1.486,9.069,6.231c2.81,4.746,3.308,9.648,1.112,10.947
					c-0.022,0.013-0.041,0.025-0.061,0.035l0.003,0.012L321.049,208.489z" />
					<g>
						<path style="fill:#A9062A;" d="M314.178,212.563l0.32-1.538c-0.172-0.053-0.347-0.121-0.523-0.2l-3.548-5.064l-2.432-3.637
						l-2.021-3.408l-0.587-1.741c0.003-0.298,0.022-0.582,0.056-0.852c-0.456-0.726-1.636-0.634-1.636-0.634l8.358-4.956
						c0,0,0.003,0.001,0.005,0.001c0.018-0.011,0.039-0.025,0.056-0.036c2.195-1.302,6.256,1.489,9.066,6.231
						c2.813,4.746,3.311,9.646,1.115,10.945c-0.021,0.015-0.04,0.025-0.06,0.037l0.001,0.01L314.178,212.563z" />
						<path style="fill:#E7202A;" d="M303.995,195.374c2.196-1.3,6.258,1.491,9.068,6.234c2.81,4.745,3.307,9.645,1.113,10.949
						c-2.196,1.3-6.253-1.491-9.065-6.238C302.299,201.578,301.799,196.676,303.995,195.374z" />
						<path style="fill:#FF3B2A;" d="M304.825,200.447c1.173-0.694,3.342,0.796,4.842,3.329c1.501,2.534,1.766,5.15,0.594,5.846
						c-1.173,0.694-3.339-0.796-4.841-3.331C303.92,203.76,303.653,201.142,304.825,200.447z" />
					</g>
				</g>
			</g>
			<g>
				<circle style="opacity:0.2;fill:#FFCD00;" cx="199.56" cy="111.364" r="49.593" />

				<ellipse transform="matrix(0.2298 -0.9732 0.9732 0.2298 45.3256 279.9988)"
					style="opacity:0.2;fill:#FFCD00;" cx="199.56" cy="111.364" rx="42.224" ry="42.224" />
				<g>
					<path style="fill:#000F4E;" d="M199.791,170.586h-0.463c-2.532,0-4.585-2.053-4.585-4.585v-7.273
					c0-2.532,2.053-4.585,4.585-4.585h0.463c2.532,0,4.585,2.053,4.585,4.585v7.273
					C204.376,168.533,202.323,170.586,199.791,170.586z" />

					<ellipse transform="matrix(0.9732 -0.2298 0.2298 0.9732 -30.6672 50.0419)" style="fill:#3E85B9;"
						cx="199.56" cy="156.714" rx="10.348" ry="10.348" />
					<path style="fill:#FFB900;" d="M200.27,162.095h-1.421c-7.773,0-14.075-6.301-14.075-14.075v-8.897
					c0-3.645,2.954-6.599,6.599-6.599h16.372c3.644,0,6.599,2.954,6.599,6.599v8.897
					C214.345,155.794,208.043,162.095,200.27,162.095z" />
					<path style="fill:#FFB900;" d="M185.64,152.304c0,0-2.289-5.938-8.15-9.998c5.391-1.124,11.721,2.78,11.721,2.78l-1.31,4.281
					L185.64,152.304z" />
					<path style="fill:#FFB900;" d="M213.479,152.304c0,0,2.289-5.938,8.15-9.998c-5.391-1.124-11.721,2.78-11.721,2.78l1.31,4.281
					L213.479,152.304z" />
					<circle style="fill:#FFCD00;" cx="199.56" cy="111.364" r="38.004" />

					<ellipse transform="matrix(0.2298 -0.9732 0.9732 0.2298 48.2929 259.1977)" style="fill:#FFEA00;"
						cx="187.902" cy="99.088" rx="16.787" ry="16.787" />
					<circle style="fill:#FFEA00;" cx="219.695" cy="132.525" r="5.35" />
				</g>
			</g>
			<path style="fill:#002CB8;" d="M359.492,173.359l-0.237-0.4c-1.293-2.182-0.566-5.025,1.616-6.318l18.873-11.184
			c2.182-1.293,5.025-0.566,6.318,1.616l0.237,0.401c1.293,2.182,0.566,5.025-1.616,6.318l-18.873,11.184
			C363.628,176.268,360.785,175.541,359.492,173.359z" />
		</g>
	</g>
</svg>