<?xml version="1.0" encoding="utf-8"?>
<!-- Generator: Adobe Illustrator 27.5.0, SVG Export Plug-In . SVG Version: 6.00 Build 0)  -->
<svg version="1.1" xmlns="http://www.w3.org/2000/svg" xmlns:xlink="http://www.w3.org/1999/xlink" x="0px" y="0px"
	viewBox="0 0 800 800" style="enable-background:new 0 0 800 800;" xml:space="preserve">
	<g id="Background">
		<g>
			<rect style="fill:#FFC000;" width="400" height="400" />
			<rect x="400" style="fill:#389B88;" width="400" height="400" />
			<rect x="0" y="400" style="fill:#FD5048;" width="400" height="400" />
			<rect x="400" y="400" style="fill:#004E67;" width="400" height="400" />
		</g>
	</g>
	<g id="Objects">
		<g>
			<g>
				<g>
					<path style="fill:none;stroke:#F7F4E2;stroke-width:3;stroke-miterlimit:10;" d="M276.43,164.105c0,12.15-12.215,22-27.283,22
						h-86.812c-15.068,0-27.283-9.85-27.283-22v-52.88c0-12.15,12.215-22,27.283-22h86.812c15.068,0,27.283,9.85,27.283,22V164.105z
						" />
					<g>
						<g>
							<path style="fill:#F7F4E2;" d="M224.612,74.973c0,9.457-7.666,17.124-17.122,17.124c-9.458,0-17.123-7.667-17.123-17.124
								c0-9.457,7.665-17.126,17.123-17.126C216.946,57.847,224.612,65.516,224.612,74.973z" />
							<path style="fill:#F7F4E2;"
								d="M191.662,81.509c0,0,8.159,13.143,7.904,20.812h7.924V78.294" />
							<path style="fill:#F7F4E2;"
								d="M223.315,81.509c0,0-8.158,13.143-7.901,20.812h-7.924V78.294" />
							<path style="opacity:0.6;fill:#F7F4E2;"
								d="M225.326,73.24c0,9.858-7.99,17.849-17.846,17.849
								c-9.859,0-17.847-7.992-17.847-17.849c0-9.856,7.988-17.849,17.847-17.849C217.336,55.392,225.326,63.384,225.326,73.24z" />
							<path style="opacity:0.6;fill:#F7F4E2;"
								d="M190.983,80.054c0,0,8.505,13.698,8.237,21.691h8.26V76.704" />
							<path style="opacity:0.6;fill:#F7F4E2;"
								d="M223.975,80.054c0,0-8.503,13.698-8.235,21.691h-8.259V76.704" />
							<path style="fill:none;stroke:#484649;stroke-width:2;stroke-miterlimit:10;" d="M202.953,102.321c0,0,0.896-15.092,0-19.745
								c-0.082-0.425-1.579-1.333-1.728,0c-0.225,2.008,8.629,1.046,9.774,0.969c2.542-0.17,1.542,0.247,2.019-0.011
								c0.961-0.519-0.274-2.013-0.893-1.076c-2.268,3.433-0.646,19.862-0.646,19.862" />
							<rect x="199.565" y="101.745" style="fill:#C3BA91;" width="15.839" height="14.185" />
							<path style="fill:#B5AB81;" d="M216.397,106.346c0,0.422-0.342,0.766-0.766,0.766h-16.293c-0.425,0-0.765-0.344-0.765-0.766
								l0,0c0-0.425,0.34-0.768,0.765-0.768h16.293C216.056,105.579,216.397,105.921,216.397,106.346L216.397,106.346z" />
							<path style="fill:#B5AB81;" d="M216.397,110.18c0,0.423-0.342,0.766-0.766,0.766h-16.293c-0.425,0-0.765-0.343-0.765-0.766
								l0,0c0-0.423,0.34-0.768,0.765-0.768h16.293C216.056,109.413,216.397,109.757,216.397,110.18L216.397,110.18z" />
							<g>
								<path style="fill:#3F3F3E;" d="M176.111,50.74c0,0,0.848,0.615,2.09,1.569c1.259,0.935,2.877,2.249,4.516,3.541
									c0.811,0.654,1.684,1.242,2.415,1.888c0.716,0.662,1.317,1.353,1.801,1.98c0.98,1.24,1.443,2.274,1.443,2.274l-0.135,0.147
									c0,0-1.07-0.373-2.39-1.242c-0.666-0.428-1.406-0.968-2.127-1.624c-0.706-0.673-1.367-1.491-2.088-2.244
									c-1.428-1.521-2.876-3.021-3.916-4.195c-1.057-1.156-1.743-1.947-1.743-1.947L176.111,50.74z" />
							</g>
							<g>
								<path style="fill:#3F3F3E;" d="M238.105,50.887c0,0-0.686,0.791-1.743,1.947c-1.041,1.174-2.489,2.673-3.917,4.195
									c-0.722,0.752-1.383,1.571-2.089,2.244c-0.721,0.657-1.462,1.196-2.128,1.624c-1.32,0.87-2.39,1.242-2.39,1.242
									l-0.135-0.147c0,0,0.463-1.034,1.443-2.274c0.484-0.627,1.085-1.318,1.801-1.98c0.731-0.646,1.604-1.233,2.415-1.888
									c1.639-1.292,3.257-2.605,4.517-3.541c1.243-0.954,2.09-1.569,2.09-1.569L238.105,50.887z" />
							</g>
							<g>
								<path style="fill:#3F3F3E;"
									d="M207.39,49.667c0,0-0.449-0.926-0.7-2.316c-0.138-0.695-0.241-1.505-0.242-2.374
									c0.013-0.869,0.183-1.795,0.242-2.721c0.248-3.706,0.7-7.412,0.7-7.412h0.2c0,0,0.452,3.706,0.7,7.412
									c0.059,0.926,0.229,1.853,0.242,2.721c-0.001,0.869-0.104,1.679-0.242,2.374c-0.251,1.39-0.7,2.316-0.7,2.316H207.39z" />
							</g>
						</g>
						<g>
							<g>
								<g>
									<g style="opacity:0.11;">
										<path d="M260.617,187.111c-10.442-37.786-53.567-33.353-53.567-33.353c-55.588,2.021-58.956,53.905-58.956,53.905v7.495
											c-0.459-0.067-0.925-0.113-1.402-0.113c-5.324,0-9.639,4.315-9.639,9.639v14.28c0,5.324,4.315,9.639,9.639,9.639
											c0.478,0,0.943-0.046,1.402-0.113v80.121h76.813l-1.347-28.636c0,0,8.085-0.675,16.17-0.675
											c8.086,0,9.433-5.727,9.433-5.727v-22.909l17.195-0.097C269.39,231.148,266.182,207.25,260.617,187.111z" />
									</g>
									<g>
										<path style="fill:#004E67;" d="M258.617,185.111c-10.442-37.786-53.567-33.353-53.567-33.353
											c-55.588,2.021-58.956,53.905-58.956,53.905v7.495c-0.459-0.067-0.925-0.113-1.402-0.113
											c-5.324,0-9.639,4.315-9.639,9.639v14.28c0,5.324,4.315,9.639,9.639,9.639c0.478,0,0.943-0.046,1.402-0.113v80.121h76.813
											l-1.347-28.636c0,0,8.085-0.675,16.17-0.675c8.086,0,9.433-5.727,9.433-5.727v-22.909l17.195-0.097
											C267.39,229.148,264.182,205.25,258.617,185.111z" />
									</g>
								</g>
								<circle style="fill:#0F6C82;" cx="242.703" cy="220.67" r="6.711" />
							</g>
							<g>
								<path style="fill:#0F6C82;" d="M234.216,177.522c0,0,13.027,3.136,9.409,17.129c0,0-0.966,5.548-21.712,5.067
									c-20.749-0.483-41.978,0.782-43.909,0.029c-1.93-0.753-12.546-4.129-10.616-16.193c0,0-0.482-5.067,5.308-8.204
									c0,0,1.929-5.547,6.996-4.101c0,0,3.135-8.203,11.581-5.307c0,0,6.273-9.892,15.441-1.93c0,0,11.581-4.102,14.958,5.307
									C221.671,169.32,232.769,165.218,234.216,177.522z" />
								<path style="fill:none;stroke:#004E67;stroke-miterlimit:10;"
									d="M233.493,180.452c0,0,2.653,11.788-4.826,11.788" />
								<line style="fill:none;stroke:#004E67;stroke-miterlimit:10;" x1="221.671" y1="169.32"
									x2="221.671" y2="180.452" />
								<path style="fill:none;stroke:#004E67;stroke-miterlimit:10;" d="M227.461,178.97c0,0,1.931,7.758-5.79,7.377
									c-7.72-0.381-9.408-1.586-8.925-15.337" />
								<path style="fill:none;stroke:#004E67;stroke-miterlimit:10;"
									d="M221.671,186.347c0,0,3.135,6.134-5.79,5.893" />
								<path style="fill:none;stroke:#004E67;stroke-miterlimit:10;" d="M206.713,164.013c0,0,2.893,8.926-3.137,9.649
									c-6.031,0.723-6.031,0.723-6.031,0.723v17.862" />
								<line style="fill:none;stroke:#004E67;stroke-miterlimit:10;" x1="207.408" y1="181.866"
									x2="197.546" y2="181.866" />
								<path style="fill:none;stroke:#004E67;stroke-miterlimit:10;" d="M209.608,186.361c0,0,0.966,5.872-5.548,5.879
									c-6.514,0.007-21.74,1.697-23.428,0.007c-1.688-1.689-1.423-15.191-0.94-20.997" />
								<line style="fill:none;stroke:#004E67;stroke-miterlimit:10;" x1="191.272" y1="165.943"
									x2="191.272" y2="181.866" />
							</g>
						</g>
					</g>
				</g>
				<rect x="123.134" y="363.667" style="fill:none;" width="150.878" height="26.667" />
				<text transform="matrix(1 0 0 1 123.1343 376.9326)"
					style="fill:#F2F2F2; font-family:'Aller'; font-size:18px;">BRAINSTORMING</text>
			</g>
			<g>
				<rect x="535.493" y="363.668" style="fill:none;" width="150.878" height="19.333" />
				<text transform="matrix(1 0 0 1 535.4932 376.9336)"
					style="fill:#F2F2F2; font-family:'Aller'; font-size:18px;">LEARNING ONLINE</text>
				<g>
					<g>
						<g>
							<g>
								<path style="opacity:0.2;fill:#333333;" d="M704.482,142.536h-178.09c-3.432,0-6.488-0.823-6.488,2.61v110.635v13.612
									c0,3.429,3.057,6.578,6.488,6.578h66.225c-0.833,21.111-5.029,30.352-7.871,34.237h-3.513c-0.572,0-1.635,0.554-1.635,1.402
									v5.973c0,0.847,1.063,2.28,1.635,2.28h68.865c0.57,0,1.483-1.434,1.483-2.28v-5.973c0-0.849-0.913-1.402-1.483-1.402h-3.569
									c-2.752-3.828-6.707-12.97-7.539-34.237h65.492c3.429,0,6.794-3.149,6.794-6.578v-13.612V145.146
									C711.276,141.713,707.911,142.536,704.482,142.536z" />
								<path style="fill:#B3B3B3;" d="M644.757,311h-67.19c0,0,10.699-4.459,10.699-44.057c0-13.004,46.06-16.033,46.06-0.923
									C634.325,307.147,644.757,311,644.757,311z" />
								<path style="fill:#B3B3B3;" d="M648,316.868c0,0.847-1.834,2.132-2.405,2.132H576.73c-0.572,0-0.73-1.285-0.73-2.132v-5.974
									c0-0.847,0.158-0.895,0.73-0.895h68.864c0.571,0,2.405,0.048,2.405,0.895V316.868z" />
								<path style="fill:#CCCCCC;" d="M707,268.678c0,3.431-3.591,5.322-7.024,5.322H521.89c-3.432,0-6.89-1.892-6.89-5.322V255
									h192V268.678z" />
								<path style="fill:#4D4D4D;" d="M707,144.43c0-3.432-3.591-3.43-7.024-3.43H521.89c-3.432,0-6.89-0.002-6.89,3.43V255h192
									V144.43z" />
								<rect x="529" y="150" style="fill:#B4E4EF;" width="164" height="95" />
								<path style="fill:#333333;" d="M615.589,265.946c0,2.573-2.086,4.655-4.657,4.655c-2.572,0-4.656-2.082-4.656-4.655
									c0-2.571,2.084-4.657,4.656-4.657C613.503,261.289,615.589,263.375,615.589,265.946z" />
							</g>
						</g>
						<polygon style="fill:#A1D9E2;" points="693,150 529,245 693,245 						" />
					</g>
					<g>
						<g>
							<g>
								<path style="fill:#E6E6E6;" d="M735.273,111.936l4.512,4.673l-3.858,5.835l-5.982-2.291
									c-0.883,0.919-1.827,1.773-2.834,2.555l1.573,6.31l-6.258,3.124l-4.03-4.968c-1.215,0.355-2.468,0.714-3.745,0.889
									l-1.797,6.331l-6.981-0.425l-1.001-6.413c-1.27-0.31-2.498-0.755-3.684-1.241l-4.491,4.313l-5.833-3.869l2.201-5.753
									c-0.948-0.905-1.826-1.881-2.629-2.918l-6.064,1.509l-3.123-6.26l4.771-3.872c-0.366-1.248-1.015-2.557-1.192-3.871
									l-6.374-1.744l0.425-6.983l6.452-0.945c0.31-1.287,0.901-2.524,1.393-3.726l-4.244-4.488l3.907-5.831l5.772,2.201
									c0.904-0.948,1.892-1.825,2.927-2.627l-1.507-6.067l6.265-3.122l3.872,4.771c1.248-0.365,2.525-0.497,3.839-0.675
									l1.713-5.857l6.983,0.425l0.976,5.936c1.27,0.305,2.505,0.631,3.69,1.113l4.676-4.548l5.836,3.842l-2.29,5.973
									c0.918,0.881,1.773,1.825,2.554,2.828L738,84.496l3.124,6.258l-4.968,4.029c0.355,1.214,0.196,2.436,0.372,3.711
									l5.814,1.766l-0.425,6.982l-5.896,1.034C735.716,109.526,735.749,110.766,735.273,111.936z M711.807,92.096
									c-5.592-0.34-10.401,3.917-10.741,9.509c-0.34,5.592,3.917,10.401,9.509,10.741c5.592,0.34,10.4-3.917,10.741-9.509
									C721.655,97.245,717.398,92.436,711.807,92.096z" />
								<g>
									<path style="fill:#666666;" d="M712.242,84.938c-9.545-0.581-17.754,6.687-18.334,16.231
										c-0.581,9.545,6.686,17.752,16.23,18.333c9.545,0.581,17.753-6.685,18.334-16.23
										C729.053,93.729,721.786,85.519,712.242,84.938z M710.574,112.346c-5.592-0.34-9.849-5.149-9.509-10.741
										c0.34-5.592,5.149-9.85,10.741-9.509c5.592,0.34,9.849,5.149,9.509,10.741
										C720.975,108.429,716.166,112.687,710.574,112.346z" />
								</g>
							</g>
						</g>
						<g>
							<g>
								<path style="fill:#E6E6E6;" d="M759.129,153.146l3.047,3.156l-2.606,3.941l-4.04-1.547
									c-0.596,0.621-1.234,1.198-1.914,1.726l1.063,4.261l-4.227,2.109l-2.721-3.355c-0.82,0.24-1.666,0.482-2.529,0.6
									l-1.213,4.275l-4.715-0.287l-0.676-4.331c-0.857-0.209-1.688-0.51-2.487-0.838l-3.034,2.913l-3.938-2.612l1.485-3.885
									c-0.641-0.611-1.232-1.27-1.774-1.971l-4.097,1.02l-2.107-4.227l3.222-2.615c-0.248-0.843-0.687-1.727-0.806-2.614
									l-4.305-1.178l0.287-4.715l4.357-0.639c0.211-0.869,0.609-1.704,0.94-2.516l-2.865-3.031l2.638-3.938l3.898,1.487
									c0.61-0.64,1.276-1.232,1.976-1.774l-1.018-4.097l4.23-2.108l2.614,3.222c0.844-0.247,1.706-0.335,2.593-0.456l1.157-3.955
									l4.716,0.287l0.658,4.008c0.857,0.206,1.691,0.426,2.492,0.751l3.157-3.071l3.941,2.594l-1.546,4.033
									c0.619,0.596,1.196,1.232,1.725,1.91l4.261-1.063l2.109,4.226l-3.354,2.721c0.239,0.82,0.132,1.645,0.25,2.506l3.927,1.192
									l-0.287,4.715l-3.982,0.698C759.428,151.52,759.45,152.356,759.129,153.146z M743.282,139.749
									c-3.776-0.23-7.024,2.646-7.254,6.421c-0.229,3.776,2.646,7.023,6.421,7.253c3.776,0.23,7.023-2.645,7.254-6.422
									C749.933,143.226,747.058,139.979,743.282,139.749z" />
								<g>
									<path style="fill:#666666;" d="M743.576,134.915c-6.446-0.392-11.989,4.516-12.381,10.961
										c-0.393,6.446,4.515,11.988,10.961,12.38c6.444,0.392,11.987-4.514,12.38-10.96
										C754.928,140.851,750.021,135.308,743.576,134.915z M742.449,153.424c-3.775-0.23-6.65-3.477-6.421-7.253
										c0.229-3.776,3.478-6.651,7.254-6.421c3.775,0.23,6.65,3.477,6.421,7.253C749.473,150.779,746.226,153.653,742.449,153.424
										z" />
								</g>
							</g>
						</g>
					</g>
					<g>
						<g>

							<line style="fill:#D7CDAA;stroke:#FFD153;stroke-width:1.4817;stroke-miterlimit:10;"
								x1="490.001" y1="84.21" x2="490.001" y2="117.013" />
							<path style="fill:#FFD153;" d="M489.938,123.699c0,0-4.452-0.182-4.397,5.381c0.039,3.152-0.456,8.916,4.397,11.019
								c4.854,2.097,7.742,1.044,9.052,0c0,0-3.082,0.258-3.092-4.138c-0.004-1.441,0.459-6.8-0.252-8.853
								C494.112,122.706,490.739,123.501,489.938,123.699z" />
							<g>
								<g style="opacity:0.15;">
									<path d="M485.015,120.386c0-2.752,2.233-4.981,4.986-4.981c2.755,0,4.987,2.229,4.987,4.981
										c0,2.752-2.232,4.987-4.987,4.987C487.247,125.373,485.015,123.138,485.015,120.386z" />
								</g>
								<g>
									<path style="fill:#FFD153;" d="M485.015,119.892c0-2.752,2.233-4.981,4.986-4.981c2.755,0,4.987,2.23,4.987,4.981
										c0,2.752-2.232,4.988-4.987,4.988C487.247,124.879,485.015,122.644,485.015,119.892z" />
								</g>
							</g>
						</g>
						<path style="fill:#1A1A1A;" d="M621.878,141.091c0,0-30.253,5.703-54.251,5.703c-24.001,0-52.605-4.543-52.605-4.543
							l-2.404-55.019h110.015L621.878,141.091z" />
						<polygon style="fill:#333333;" points="473.333,79.825 562.325,112.758 659.727,79.825 						" />
					</g>
					<g>
						<g>
							<g style="opacity:0.11;">
								<rect x="562.333" y="110.516" width="103.333" height="136.484" />
							</g>
							<g>
								<rect x="560.333" y="108.516" style="fill:#FFFFFF;" width="103.333" height="136.484" />
							</g>
						</g>
						<g>
							<rect x="615.59" y="117.023" style="fill:#FD5048;" width="36.619" height="31.031" />
							<rect x="570.578" y="200.984" style="fill:#FFC000;" width="36.619" height="31.031" />

							<line style="fill:none;stroke:#4D4D4D;stroke-width:3;stroke-miterlimit:10;" x1="570.75"
								y1="119.25" x2="607.025" y2="119.25" />
							<line style="fill:none;stroke:#4D4D4D;stroke-miterlimit:10;" x1="570.75" y1="126.5"
								x2="607.025" y2="126.5" />
							<line style="fill:none;stroke:#4D4D4D;stroke-miterlimit:10;" x1="570.75" y1="134"
								x2="607.025" y2="134" />
							<line style="fill:none;stroke:#4D4D4D;stroke-miterlimit:10;" x1="570.75" y1="141.5"
								x2="607.025" y2="141.5" />
							<line style="fill:none;stroke:#4D4D4D;stroke-miterlimit:10;" x1="570.75" y1="149"
								x2="607.025" y2="149" />
							<line style="fill:none;stroke:#4D4D4D;stroke-miterlimit:10;" x1="570.75" y1="156.5"
								x2="652.209" y2="156.5" />
							<line style="fill:none;stroke:#4D4D4D;stroke-miterlimit:10;" x1="570.75" y1="164"
								x2="652.209" y2="164" />
							<line style="fill:none;stroke:#4D4D4D;stroke-miterlimit:10;" x1="570.75" y1="171.5"
								x2="652.209" y2="171.5" />
							<line style="fill:none;stroke:#4D4D4D;stroke-miterlimit:10;" x1="570.75" y1="179"
								x2="652.209" y2="179" />
							<line style="fill:none;stroke:#4D4D4D;stroke-miterlimit:10;" x1="570.75" y1="186.5"
								x2="652.209" y2="186.5" />
							<line style="fill:none;stroke:#4D4D4D;stroke-miterlimit:10;" x1="570.75" y1="194"
								x2="652.209" y2="194" />
							<line style="fill:none;stroke:#4D4D4D;stroke-miterlimit:10;" x1="615.589" y1="201.5"
								x2="652.209" y2="201.5" />
							<line style="fill:none;stroke:#4D4D4D;stroke-miterlimit:10;" x1="615.589" y1="209"
								x2="652.209" y2="209" />
							<line style="fill:none;stroke:#4D4D4D;stroke-miterlimit:10;" x1="615.589" y1="216.5"
								x2="652.209" y2="216.5" />
							<line style="fill:none;stroke:#4D4D4D;stroke-miterlimit:10;" x1="615.589" y1="224"
								x2="652.209" y2="224" />
							<line style="fill:none;stroke:#4D4D4D;stroke-miterlimit:10;" x1="615.589" y1="231.5"
								x2="652.209" y2="231.5" />
						</g>
					</g>
					<g>
						<g>

							<rect x="673.748" y="170.078"
								transform="matrix(0.7865 -0.6176 0.6176 0.7865 27.8625 458.5182)" style="fill:#ECF0F1;"
								width="6.631" height="37.77" />
						</g>
						<g>
							<path style="fill:#999999;" d="M672.232,136.12c9.833,12.525,7.652,30.651-4.872,40.484
								c-12.524,9.835-30.65,7.652-40.483-4.872c-9.835-12.525-7.653-30.648,4.871-40.482
								C644.272,121.415,662.396,123.595,672.232,136.12z" />
						</g>
						<g>
							<path style="fill:#999999;" d="M717.162,239.044l-0.96,0.753c-2.262,1.776-5.565,1.379-7.34-0.882l-23.458-29.874
								c-1.775-2.263-1.378-5.565,0.883-7.342l0.963-0.753c2.261-1.776,5.563-1.377,7.339,0.883l23.456,29.874
								C719.82,233.965,719.423,237.269,717.162,239.044z" />
						</g>
						<g>
							<defs>
								<path id="SVGID_1_" d="M666.565,140.081c7.67,9.77,5.969,23.907-3.8,31.576c-9.769,7.671-23.908,5.969-31.577-3.799
									c-7.671-9.769-5.971-23.906,3.799-31.577C644.757,128.61,658.894,130.311,666.565,140.081z" />
							</defs>
							<use xlink:href="#SVGID_1_" style="overflow:visible;fill:#F2F2F2;" />
							<clipPath id="SVGID_00000134931215420674696070000003088620052717764504_">
								<use xlink:href="#SVGID_1_" style="overflow:visible;" />
							</clipPath>

							<rect x="615.739" y="111.585"
								style="clip-path:url(#SVGID_00000134931215420674696070000003088620052717764504_);fill:#FD5048;"
								width="43.987" height="37.275" />

							<line
								style="clip-path:url(#SVGID_00000134931215420674696070000003088620052717764504_);fill:none;stroke:#4D4D4D;stroke-miterlimit:10;"
								x1="561.877" y1="159.005" x2="659.727" y2="159.005" />

							<line
								style="clip-path:url(#SVGID_00000134931215420674696070000003088620052717764504_);fill:none;stroke:#4D4D4D;stroke-miterlimit:10;"
								x1="561.877" y1="168.015" x2="659.727" y2="168.015" />

							<line
								style="clip-path:url(#SVGID_00000134931215420674696070000003088620052717764504_);fill:none;stroke:#4D4D4D;stroke-miterlimit:10;"
								x1="561.877" y1="177.024" x2="659.727" y2="177.024" />
						</g>
						<path style="opacity:0.2;fill:#F2F2F2;"
							d="M626.386,153.969c0-12.421,10.069-22.49,22.49-22.49
							c12.422,0,22.491,10.069,22.491,22.49c0,12.421-10.069,22.49-22.491,22.49C636.455,176.459,626.386,166.39,626.386,153.969z" />
					</g>
				</g>
			</g>
			<g>
				<rect x="501.467" y="763" style="fill:none;" width="212.507" height="26.667" />
				<text transform="matrix(1 0 0 1 501.4668 776.2656)"
					style="fill:#F2F2F2; font-family:'Aller'; font-size:18px;">TRADITIONAL EDUCATION</text>
				<g>
					<g>
						<g>
							<g style="opacity:0.11;">
								<path d="M718.237,705.799c0,3.266-2.608,5.911-5.824,5.911H502.727c-3.218,0-5.825-2.646-5.825-5.911V566.736
									c0-3.266,2.608-5.911,5.825-5.911h209.686c3.216,0,5.824,2.646,5.824,5.911V705.799z" />
							</g>
							<g>
								<path style="fill:#BC7A4A;" d="M716.237,703.799c0,3.266-2.608,5.911-5.824,5.911H500.727c-3.218,0-5.825-2.646-5.825-5.911
									V564.736c0-3.266,2.608-5.911,5.825-5.911h209.686c3.216,0,5.824,2.646,5.824,5.911V703.799z" />
							</g>
						</g>
						<path style="fill:#208E61;" d="M707.535,698.499c0,2.964-2.402,5.367-5.366,5.367H508.972c-2.965,0-5.367-2.403-5.367-5.367
							V572.255c0-2.964,2.402-5.366,5.367-5.366h193.197c2.964,0,5.366,2.402,5.366,5.366V698.499z" />
						<g>
							<g style="opacity:0.11;">
								<path d="M726.419,706.926c0,2.643-2.142,4.784-4.785,4.784H492.811c-2.643,0-4.785-2.142-4.785-4.784l0,0
									c0-2.643,2.142-4.784,4.785-4.784h228.822C724.277,702.142,726.419,704.283,726.419,706.926L726.419,706.926z" />
							</g>
							<g>
								<path style="fill:#AF6A3A;"
									d="M724.419,704.926c0,2.643-2.142,4.784-4.785,4.784H490.811c-2.643,0-4.785-2.142-4.785-4.784
									l0,0c0-2.643,2.142-4.784,4.785-4.784h228.822C722.277,700.142,724.419,702.283,724.419,704.926L724.419,704.926z" />
							</g>
						</g>
						<rect x="530.813" y="613.813" style="fill:none;" width="146" height="45.557" />
						<text transform="matrix(1 0 0 1 530.8135 648.1025)"
							style="fill:#F2F2F2; font-family:'Aller'; font-size:46.526px;">2+2=4</text>
					</g>
					<g>
						<path style="fill:#0F6C82;" d="M716.237,513.379c0,3.748-3.038,6.785-6.785,6.785H493.756c-3.747,0-6.785-3.037-6.785-6.785
							v-44.371c0-3.748,3.038-6.785,6.785-6.785h215.696c3.747,0,6.785,3.037,6.785,6.785V513.379z" />
						<g>
							<g>
								<g style="opacity:0.1;">
									<path
										d="M630.156,508.178h-18.604v-29.693L630.156,508.178z M615.861,504.749h8.102l-8.102-12.934V504.749z" />
								</g>
								<g>
									<g>
										<g>
											<path style="fill:#BEDA1A;" d="M628.801,506.146h-18.603v-29.693L628.801,506.146z M614.506,502.717h8.102l-8.102-12.935
												V502.717z" />
										</g>
									</g>
								</g>
							</g>
							<polygon style="fill:#92AD92;"
								points="610.198,506.146 609.316,506.146 609.316,475.058 610.198,476.452 							" />
						</g>
						<g>
							<g>
								<g>
									<g>
										<g style="opacity:0.1;">
											<path d="M570.39,508.805c0.005,0.846-0.908,1.336-1.776,1.341l-23.134,0.141c-0.87,0.006-1.79-0.474-1.795-1.32
												l-0.186-30.881l26.891-0.161V508.805z" />
										</g>
										<g>
											<path style="fill:#FD5048;" d="M568.357,506.095c0.005,0.846-0.908,1.336-1.776,1.341l-23.134,0.141
												c-0.87,0.006-1.79-0.474-1.795-1.32l-0.185-30.881l26.891-0.161V506.095z" />
										</g>
									</g>
								</g>
								<path style="fill:#F9F9F9;" d="M567.506,504.592c0.004,0.814-0.847,1.683-1.661,1.69l-21.626,0.129
									c-0.814,0.004-1.676-0.855-1.682-1.667l-0.17-28.283l24.967-0.151L567.506,504.592z" />
								<g>

									<line style="fill:none;stroke:#92A8B4;stroke-width:0.1266;stroke-miterlimit:10;"
										x1="542.568" y1="479.992" x2="567.339" y2="479.992" />

									<line style="fill:none;stroke:#92A8B4;stroke-width:0.1266;stroke-miterlimit:10;"
										x1="542.568" y1="482.674" x2="567.339" y2="482.674" />

									<line style="fill:none;stroke:#92A8B4;stroke-width:0.1266;stroke-miterlimit:10;"
										x1="542.568" y1="485.354" x2="567.339" y2="485.354" />

									<line style="fill:none;stroke:#92A8B4;stroke-width:0.1266;stroke-miterlimit:10;"
										x1="542.568" y1="488.034" x2="567.339" y2="488.034" />

									<line style="fill:none;stroke:#92A8B4;stroke-width:0.1266;stroke-miterlimit:10;"
										x1="542.568" y1="490.715" x2="567.339" y2="490.715" />

									<line style="fill:none;stroke:#92A8B4;stroke-width:0.1266;stroke-miterlimit:10;"
										x1="542.568" y1="493.395" x2="567.339" y2="493.395" />

									<line style="fill:none;stroke:#92A8B4;stroke-width:0.1266;stroke-miterlimit:10;"
										x1="542.568" y1="496.075" x2="567.339" y2="496.075" />

									<line style="fill:none;stroke:#92A8B4;stroke-width:0.1266;stroke-miterlimit:10;"
										x1="542.568" y1="498.757" x2="567.339" y2="498.757" />

									<line style="fill:none;stroke:#92A8B4;stroke-width:0.1266;stroke-miterlimit:10;"
										x1="542.568" y1="501.438" x2="567.339" y2="501.438" />

									<line style="fill:none;stroke:#92A8B4;stroke-width:0.1266;stroke-miterlimit:10;"
										x1="542.568" y1="504.116" x2="567.339" y2="504.116" />
								</g>
								<g>
									<g>
										<g style="opacity:0.1;">
											<path d="M597.397,508.805c0.004,0.846-0.909,1.336-1.778,1.341l-23.133,0.141c-0.869,0.006-1.788-0.474-1.794-1.32
												l-0.118-31.042h26.638L597.397,508.805z" />
										</g>
										<g>
											<path style="fill:#FD5048;" d="M595.365,506.095c0.004,0.846-0.909,1.336-1.778,1.341l-23.133,0.141
												c-0.869,0.006-1.788-0.474-1.794-1.32l-0.118-31.042h26.638L595.365,506.095z" />
										</g>
									</g>
								</g>
								<path style="fill:#F9F9F9;" d="M594.511,504.592c0.006,0.814-0.848,1.683-1.659,1.69l-21.625,0.129
									c-0.814,0.004-1.677-0.855-1.682-1.667l-0.17-28.283l24.965-0.151L594.511,504.592z" />
								<g>

									<line style="fill:none;stroke:#92A8B4;stroke-width:0.1271;stroke-miterlimit:10;"
										x1="569.542" y1="479.992" x2="594.511" y2="479.992" />

									<line style="fill:none;stroke:#92A8B4;stroke-width:0.1271;stroke-miterlimit:10;"
										x1="569.542" y1="482.672" x2="594.511" y2="482.672" />

									<line style="fill:none;stroke:#92A8B4;stroke-width:0.1271;stroke-miterlimit:10;"
										x1="569.542" y1="485.351" x2="594.511" y2="485.351" />

									<line style="fill:none;stroke:#92A8B4;stroke-width:0.1271;stroke-miterlimit:10;"
										x1="569.542" y1="488.031" x2="594.511" y2="488.031" />

									<line style="fill:none;stroke:#92A8B4;stroke-width:0.1271;stroke-miterlimit:10;"
										x1="569.542" y1="490.708" x2="594.511" y2="490.708" />

									<line style="fill:none;stroke:#92A8B4;stroke-width:0.1271;stroke-miterlimit:10;"
										x1="569.542" y1="493.388" x2="594.511" y2="493.388" />

									<line style="fill:none;stroke:#92A8B4;stroke-width:0.1271;stroke-miterlimit:10;"
										x1="569.542" y1="496.066" x2="594.511" y2="496.066" />

									<line style="fill:none;stroke:#92A8B4;stroke-width:0.1271;stroke-miterlimit:10;"
										x1="569.542" y1="498.744" x2="594.511" y2="498.744" />

									<line style="fill:none;stroke:#92A8B4;stroke-width:0.1271;stroke-miterlimit:10;"
										x1="569.542" y1="501.424" x2="594.511" y2="501.424" />

									<line style="fill:none;stroke:#92A8B4;stroke-width:0.1271;stroke-miterlimit:10;"
										x1="569.542" y1="504.103" x2="594.511" y2="504.103" />
								</g>
								<g>
									<path style="fill:#808080;" d="M566.671,482.477c-0.36,0.001-0.654-0.326-0.656-0.734l0,0
										c-0.003-0.407,0.287-0.738,0.648-0.741l3.5-0.021c0.36-0.002,0.653,0.325,0.656,0.733l0,0
										c0.002,0.407-0.287,0.738-0.647,0.741L566.671,482.477z" />
									<path style="fill:#808080;" d="M566.69,485.698c-0.359,0.003-0.655-0.327-0.657-0.733l0,0
										c-0.003-0.408,0.288-0.74,0.648-0.742l3.499-0.021c0.36-0.003,0.655,0.326,0.658,0.733l0,0
										c0.001,0.407-0.29,0.739-0.647,0.741L566.69,485.698z" />
									<path style="fill:#808080;" d="M566.71,488.919c-0.36,0.003-0.655-0.325-0.657-0.732l0,0
										c-0.002-0.407,0.287-0.738,0.648-0.741l3.499-0.021c0.361-0.003,0.656,0.326,0.657,0.733l0,0
										c0.004,0.407-0.288,0.739-0.648,0.742L566.71,488.919z" />
									<path style="fill:#808080;" d="M566.729,492.143c-0.358,0.001-0.654-0.326-0.656-0.734l0,0
										c-0.003-0.407,0.288-0.738,0.648-0.741l3.5-0.021c0.358-0.002,0.652,0.327,0.657,0.734l0,0
										c0.001,0.407-0.289,0.738-0.649,0.742L566.729,492.143z" />
									<path style="fill:#808080;" d="M566.747,495.364c-0.358,0.003-0.653-0.327-0.654-0.733l0,0
										c-0.002-0.407,0.285-0.738,0.646-0.742l3.5-0.021c0.359-0.003,0.654,0.327,0.656,0.733l0,0
										c0.004,0.406-0.288,0.738-0.646,0.742L566.747,495.364z" />
									<path style="fill:#808080;" d="M566.769,498.585c-0.36,0.004-0.654-0.324-0.657-0.732l0,0
										c-0.004-0.409,0.289-0.74,0.648-0.742l3.498-0.021c0.361-0.003,0.655,0.326,0.658,0.733l0,0
										c0.001,0.407-0.289,0.74-0.648,0.742L566.769,498.585z" />
									<path style="fill:#808080;" d="M566.788,501.809c-0.36,0.003-0.655-0.327-0.658-0.734l0,0
										c-0.003-0.406,0.288-0.738,0.648-0.741l3.501-0.021c0.359-0.004,0.653,0.326,0.654,0.733l0,0
										c0.003,0.406-0.286,0.739-0.646,0.741L566.788,501.809z" />
								</g>
							</g>
						</g>
						<g>
							<g>
								<g>
									<g style="opacity:0.11;">
										<path d="M531,504.525c0,1.712-1.773,3.475-3.528,3.475h-22.723c-1.756,0-2.749-1.763-2.749-3.475v-23.849
											c0-1.712,0.993-2.677,2.749-2.677h22.723c1.755,0,3.528,0.965,3.528,2.677V504.525z" />
									</g>
									<g>
										<path style="fill:#CCCCCC;" d="M529,502.525c0,1.712-1.773,3.475-3.528,3.475h-22.723c-1.756,0-2.749-1.763-2.749-3.475
											v-23.849c0-1.712,0.993-2.677,2.749-2.677h22.723c1.755,0,3.528,0.965,3.528,2.677V502.525z" />
									</g>
								</g>
								<rect x="502" y="478" style="fill:#389B88;" width="25" height="6" />
								<rect x="522" y="486" style="fill:#FD5048;" width="5" height="12" />
								<g>
									<g>
										<rect x="502" y="486" style="fill:#FFFFFF;" width="5" height="5" />
										<rect x="508" y="486" style="fill:#FFFFFF;" width="4" height="5" />
										<rect x="515" y="486" style="fill:#FFFFFF;" width="4" height="5" />
									</g>
									<g>
										<rect x="502" y="493" style="fill:#FFFFFF;" width="5" height="5" />
										<rect x="508" y="493" style="fill:#FFFFFF;" width="4" height="5" />
										<rect x="515" y="493" style="fill:#FFFFFF;" width="4" height="5" />
									</g>
									<g>
										<rect x="502" y="499" style="fill:#FFFFFF;" width="5" height="5" />
										<rect x="508" y="499" style="fill:#FFFFFF;" width="4" height="5" />
										<rect x="515" y="499" style="fill:#FFFFFF;" width="4" height="5" />
									</g>
								</g>
								<rect x="522" y="499" style="fill:#4D4D4D;" width="5" height="5" />
							</g>
						</g>
						<g id="chemistry">
							<g>
								<path style="fill:#FFFFFF;" d="M653.601,486.807v-10.23h0.108c0.091,0,0.164-0.073,0.164-0.163v-1.738
									c0-0.091-0.073-0.163-0.164-0.163h-0.271h-7.715h-0.273c-0.088,0-0.163,0.072-0.163,0.163v1.738
									c0,0.09,0.075,0.163,0.163,0.163h0.109v10.23c-4.038,1.602-6.9,5.537-6.9,10.147c0,6.033,4.89,10.921,10.921,10.921
									c6.033,0,10.922-4.888,10.922-10.921C660.501,492.344,657.641,488.408,653.601,486.807z" />
								<path style="fill:#8CC63F;" d="M649.579,487.336c-5.312,0-9.618,4.307-9.618,9.618c0,5.313,4.307,9.617,9.618,9.617
									c5.311,0,9.618-4.305,9.618-9.617C659.197,491.643,654.891,487.336,649.579,487.336z M647.072,502.134
									c-0.766,0-1.386-0.62-1.386-1.386c0-0.766,0.62-1.386,1.386-1.386c0.765,0,1.385,0.62,1.385,1.386
									C648.457,501.514,647.837,502.134,647.072,502.134z M647.95,496.18c0-0.451,0.364-0.815,0.814-0.815
									c0.451,0,0.815,0.364,0.815,0.815c0,0.449-0.363,0.814-0.815,0.814C648.314,496.994,647.95,496.629,647.95,496.18z
									 M650.414,505.46c-0.766,0-1.386-0.619-1.386-1.385s0.62-1.386,1.386-1.386c0.765,0,1.385,0.62,1.385,1.386
									S651.179,505.46,650.414,505.46z M652.614,496.568c-0.45,0-0.815-0.364-0.815-0.814s0.365-0.814,0.815-0.814
									c0.451,0,0.813,0.364,0.813,0.814S653.065,496.568,652.614,496.568z" />
								<path style="fill:#FFFFFF;" d="M652.298,487.661v-12.089c0-0.085-0.051-0.154-0.111-0.154h-5.213
									c-0.06,0-0.11,0.069-0.11,0.154v12.089c-3.031,0.893-5.442,3.235-6.421,6.232h18.276
									C657.738,490.897,655.33,488.555,652.298,487.661z" />
							</g>
						</g>
						<g>
							<g>
								<path style="fill:#D1ECFB;" d="M690.413,508.5v-2.086c0-0.317-0.374-0.575-0.837-0.575H671.26
									c-0.464,0-0.839,0.258-0.839,0.575v2.086H690.413z" />
								<rect x="670.068" y="508.015" style="fill:#8FC4D7;" width="20.698" height="1.128" />
								<g>
									<path style="fill:#CCCCCC;" d="M689.952,482.799c-0.642-0.301-1.302-0.518-1.974-0.659l-2.55,5.455
										c1.508-1.35,3.131-1.912,4.384-1.326c2.172,1.014,2.412,5.086,0.539,9.09c-1.872,4.008-5.15,6.432-7.321,5.416
										c-1.254-0.585-1.863-2.189-1.794-4.212l-2.551,5.452c0.537,0.425,1.129,0.793,1.771,1.094
										c5.015,2.344,11.205-0.303,13.827-5.912C696.906,491.59,694.968,485.142,689.952,482.799z" />
									<path style="fill:#CCCCCC;" d="M684.076,488.457c-0.113,0.239-0.303,0.386-0.427,0.328l-3.296-1.541
										c-0.123-0.058-0.135-0.299-0.021-0.538l5.546-11.86c0.11-0.242,0.304-0.389,0.427-0.331l3.296,1.542
										c0.122,0.058,0.132,0.299,0.021,0.538L684.076,488.457z" />
									<path style="fill:#B3B3B3;" d="M681.936,491.575c-0.077,0.167-0.212,0.272-0.298,0.23l-2.315-1.083
										c-0.086-0.038-0.093-0.207-0.013-0.376l3.891-8.323c0.078-0.167,0.213-0.272,0.3-0.232l2.314,1.083
										c0.085,0.04,0.092,0.209,0.013,0.378L681.936,491.575z" />
									<path style="fill:#FFFFFF;" d="M685.541,487.599c-0.086,0.181-0.301,0.258-0.481,0.175l-4.835-2.262
										c-0.182-0.084-0.262-0.301-0.175-0.48l4.187-8.954c0.083-0.182,0.299-0.26,0.479-0.175l4.836,2.261
										c0.18,0.085,0.26,0.3,0.175,0.48L685.541,487.599z" />
									<path style="fill:#FFFFFF;" d="M689.947,476.272c-0.068,0.146-0.232,0.218-0.365,0.155l-3.551-1.66
										c-0.133-0.063-0.187-0.232-0.116-0.38l2.579-5.519c0.068-0.146,0.233-0.216,0.366-0.154l3.552,1.661
										c0.132,0.061,0.185,0.231,0.115,0.379L689.947,476.272z" />
									<path style="fill:#CCCCCC;" d="M691.036,475.112c-0.085,0.181-0.284,0.266-0.447,0.189l-4.34-2.028
										c-0.163-0.076-0.227-0.285-0.141-0.465l0.16-0.344c0.083-0.181,0.283-0.267,0.445-0.19l4.343,2.03
										c0.162,0.076,0.225,0.282,0.141,0.464L691.036,475.112z" />
									<path style="fill:#B3B3B3;" d="M681.918,500.655c-0.086,0.18-0.3,0.258-0.481,0.175l-4.415-2.065
										c-0.181-0.086-0.26-0.301-0.175-0.48l0.103-0.219c0.083-0.183,0.3-0.259,0.481-0.174l4.414,2.063
										c0.18,0.086,0.259,0.3,0.173,0.48L681.918,500.655z" />
									<path style="fill:#D1ECFB;" d="M678.494,499.193c-0.171,0.366-0.457,0.595-0.638,0.512l-4.415-2.064
										c-0.18-0.085-0.189-0.451-0.016-0.819l0.207-0.444c0.172-0.368,0.458-0.598,0.639-0.512l4.414,2.064
										c0.182,0.084,0.189,0.449,0.017,0.817L678.494,499.193z" />
									<path style="fill:#B3B3B3;" d="M683.19,498.422c-0.174,0.366-0.458,0.597-0.64,0.513l-4.415-2.065
										c-0.181-0.084-0.188-0.451-0.016-0.818l0.207-0.443c0.172-0.368,0.458-0.598,0.638-0.514l4.417,2.065
										c0.179,0.084,0.189,0.452,0.015,0.819L683.19,498.422z" />
									<path style="fill:#8FC4D7;" d="M690.435,484.049c-0.589,1.259-2.088,1.802-3.347,1.215
										c-1.258-0.588-1.802-2.086-1.212-3.345c0.588-1.259,2.085-1.802,3.345-1.214
										C690.478,481.293,691.022,482.792,690.435,484.049z" />
									<path style="fill:#D1ECFB;" d="M690.027,483.859c-0.484,1.033-1.714,1.479-2.748,0.997
										c-1.033-0.484-1.481-1.715-0.998-2.747c0.485-1.034,1.715-1.48,2.748-0.998
										C690.063,481.596,690.51,482.826,690.027,483.859z" />
									<path style="fill:#D1ECFB;" d="M684.065,497.908c-0.115,0.249-0.357,0.381-0.537,0.298l-11.325-5.296
										c-0.18-0.085-0.233-0.354-0.117-0.603l0.14-0.3c0.116-0.251,0.358-0.384,0.539-0.299l11.325,5.295
										c0.181,0.085,0.233,0.355,0.117,0.603L684.065,497.908z" />
								</g>
								<path style="fill:#D1ECFB;" d="M689.24,507.079l-1.575-3.994c-0.42-1.065-1.082-1.929-2.202-1.929
									c-0.796,0-1.516,0.863-1.604,1.929l-0.338,3.994H689.24z" />
								<path style="fill:#B3B3B3;" d="M686.824,502.774c0,0.677-0.549,1.223-1.223,1.223c-0.676,0-1.223-0.546-1.223-1.223
									c0-0.675,0.547-1.224,1.223-1.224C686.275,501.551,686.824,502.1,686.824,502.774z" />
							</g>
						</g>
					</g>
					<polygon style="fill:#0F6C82;" points="600.179,526.465 611.098,526.465 611.098,538.581 615.688,538.581 605.57,552.029 
						595.453,538.097 600.179,538.097 					" />
				</g>
			</g>
			<g>
				<rect x="162.932" y="763" style="fill:none;" width="77.174" height="26.667" />
				<text transform="matrix(1 0 0 1 162.9321 776.2656)"
					style="fill:#F2F2F2; font-family:'Aller'; font-size:18px;">ANALYZE</text>
				<g>
					<g>
						<g>
							<path style="fill:#FFC000;"
								d="M284.984,602.406l-0.007-1.604c0,0,3.396-2.822,12.815-4.468
								c9.418-1.644,7.277-3.651,7.277-3.651h2.759l-0.008-1.898l23.414-0.103l0.007,1.898l1.831-0.009c0,0-1.195,2.012,8.236,3.574
								c9.432,1.565,12.861,5.963,12.861,5.963l0,0l2.205-0.011l0.021,4.612l-73.598,0.317l-0.02-4.609L284.984,602.406z" />
						</g>
						<g>

							<rect x="313.728" y="546.136" transform="matrix(-1 0.0044 -0.0044 -1 641.3406 1135.47)"
								style="fill:#EDF1F2;" width="11.405" height="44.598" />
						</g>
						<g>

							<rect x="327.099" y="507.603"
								transform="matrix(-0.7417 -0.6707 0.6707 -0.7417 224.2057 1146.1484)"
								style="fill:#EDF1F2;" width="11.406" height="44.597" />
						</g>
						<g>

							<rect x="325.299" y="482.079"
								transform="matrix(0.3833 -0.9236 0.9236 0.3833 -261.7265 616.7696)"
								style="fill:#EDF1F2;" width="11.406" height="44.596" />
						</g>
						<g>
							<g>
								<path style="fill:#DDA60B;" d="M310.961,485.02c4.457,4.89,12.034,5.238,16.922,0.778
									c4.889-4.456,5.238-12.032,0.782-16.923c-4.458-4.887-12.035-5.237-16.923-0.778
									C306.852,472.555,306.502,480.131,310.961,485.02z" />
							</g>
							<g>
								<path style="fill:#FFC000;" d="M266.201,483.755l30.323-5.573c0.173-0.033,0.36-0.021,0.542,0.03l14.476-13.198
									c0.298-0.271,0.819-0.19,1.157,0.18l18.778,20.599c0.339,0.371,0.372,0.896,0.075,1.166l-14.456,13.181
									c0.045,0.205,0.046,0.409-0.007,0.598l-8.343,29.681c-0.238,0.851-1.351,0.942-2.056,0.169l-11.748-12.885l-7.727-8.474
									l-1.898-2.081l-8.485-9.305l-10.991-12.054C265.137,485.015,265.331,483.915,266.201,483.755z" />
							</g>
							<g>
								<g>
									<path style="fill:#DDA60B;" d="M284.554,509.581c11.652,12.781,22.015,22.308,23.147,21.275
										c1.13-1.031-7.399-12.227-19.054-25.007c-11.652-12.781-22.016-22.306-23.147-21.276
										C264.37,485.603,272.9,496.801,284.554,509.581z" />
								</g>
								<g>
									<path style="fill:#F9F9FA;" d="M277.813,498.669c0.72-0.656,1.494-1.208,2.306-1.667
										c5.068,4.835,10.926,10.96,16.648,18.149c-0.54,0.791-1.177,1.533-1.914,2.206c-5.161,4.705-13.159,4.336-17.864-0.824
										C272.282,511.374,272.652,503.373,277.813,498.669z" />
								</g>
							</g>
						</g>
						<g>
							<path style="fill:#EDF1F2;" d="M333.732,511.099c0.028,6.424,5.257,11.608,11.68,11.58
								c6.424-0.027,11.609-5.258,11.581-11.681c-0.028-6.424-5.258-11.607-11.681-11.58
								C338.889,499.446,333.704,504.675,333.732,511.099z" />
						</g>
						<g>
							<path style="fill:#EDF1F2;" d="M307.703,546.187c0.029,6.423,5.258,11.608,11.682,11.58
								c6.423-0.027,11.608-5.258,11.58-11.68c-0.027-6.425-5.257-11.609-11.68-11.581
								C312.861,534.534,307.676,539.765,307.703,546.187z" />
						</g>
						<g>
							<path style="fill:#FD5048;" d="M309.956,546.176c0.023,5.182,4.239,9.359,9.419,9.336c5.179-0.022,9.359-4.236,9.336-9.415
								c-0.022-5.181-4.238-9.36-9.417-9.341C314.114,536.781,309.934,540.997,309.956,546.176z" />
						</g>
						<g>
							<path style="fill:#FD5048;" d="M335.984,511.088c0.023,5.18,4.239,9.362,9.418,9.34c5.181-0.022,9.359-4.241,9.337-9.418
								c-0.022-5.181-4.237-9.36-9.417-9.338C340.144,501.693,335.963,505.911,335.984,511.088z" />
						</g>
						<g>

							<rect x="282.788" y="602.258" transform="matrix(-1 0.0043 -0.0043 -1 641.7763 1207.743)"
								style="fill:#DDA60B;" width="73.598" height="4.611" />
						</g>
						<g>

							<rect x="307.824" y="590.733" transform="matrix(-1 0.0044 -0.0044 -1 641.6497 1181.9597)"
								style="fill:#DDA60B;" width="23.414" height="1.898" />
						</g>
					</g>
					<g>
						<g>
							<g>
								<path style="fill:#88D8D5;" d="M54.551,559.161c0-28.892,23.426-52.316,52.321-52.316c28.895,0,52.32,23.424,52.32,52.316
									c0,28.897-23.424,52.322-52.32,52.322C77.977,611.483,54.551,588.058,54.551,559.161z" />
							</g>
							<path style="fill:#808080;" d="M40.154,559.161c0-36.786,29.929-66.714,66.718-66.714c1.745,0,3.158,1.414,3.158,3.158
								c0,1.745-1.413,3.16-3.158,3.16c-33.304,0-60.398,27.095-60.398,60.395c0,33.305,27.094,60.398,60.398,60.398
								c1.745,0,3.158,1.414,3.158,3.158c0,1.748-1.413,3.163-3.158,3.163c-2.275,0-4.527-0.116-6.746-0.34v11.839h12.855
								c4.799,0,8.689,3.889,8.689,8.689h-21.545h-6.424H72.162c0-4.801,3.891-8.689,8.688-8.689h12.853v-12.813
								C63.202,618.435,40.154,591.444,40.154,559.161z" />
						</g>
						<g>
							<g>
								<path style="fill:#F5F1F0;" d="M107.565,506.394c0,0,0.088,1.649,0.194,4.535c0.085,2.886,0.265,7.009,0.378,11.956
									c0.128,4.947,0.235,10.719,0.307,16.902c0.028,3.092,0.057,6.287,0.086,9.534c0.011,3.246,0.023,6.545,0.035,9.843
									c-0.011,3.298-0.023,6.597-0.034,9.843c-0.029,3.247-0.058,6.442-0.086,9.534c-0.069,6.184-0.177,11.955-0.306,16.902
									c-0.112,4.947-0.294,9.07-0.379,11.956c-0.106,2.886-0.195,4.535-0.195,4.535s-0.089-1.649-0.195-4.535
									c-0.085-2.886-0.268-7.009-0.379-11.956c-0.129-4.947-0.237-10.719-0.306-16.902c-0.028-3.092-0.056-6.287-0.086-9.534
									c-0.011-3.246-0.022-6.545-0.034-9.843c0.012-3.298,0.023-6.597,0.035-9.843c0.03-3.247,0.059-6.442,0.086-9.534
									c0.071-6.184,0.178-11.955,0.307-16.902c0.113-4.947,0.292-9.07,0.378-11.956
									C107.477,508.043,107.565,506.394,107.565,506.394z" />
							</g>
							<g>
								<path style="fill:#F5F1F0;" d="M119.314,508.929c0,0,0.383,0.259,1.073,0.784c0.691,0.523,1.699,1.303,2.918,2.372
									c1.22,1.066,2.665,2.406,4.254,4.017c1.572,1.624,3.325,3.491,5.039,5.696c0.894,1.073,1.723,2.269,2.624,3.477
									c0.43,0.619,0.844,1.264,1.276,1.912c0.44,0.644,0.859,1.315,1.258,2.01c1.696,2.726,3.194,5.78,4.53,9.026
									c0.31,0.822,0.622,1.651,0.937,2.487c0.322,0.832,0.539,1.709,0.816,2.57c0.584,1.718,0.911,3.528,1.328,5.33
									c0.163,0.91,0.278,1.832,0.419,2.753l0.203,1.386c0.049,0.464,0.069,0.932,0.105,1.399l0.194,2.809l-0.02,2.82
									c0.04,1.885-0.265,3.75-0.418,5.615c-0.077,0.933-0.31,1.843-0.457,2.762c-0.178,0.914-0.311,1.835-0.525,2.732
									c-0.504,1.776-0.893,3.574-1.508,5.274c-0.309,0.85-0.617,1.693-0.923,2.531c-0.305,0.838-0.592,1.676-0.982,2.462
									c-0.751,1.584-1.391,3.189-2.196,4.669c-0.821,1.47-1.625,2.907-2.407,4.307c-1.755,2.677-3.337,5.261-5.105,7.421
									c-0.85,1.102-1.664,2.159-2.439,3.165c-0.842,0.948-1.64,1.848-2.391,2.693c-0.749,0.844-1.45,1.634-2.099,2.364
									c-0.67,0.71-1.318,1.331-1.886,1.908c-2.304,2.272-3.62,3.57-3.62,3.57s1.212-1.394,3.333-3.833
									c0.53-0.609,1.136-1.266,1.758-2.012c0.6-0.765,1.248-1.592,1.941-2.476c0.692-0.882,1.428-1.821,2.204-2.811
									c0.72-1.03,1.476-2.113,2.266-3.243c0.792-1.127,1.633-2.288,2.366-3.58c0.769-1.266,1.563-2.574,2.38-3.92
									c0.723-1.396,1.465-2.828,2.224-4.294c0.732-1.476,1.344-3.045,2.042-4.606c0.367-0.773,0.63-1.595,0.91-2.415
									c0.281-0.819,0.565-1.645,0.85-2.476c0.317-0.82,0.487-1.69,0.718-2.545c0.225-0.857,0.451-1.719,0.678-2.584
									c0.202-0.87,0.323-1.761,0.489-2.645c0.136-0.888,0.358-1.768,0.426-2.669c0.133-1.801,0.419-3.6,0.369-5.415l0.038-2.717
									l-0.17-2.707c-0.032-0.449-0.048-0.901-0.093-1.349l-0.188-1.337c-0.131-0.889-0.236-1.779-0.387-2.658
									c-0.703-3.5-1.591-6.915-2.82-10.102c-1.254-3.17-2.601-6.199-4.179-8.916c-1.536-2.738-3.157-5.239-4.783-7.457
									c-3.231-4.453-6.351-7.859-8.646-10.12c-1.155-1.125-2.071-2.003-2.723-2.573
									C119.675,509.218,119.314,508.929,119.314,508.929z" />
							</g>
							<g>
								<path style="fill:#F5F1F0;"
									d="M92.21,508.929c0,0-0.36,0.279-1.004,0.84c-0.651,0.553-1.568,1.405-2.722,2.498
									c-1.148,1.1-2.498,2.479-3.975,4.123c-1.454,1.664-3.069,3.563-4.672,5.75c-0.834,1.068-1.593,2.262-2.429,3.456
									c-0.754,1.25-1.619,2.486-2.345,3.854c-1.568,2.671-2.923,5.645-4.15,8.771c-1.245,3.13-2.069,6.511-2.768,9.956
									c-0.212,1.745-0.577,3.489-0.619,5.272c-0.046,0.889-0.128,1.777-0.146,2.668l0.053,2.678
									c0.012,0.446,0.002,0.894,0.027,1.339l0.128,1.333l0.254,2.662c0.131,0.881,0.31,1.753,0.461,2.626
									c0.182,0.867,0.261,1.754,0.524,2.599c0.854,3.419,1.897,6.742,3.214,9.846c0.339,0.771,0.676,1.537,1.009,2.295
									c0.331,0.76,0.651,1.517,1.049,2.227c0.757,1.44,1.497,2.85,2.218,4.221c1.653,2.625,3.1,5.19,4.734,7.364
									c0.785,1.11,1.538,2.174,2.254,3.184c0.768,0.975,1.496,1.899,2.18,2.768c0.686,0.87,1.327,1.685,1.92,2.438
									c0.633,0.719,1.215,1.38,1.741,1.977c2.095,2.403,3.292,3.776,3.292,3.776s-1.301-1.277-3.579-3.512
									c-0.564-0.566-1.188-1.192-1.868-1.874c-0.642-0.719-1.335-1.495-2.077-2.325c-0.743-0.831-1.533-1.716-2.366-2.648
									c-0.793-0.967-1.578-2.023-2.425-3.106c-1.753-2.122-3.336-4.653-5.09-7.279c-0.78-1.375-1.582-2.787-2.4-4.231
									c-0.433-0.711-0.781-1.476-1.132-2.249c-0.356-0.77-0.716-1.548-1.08-2.332c-1.397-3.162-2.589-6.552-3.473-10.09
									c-0.276-0.87-0.368-1.789-0.561-2.686c-0.163-0.904-0.353-1.807-0.494-2.719l-0.284-2.762l-0.141-1.384
									c-0.028-0.463-0.025-0.928-0.036-1.392l-0.036-2.783c0.024-0.926,0.114-1.85,0.169-2.772
									c0.059-1.852,0.444-3.661,0.679-5.471c0.198-0.891,0.395-1.778,0.591-2.661l0.309-1.317l0.395-1.285
									c0.27-0.852,0.508-1.708,0.799-2.539c0.314-0.823,0.626-1.64,0.936-2.45c1.31-3.208,2.818-6.208,4.505-8.888
									c0.792-1.372,1.703-2.615,2.528-3.852c0.905-1.18,1.729-2.356,2.625-3.404c1.712-2.158,3.468-3.975,5.038-5.558
									c1.59-1.565,3.032-2.868,4.253-3.901c1.217-1.036,2.223-1.789,2.914-2.294C91.827,509.177,92.21,508.929,92.21,508.929z" />
							</g>
							<g>
								<path style="fill:#F5F1F0;" d="M159.192,559.161c0,0-1.636,0.08-4.499,0.172c-2.862,0.072-6.952,0.232-11.858,0.321
									c-4.907,0.106-10.632,0.185-16.765,0.227c-3.067,0.014-6.235,0.027-9.456,0.041c-3.22-0.004-6.491-0.008-9.762-0.012
									c-3.271-0.026-6.541-0.054-9.761-0.08c-3.22-0.044-6.388-0.088-9.455-0.13c-6.132-0.1-11.856-0.234-16.762-0.387
									c-4.906-0.135-8.994-0.337-11.855-0.436c-2.861-0.119-4.497-0.216-4.497-0.216s1.636-0.081,4.499-0.173
									c2.862-0.072,6.952-0.235,11.858-0.323c4.907-0.105,10.632-0.185,16.765-0.227c3.067-0.013,6.235-0.026,9.456-0.04
									c3.22,0.005,6.491,0.009,9.762,0.014c3.271,0.027,6.541,0.055,9.761,0.081c3.22,0.045,6.388,0.089,9.455,0.132
									c6.132,0.1,11.856,0.234,16.762,0.387c4.906,0.136,8.994,0.335,11.855,0.435
									C157.557,559.065,159.192,559.161,159.192,559.161z" />
							</g>
							<g>
								<path style="fill:#F5F1F0;"
									d="M140.014,518.68c0,0-0.206,0.185-0.592,0.533c-0.394,0.34-0.97,0.844-1.75,1.424
									c-1.556,1.161-3.828,2.789-6.788,4.364c-1.472,0.8-3.108,1.598-4.891,2.325c-1.772,0.755-3.699,1.412-5.721,2.005
									c-2.036,0.53-4.154,1.079-6.358,1.352c-2.194,0.332-4.452,0.471-6.708,0.5c-2.256-0.042-4.518-0.167-6.711-0.53
									c-0.549-0.086-1.098-0.157-1.639-0.256c-0.537-0.121-1.071-0.242-1.602-0.363c-1.067-0.214-2.094-0.532-3.106-0.834
									c-1.02-0.276-1.991-0.644-2.938-1.01c-0.957-0.338-1.861-0.747-2.734-1.156c-1.778-0.752-3.342-1.698-4.803-2.515
									c-1.408-0.912-2.729-1.693-3.789-2.549c-1.078-0.826-2.049-1.496-2.77-2.152c-1.476-1.267-2.296-2.008-2.296-2.008
									s0.934,0.606,2.527,1.695c0.776,0.574,1.808,1.141,2.948,1.844c1.126,0.727,2.505,1.36,3.934,2.164
									c0.732,0.372,1.52,0.708,2.318,1.083c0.792,0.391,1.64,0.727,2.514,1.064c0.868,0.352,1.762,0.702,2.705,0.978
									c0.936,0.295,1.876,0.642,2.87,0.869c0.984,0.259,1.98,0.535,3.013,0.707c0.513,0.1,1.029,0.199,1.547,0.3
									c0.521,0.088,1.048,0.15,1.575,0.228c2.106,0.328,4.275,0.419,6.437,0.443c2.163-0.007,4.331-0.115,6.445-0.413
									c2.12-0.254,4.184-0.677,6.169-1.14c1.968-0.528,3.876-1.049,5.639-1.695c1.767-0.63,3.42-1.287,4.919-1.962
									c3-1.344,5.432-2.646,7.075-3.659c0.821-0.506,1.472-0.899,1.902-1.189C139.785,518.835,140.014,518.68,140.014,518.68z" />
							</g>
							<g>
								<path style="fill:#F5F1F0;" d="M70.902,597.45c0,0,0.889-0.803,2.613-1.991c1.727-1.178,4.262-2.793,7.514-4.353
									c1.631-0.764,3.415-1.573,5.368-2.259c1.942-0.716,4.028-1.378,6.229-1.906c2.195-0.552,4.501-0.98,6.861-1.282
									c2.364-0.271,4.781-0.451,7.202-0.443l1.814,0.023c0.604,0.021,1.206,0.072,1.808,0.106c1.205,0.054,2.397,0.194,3.579,0.34
									c2.366,0.273,4.663,0.762,6.858,1.306c2.194,0.554,4.285,1.208,6.215,1.956c0.974,0.35,1.914,0.707,2.795,1.121
									c0.885,0.405,1.753,0.762,2.559,1.165c1.598,0.833,3.083,1.549,4.314,2.343c1.244,0.765,2.353,1.382,3.203,1.997
									c1.726,1.182,2.691,1.878,2.691,1.878s-1.064-0.549-2.89-1.544c-0.895-0.527-2.056-1.036-3.352-1.673
									c-1.284-0.661-2.818-1.227-4.433-1.952c-0.816-0.342-1.694-0.633-2.585-0.97c-0.447-0.165-0.901-0.333-1.362-0.504
									c-0.469-0.148-0.945-0.299-1.428-0.45c-0.965-0.303-1.948-0.638-2.983-0.876c-1.033-0.242-2.062-0.586-3.147-0.777
									c-2.148-0.479-4.394-0.839-6.683-1.102c-1.146-0.129-2.301-0.255-3.468-0.294c-0.583-0.027-1.165-0.072-1.75-0.087
									l-1.755-0.007c-2.341-0.031-4.683,0.121-6.976,0.36c-2.288,0.285-4.543,0.591-6.691,1.078
									c-2.15,0.468-4.217,0.994-6.147,1.604c-1.936,0.59-3.732,1.26-5.385,1.896c-3.283,1.327-5.963,2.609-7.77,3.636
									C71.896,596.788,70.902,597.45,70.902,597.45z" />
							</g>
						</g>
					</g>

					<line style="fill:none;stroke:#474747;stroke-width:0.227;stroke-linecap:round;stroke-miterlimit:10;"
						x1="132.172" y1="568.102" x2="133.762" y2="568.102" />

					<line style="fill:none;stroke:#474747;stroke-width:0.227;stroke-linecap:round;stroke-miterlimit:10;"
						x1="132.172" y1="571.729" x2="133.762" y2="571.729" />

					<line style="fill:none;stroke:#474747;stroke-width:0.227;stroke-linecap:round;stroke-miterlimit:10;"
						x1="132.172" y1="575.356" x2="133.762" y2="575.356" />

					<line style="fill:none;stroke:#474747;stroke-width:0.227;stroke-linecap:round;stroke-miterlimit:10;"
						x1="132.172" y1="578.982" x2="133.762" y2="578.982" />

					<line style="fill:none;stroke:#474747;stroke-width:0.227;stroke-linecap:round;stroke-miterlimit:10;"
						x1="132.172" y1="582.609" x2="133.762" y2="582.609" />

					<line style="fill:none;stroke:#474747;stroke-width:0.227;stroke-linecap:round;stroke-miterlimit:10;"
						x1="132.172" y1="586.237" x2="133.762" y2="586.237" />

					<line style="fill:none;stroke:#474747;stroke-width:0.227;stroke-linecap:round;stroke-miterlimit:10;"
						x1="132.172" y1="589.866" x2="133.762" y2="589.866" />

					<line style="fill:none;stroke:#474747;stroke-width:0.227;stroke-linecap:round;stroke-miterlimit:10;"
						x1="133.762" y1="593.496" x2="132.172" y2="593.496" />

					<line style="fill:none;stroke:#474747;stroke-width:0.227;stroke-linecap:round;stroke-miterlimit:10;"
						x1="132.172" y1="597.127" x2="133.762" y2="597.127" />

					<line style="fill:none;stroke:#474747;stroke-width:0.227;stroke-linecap:round;stroke-miterlimit:10;"
						x1="142.83" y1="600.979" x2="142.83" y2="599.392" />

					<line style="fill:none;stroke:#474747;stroke-width:0.227;stroke-linecap:round;stroke-miterlimit:10;"
						x1="158.59" y1="600.979" x2="158.59" y2="599.392" />
					<g>
						<g id="notebook">
							<path style="fill:#004E67;" d="M306.784,694.368c0,1.913-1.555,3.468-3.463,3.468H103.128c-1.902,0-3.455-1.555-3.455-3.468
								V559.962c0-1.909,1.553-3.46,3.455-3.46h200.193c1.909,0,3.463,1.551,3.463,3.46V694.368z" />
							<rect x="107.857" y="682.288" style="fill:#D1ECFB;" width="190.739" height="8.525" />
							<path style="fill:#FFFFFF;"
								d="M203.191,690.813V565.393c0.063-0.114,0.108-0.235,0.108-0.371c0-0.348-0.033-0.69-0.052-1.03
								c0.522-6.189,5.718-11.064,12.041-11.064h83.307V683.49h-83.307C210.044,683.49,205.483,686.463,203.191,690.813z" />
							<path style="fill:#FFFFFF;" d="M203.259,690.813V565.393c-0.059-0.114-0.104-0.235-0.104-0.371
								c0-0.348,0.028-0.69,0.054-1.03c-0.529-6.189-5.725-11.064-12.047-11.064h-83.305V683.49h83.305
								C196.407,683.49,200.965,686.463,203.259,690.813z" />
							<path style="fill:#FFFFFF;" d="M203.209,563.991c-0.367-4.328-3.025-8.007-6.747-9.83v130.414
								c2.916,1.236,5.324,3.445,6.796,6.238V565.393c-0.059-0.114-0.104-0.235-0.104-0.371
								C203.155,564.674,203.183,564.332,203.209,563.991z" />
						</g>
						<g>
							<rect x="136.44" y="603.831" style="fill:#36719E;" width="5.133" height="5.132" />
							<rect x="152.327" y="603.831" style="fill:#FFC000;" width="5.137" height="5.132" />
							<g>
								<g>
									<polygon style="fill:#36719E;" points="192.709,593.167 175.483,589.521 175.413,589.481 158.178,578.668 142.412,578.668 
										142.294,578.586 126.741,567.844 117.901,571.589 117.546,570.754 126.844,566.813 142.695,577.761 158.439,577.761 
										158.548,577.831 175.83,588.672 192.903,592.286 									" />
								</g>
								<path style="fill:#36719E;" d="M127.739,567.391c0,0.549-0.445,0.999-0.999,0.999c-0.55,0-0.998-0.45-0.998-0.999
									c0-0.55,0.447-0.997,0.998-0.997C127.294,566.394,127.739,566.841,127.739,567.391z" />
								<path style="fill:#36719E;" d="M143.407,578.211c0,0.554-0.445,0.998-0.995,0.998c-0.552,0-0.997-0.444-0.997-0.998
									c0-0.548,0.445-0.994,0.997-0.994C142.962,577.217,143.407,577.663,143.407,578.211z" />
								<path style="fill:#36719E;" d="M159.294,578.297c0,0.55-0.445,0.995-0.999,0.995c-0.552,0-0.997-0.445-0.997-0.995
									c0-0.555,0.445-0.999,0.997-0.999C158.849,577.298,159.294,577.742,159.294,578.297z" />
								<path style="fill:#36719E;" d="M176.651,589.098c0,0.55-0.445,0.998-0.997,0.998c-0.551,0-1-0.448-1-0.998
									s0.449-0.999,1-0.999C176.206,588.099,176.651,588.548,176.651,589.098z" />
							</g>
							<g>
								<g>
									<polygon style="fill:#FD5048;" points="158.381,591.517 142.412,585.469 126.68,591.338 117.476,587.646 117.813,586.803 
										126.752,590.392 142.332,584.472 158.082,590.514 175.578,578.211 192.969,583.227 192.481,583.994 175.655,579.209 
																			" />
								</g>
								<path style="fill:#FD5048;" d="M127.659,590.866c0,0.55-0.447,0.998-0.999,0.998c-0.548,0-0.997-0.448-0.997-0.998
									c0-0.552,0.449-1.001,0.997-1.001C127.212,589.865,127.659,590.315,127.659,590.866z" />
								<path style="fill:#FD5048;" d="M143.327,585.238c0,0.554-0.446,1.001-0.995,1.001c-0.548,0-0.995-0.447-0.995-1.001
									c0-0.548,0.447-0.998,0.995-0.998C142.881,584.24,143.327,584.69,143.327,585.238z" />
								<path style="fill:#FD5048;" d="M159.217,590.955c0,0.553-0.446,1-1,1c-0.551,0-0.995-0.447-0.995-1
									c0-0.551,0.444-0.996,0.995-0.996C158.771,589.959,159.217,590.404,159.217,590.955z" />
								<path style="fill:#FD5048;" d="M176.823,578.995c0,0.551-0.447,0.999-0.995,0.999c-0.552,0-0.999-0.448-0.999-0.999
									c0-0.55,0.447-0.998,0.999-0.998C176.376,577.997,176.823,578.445,176.823,578.995z" />
							</g>
							<g>
								<g>
									<polygon style="fill:#FFC000;" points="192.709,589.542 175.483,585.898 175.413,585.854 158.135,575.011 142.602,571.434 
										127.025,578.604 117.995,585.269 117.454,584.536 126.606,577.803 142.501,570.481 142.652,570.519 158.488,574.159 
										158.548,574.204 175.83,585.042 192.903,588.652 									" />
								</g>
								<path style="fill:#FFC000;" d="M143.55,570.957c0,0.554-0.45,1-0.997,1c-0.549,0-0.997-0.446-0.997-1
									c0-0.548,0.449-0.994,0.997-0.994C143.1,569.963,143.55,570.409,143.55,570.957z" />
								<path style="fill:#FFC000;" d="M127.79,578.438c0,0.553-0.447,0.997-0.997,0.997c-0.548,0-0.997-0.444-0.997-0.997
									c0-0.552,0.449-0.995,0.997-0.995C127.343,577.443,127.79,577.887,127.79,578.438z" />
								<path style="fill:#FFC000;" d="M159.309,574.584c0,0.553-0.449,0.997-1.001,0.997c-0.55,0-0.999-0.444-0.999-0.997
									c0-0.549,0.449-0.996,0.999-0.996C158.86,573.588,159.309,574.035,159.309,574.584z" />
								<path style="fill:#FFC000;" d="M176.651,585.469c0,0.55-0.445,0.999-0.997,0.999c-0.551,0-1-0.449-1-0.999
									c0-0.551,0.449-0.997,1-0.997C176.206,584.472,176.651,584.918,176.651,585.469z" />
							</g>
							<g>
								<polygon style="fill:#474747;" points="192.807,594.993 117.498,594.993 117.498,561.89 117.948,561.89 117.948,594.538 
									192.807,594.538 								" />
							</g>
							<rect x="215.201" y="654.028" style="fill:#F2F2F2;" width="77.618" height="23.191" />
							<polygon style="fill:#FFC000;" points="215.201,677.22 229.872,668.227 233.659,672.724 241.231,658.288 247.384,670.12 
								254.01,667.754 266.788,671.066 292.819,658.288 292.819,677.22 							" />
							<line style="fill:none;stroke:#4D4D4D;stroke-miterlimit:10;" x1="116.93" y1="615.692"
								x2="192.969" y2="615.692" />
							<line style="fill:none;stroke:#4D4D4D;stroke-miterlimit:10;" x1="116.93" y1="623.028"
								x2="192.969" y2="623.028" />
							<line style="fill:none;stroke:#4D4D4D;stroke-miterlimit:10;" x1="116.93" y1="630.364"
								x2="192.969" y2="630.364" />
							<line style="fill:none;stroke:#4D4D4D;stroke-miterlimit:10;" x1="116.93" y1="637.7"
								x2="192.969" y2="637.7" />
							<line style="fill:none;stroke:#4D4D4D;stroke-miterlimit:10;" x1="116.93" y1="645.036"
								x2="192.969" y2="645.036" />
							<line style="fill:none;stroke:#4D4D4D;stroke-miterlimit:10;" x1="116.93" y1="652.372"
								x2="192.969" y2="652.372" />
							<line style="fill:none;stroke:#4D4D4D;stroke-miterlimit:10;" x1="116.93" y1="659.708"
								x2="192.969" y2="659.708" />
							<line style="fill:none;stroke:#4D4D4D;stroke-miterlimit:10;" x1="116.93" y1="667.044"
								x2="192.969" y2="667.044" />
							<line style="fill:none;stroke:#4D4D4D;stroke-miterlimit:10;" x1="116.93" y1="674.38"
								x2="192.969" y2="674.38" />
							<line style="fill:none;stroke:#4D4D4D;stroke-miterlimit:10;" x1="215.99" y1="586.35"
								x2="292.029" y2="586.35" />
							<line style="fill:none;stroke:#4D4D4D;stroke-miterlimit:10;" x1="215.99" y1="593.685"
								x2="292.029" y2="593.685" />
							<line style="fill:none;stroke:#4D4D4D;stroke-miterlimit:10;" x1="215.99" y1="601.021"
								x2="292.029" y2="601.021" />
							<line style="fill:none;stroke:#4D4D4D;stroke-miterlimit:10;" x1="215.99" y1="608.357"
								x2="292.029" y2="608.357" />
							<line style="fill:none;stroke:#4D4D4D;stroke-miterlimit:10;" x1="215.99" y1="615.692"
								x2="292.029" y2="615.692" />
							<line style="fill:none;stroke:#4D4D4D;stroke-miterlimit:10;" x1="215.99" y1="623.028"
								x2="292.029" y2="623.028" />
							<line style="fill:none;stroke:#4D4D4D;stroke-miterlimit:10;" x1="215.99" y1="630.364"
								x2="292.029" y2="630.364" />
							<line style="fill:none;stroke:#4D4D4D;stroke-miterlimit:10;" x1="215.99" y1="637.7"
								x2="292.029" y2="637.7" />
							<line style="fill:none;stroke:#4D4D4D;stroke-miterlimit:10;" x1="215.99" y1="645.036"
								x2="292.029" y2="645.036" />
							<rect x="215.99" y="561.89" style="fill:#CCCCCC;" width="76.039" height="15.327" />
							<rect x="167.995" y="603.831" style="fill:#FD5048;" width="5.135" height="5.132" />
						</g>
					</g>
					<polyline style="opacity:0.2;fill:#FFFFFF;" points="265.5,485.977 107.857,554.33 107.857,692.217 298.596,692.217 
						307.701,532.26 					" />
				</g>
			</g>
		</g>
	</g>
</svg>