<?xml version="1.0" encoding="UTF-8"?>
<svg xmlns="http://www.w3.org/2000/svg" viewBox="0 0 456.57 451.01">
  <g id="Floor">
    <ellipse id="Floor-2" data-name="Floor" cx="228.29" cy="324.61" rx="228.29" ry="126.4" style="fill: #f0f0f0;"/>
  </g>
  <g id="Shadows">
    <ellipse id="Shadow" cx="248.57" cy="357.73" rx="76.37" ry="42.28" style="fill: #e0e0e0;"/>
    <ellipse id="Shadow-2" data-name="Shadow" cx="385.91" cy="332.25" rx="38.42" ry="21.27" style="fill: #e0e0e0;"/>
    <ellipse id="Shadow-3" data-name="Shadow" cx="86.83" cy="339.74" rx="72.73" ry="40.27" style="fill: #e0e0e0;"/>
  </g>
  <g id="Plants">
    <g id="Pot">
      <g>
        <path d="m366.56,337.06c-10.29-10.5-16.33-53.22-6.3-61.55h51.06c10.03,8.32,4,51.03-6.29,61.54-.09.1-.19.19-.28.29-.12.12-.24.23-.35.35-.29.28-.6.56-.93.83-.08.07-.16.13-.25.19-.25.2-.5.4-.78.59-.44.31-.88.6-1.33.85-8.46,4.89-22.18,4.89-30.65,0h0s0,0,0,0c-.45-.25-.9-.54-1.34-.86-.26-.18-.49-.36-.72-.55-.1-.08-.2-.15-.3-.24-.32-.26-.62-.53-.9-.8-.14-.13-.27-.27-.41-.4-.08-.08-.16-.16-.24-.24Z" style="fill: #37474f;"/>
        <path d="m406.89,272.16c11.65,6.73,11.65,17.63,0,24.36-11.65,6.73-30.54,6.73-42.19,0-11.65-6.73-11.65-17.63,0-24.36,11.65-6.73,30.54-6.73,42.19,0Z" style="fill: #455a64;"/>
        <path d="m401.29,275.39c8.56,4.94,8.56,12.95,0,17.89-8.56,4.94-22.43,4.94-30.98,0-8.56-4.94-8.56-12.95,0-17.89,8.56-4.94,22.43-4.94,30.98,0Z" style="fill: #263238;"/>
        <path d="m370.3,283.88c8.56-4.94,22.43-4.94,30.98,0,2.38,1.37,4.07,2.98,5.12,4.7-1.06,1.71-2.75,3.33-5.12,4.7-8.56,4.94-22.43,4.94-30.98,0-2.38-1.37-4.07-2.99-5.12-4.7,1.06-1.71,2.75-3.33,5.12-4.7Z" style="fill: #f5f5f5;"/>
      </g>
      <g id="Plants-2" data-name="Plants">
        <g>
          <path d="m390.77,270.39l-7.33-5.21s-6-31.46-.82-45.03c5.18-13.57,14.72-13.49,19.28-9.86,4.55,3.63,2.06,14.99.19,21.56-2.24,7.91-9.39,43.35-4.35,55.92l-6.97-17.38Z" style="fill: #27debf;"/>
          <g style="opacity: .2;">
            <path d="m390.77,270.39l-7.33-5.21s-6-31.46-.82-45.03c5.18-13.57,14.72-13.49,19.28-9.86,4.55,3.63,2.06,14.99.19,21.56-2.24,7.91-9.39,43.35-4.35,55.92l-6.97-17.38Z"/>
          </g>
          <path d="m389.31,266.73c.27-.11.43-.4.37-.7-5.94-26.91,6.32-51.93,6.45-52.18.15-.3.03-.67-.27-.82-.3-.15-.67-.03-.82.27-.13.25-12.58,25.64-6.55,52.99.07.33.4.54.73.47.03,0,.07-.02.1-.03Z" style="fill: #fff;"/>
        </g>
        <g>
          <path d="m387.63,262.2s-.82-2.48,2.82-3.1c3.64-.63,5.04-3.66,5.38-8.74.34-5.08,1.87-8.72,6.44-9.47,4.57-.75,8.24,1.55,11.21-.74,2.97-2.29,10.63-7.81,17.02-5.3,6.39,2.52,4.29,7.97.97,11.51-3.32,3.54-4.28,4.73-1.74,10.48,2.54,5.75.69,11.12-5.18,12.47-5.88,1.34-9.16.66-9.25,7.1-.08,5.76-1.25,11.15-7.27,13.33-4.73,1.71-9.89,2.22-14.87,1.47-1.58-.24-3.4-.73-4.56-1.9-1.22-1.23-.96-2.59-.96-4.2v-22.91Z" style="fill: #27debf;"/>
          <g style="opacity: .1;">
            <path d="m387.63,262.2s-.82-2.48,2.82-3.1c3.64-.63,5.04-3.66,5.38-8.74.34-5.08,1.87-8.72,6.44-9.47,4.57-.75,8.24,1.55,11.21-.74,2.97-2.29,10.63-7.81,17.02-5.3,6.39,2.52,4.29,7.97.97,11.51-3.32,3.54-4.28,4.73-1.74,10.48,2.54,5.75.69,11.12-5.18,12.47-5.88,1.34-9.16.66-9.25,7.1-.08,5.76-1.25,11.15-7.27,13.33-4.73,1.71-9.89,2.22-14.87,1.47-1.58-.24-3.4-.73-4.56-1.9-1.22-1.23-.96-2.59-.96-4.2v-22.91Z"/>
          </g>
          <path d="m387.63,288.76c.21,0,.41-.13.48-.34,10.7-31.76,34.9-44.58,35.14-44.71.25-.13.34-.43.22-.68-.13-.25-.43-.35-.68-.22-.25.13-24.81,13.12-35.64,45.28-.09.26.05.55.32.64.05.02.11.03.16.03Z" style="fill: #fff;"/>
          <path d="m402.97,261.08s.08,0,.11-.01c6.98-1.6,18.16-.73,18.27-.73.28.02.52-.18.54-.46.02-.28-.19-.52-.46-.54-.46-.04-11.44-.88-18.58.75-.27.06-.44.33-.38.6.05.23.26.39.49.39Z" style="fill: #fff;"/>
          <path d="m397.28,276.34c3.19,0,6.58-.21,6.79-.22.28-.02.49-.26.47-.54-.02-.28-.25-.5-.54-.47-.08,0-7.88.48-10.92,0-.28-.04-.53.14-.58.42-.04.28.14.53.42.58,1.08.17,2.69.23,4.35.23Z" style="fill: #fff;"/>
          <path d="m406.25,257.35s.02,0,.03,0c.28-.01.49-.25.48-.53-.31-5.6-2.17-10.43-2.25-10.63-.1-.26-.39-.39-.65-.29-.26.1-.39.39-.29.65.02.05,1.88,4.89,2.18,10.32.01.27.24.48.5.48Z" style="fill: #fff;"/>
        </g>
        <g>
          <path d="m387.44,292.2s-6.61,2.47-15.51.57c-8.9-1.91-11.06-7.35-11.06-7.35,0,0,6.34-6.59,11.95-6.96,0,0-8.71-1.47-16.86.36,0,0-5.15-1.9-4.18-10.5,0,0,4.85-3.53,16.01-2.15,0,0-5.59-3.95-15.4-5.11-.77,0,.27-11.2,1.21-16.2.94-5,2.79-4.22,6.8-3.79,4.01.43,16.63,4.6,18.13,7.47,1.5,2.88.02,10.16.02,10.16,0,0,3.67-3.03,4.48-6.68,0,0,4.13.17,7.66,3.17,3.53,3,2.51,4.89,1.36,7.86-1.23,3.18-2.35,5.17-4.64,8.38,0,0,3.76-1.35,7.33-10.31,0,0,3.7,6.85,4.35,11.77.65,4.92-4.01,15.32-11.67,19.33Z" style="fill: #27debf;"/>
          <path d="m387.25,292.67c-.17-.07-.31-.23-.32-.43-1.35-16.67-20.21-42.72-28.55-47.95-.24-.15-.31-.46-.16-.7.15-.24.46-.3.7-.16,8.48,5.32,27.65,31.79,29.02,48.73.02.28-.18.52-.46.54-.08,0-.15,0-.22-.03Z" style="fill: #fff;"/>
        </g>
      </g>
    </g>
  </g>
  <g id="Chair">
    <g>
      <g>
        <path d="m87.47,375.38c-.85,0-1.53-.68-1.53-1.53v-98.3c0-.85.68-1.53,1.53-1.53s1.53.68,1.53,1.53v98.3c0,.85-.68,1.53-1.53,1.53Z" style="fill: #455a64;"/>
        <path d="m148.29,339.6c-.61,0-1.18-.37-1.42-.97l-30.14-76.3c-.31-.79.07-1.67.86-1.98.78-.31,1.67.07,1.98.86l30.14,76.3c.31.79-.07,1.67-.86,1.98-.18.07-.37.11-.56.11Z" style="fill: #455a64;"/>
        <path d="m144.67,330.43c-.41,0-.81-.16-1.11-.48l-56.09-59.36-55.99,59.1c-.58.62-1.55.64-2.16.06-.61-.58-.64-1.55-.06-2.16l57.1-60.28c.29-.3.69-.48,1.11-.48h0c.42,0,.82.17,1.11.48l57.2,60.53c.58.61.55,1.58-.06,2.16-.3.28-.67.42-1.05.42Z" style="fill: #455a64;"/>
        <path d="m26.65,339.6c-.19,0-.38-.03-.56-.11-.79-.31-1.17-1.2-.86-1.98l30.14-76.3c.31-.79,1.2-1.17,1.98-.86.79.31,1.17,1.2.86,1.98l-30.14,76.3c-.24.6-.81.97-1.42.97Z" style="fill: #455a64;"/>
        <path d="m146.21,328.07l3.99,10.52c.02.09.04.18.04.27,0,.06,0,.13,0,.19-.04.22-.31.49-.6.66-.67.39-1.76.39-2.43,0-.24-.14-.4-.32-.47-.5,0,0,0-.01,0-.02l-.03-.14-3.69-9.86,3.21-1.12Z" style="fill: #27debf;"/>
        <path d="m28.73,328.07l-3.99,10.52c-.02.09-.04.18-.04.27,0,.06,0,.13,0,.19.04.22.31.49.6.66.67.39,1.76.39,2.43,0,.24-.14.4-.32.47-.5,0,0,0-.01,0-.02l.03-.14,3.7-9.86-3.21-1.12Z" style="fill: #27debf;"/>
        <path d="m89.23,366.24v8.7c0,.26-.17.52-.52.72-.69.4-1.8.4-2.49,0-.34-.2-.52-.46-.52-.72v-8.7c1.18-.59,2.35-.59,3.53,0Z" style="fill: #27debf;"/>
      </g>
      <g>
        <path d="m150.15,261.21c0-2.51-2.2-5.18-6.85-8.2-8.59-5.58-27.79-16.77-39.82-23.43-.02-.09-.1-.1-.1-.1-9.25-5.62-17.88-32.36-24.29-52.68-2.18-6.93-4.86-10.85-8.02-12.69-.75-.44-3.52-1.96-4.14-2.34-6.28-3.77-14.53.76-24.8,6.38-9.46,5.18-16.86,11.81-18.34,29.4-.91,10.71-.04,31.18,2.13,46.7,0,0,0-.01,0-.01,3.15,25.92,7.02,25.96,12.63,30.3,9.66,7.46,31.42,17.96,40.59,21.56,16.63,6.54,30.22-3.55,40.35-8.55,10.13-5,22.58-12.81,26.85-15.9,2.54-1.84,3.85-3.7,3.82-5.67-.01-.78,0-3.97,0-4.78Z" style="fill: #263238;"/>
        <path d="m119.48,282.74c10.13-5,22.58-12.81,26.85-15.9,5.76-4.19,5.23-8.47-3.03-13.83-6.16-3.99-5.84-4.35-52.24-29.85,0,0-59.14,34.9-56.6,41.35,2.54,6.44,33.13,22.24,44.66,26.78,16.63,6.54,30.22-3.55,40.35-8.55Z" style="fill: #37474f;"/>
        <path d="m70.7,163.9c-6.23-3.27-14.32,1.17-24.32,6.66-6.41,3.51-11.87,7.68-15.19,15.47l-4.23-2.44c3.32-7.76,8.77-11.92,15.16-15.43,10.28-5.63,18.52-10.14,24.81-6.38.55.32,2.73,1.54,3.77,2.12Z" style="fill: #455a64;"/>
        <path d="m46.38,170.57c15.38-8.42,26.22-14.39,32.72,6.24,6.4,20.32,15.03,47.06,24.29,52.68,0,0-3-2.54-26.01,14.85-7.32,5.53-16.21,10.07-22.04,13.54-11.44,6.82-18.37,9.55-19.47,8.64-6.05-5.01-9.32-48.95-7.83-66.54,1.49-17.59,8.88-24.22,18.34-29.4Z" style="fill: #37474f;"/>
        <g style="opacity: .5;">
          <path d="m46.38,170.57c15.38-8.42,26.22-14.39,32.72,6.24,6.4,20.32,15.03,47.06,24.29,52.68,0,0-15.87-.01-38.86,12.41-23.91,12.91-27.56,25.54-28.66,24.63-6.05-5.01-9.32-48.95-7.83-66.54,1.49-17.59,8.88-24.22,18.34-29.4Z" style="fill: #455a64;"/>
        </g>
      </g>
    </g>
  </g>
  <g id="Character">
    <g>
      <g id="Character-2" data-name="Character">
        <g>
          <path d="m340.74,121.27c4.07-.91,7.67-1.76,10.43-2.47,14.68-3.75,19.09-8.61,19.55-15.1.73-10.36-3.15-10.44-9.84-5.81-4.94,3.42-9.04,4.67-9.04,4.67,1.54-2.03,2.25-2.95,2.76-4.25,1.02-2.58-.36-4.24-1.25-4.67-.7-.34-1.4,1.45-3.83,3.43-3.11,2.53-5.63,3.02-8.22,6.53-.97,1.32-2.41,2.19-4.01,2.55-1.46.32-25.43,6.89-36.66,8.81-6.6-8.39-12.72-17.34-19.68-26.25-10.73-13.73-15.83-15.66-21.86-14.56l-5.23,17.24s35.34,41.62,35.76,42.14c2.72,3.41,6.53,4.64,10.71,3.41,15.23-4.47,31.34-11.48,40.4-15.67Z" style="fill: #ffa8a7;"/>
          <path d="m257.7,70.68c12.55.55,16.27,7.59,22.7,15.39,6.43,7.8,20.47,27.82,20.47,27.82l34.23-7.17s-1.42,9.84,3.02,15.76c0,0-18.16,9.16-29.16,13.37-13.9,5.33-14.81,4.12-17.33,1.81-2.39-2.19-33.02-36.81-33.02-36.81l-.91-30.17Z" style="fill: #37474f;"/>
        </g>
        <path d="m116.21,93.87c3.26-9.86,6.84-10.27,11.28-3.45,3.27,5.03,6.6,7.75,6.6,7.75-.65-2.47-.97-3.58-.95-4.98.04-2.77,1.94-3.78,2.93-3.85.77-.05.75,1.88,2.24,4.63,1.92,3.53,4.07,4.93,5.13,9.16.4,1.58,1.44,4.75,2.78,5.69,6.79,4.77,19.16,10.67,31.44,15.41,4.36-9.2,10.11-20.69,14.5-28.74,8.34-15.31,13.85-17.05,19.93-16.29l6.18,16.92s-32.96,43.53-33.35,44.07c-2.53,3.55-7.7,6-11.74,4.35-11.51-4.72-20.06-13.04-29.82-19.67-5.81-3.94-11.28-7.01-14.78-9.61-12.16-9.04-14.4-15.21-12.36-21.39Z" style="fill: #ffa8a7;"/>
        <path d="m204.09,284.16c.27-13,4.19-22.65,4.49-26.26,0,0-.96-77.34-.96-89.88l65.95-2.69s-.92,77.53-.92,88.28-1.61,56.44-3.31,77.47h0l-.19,6.92-14.72,4.58s.27-2.02,0-11.84c-.27-9.82-6.89-43.82-7.51-52.45-.79-11.16.98-15.67.77-23.14-.21-7.46-4.63-56.28-4.63-56.28,0,0-8.26,47.96-10.31,64.25-2.35,18.66-9.91,67.57-9.93,78.94,0,2.04,0,4.4.02,6.95.03,6.15-.17,7.78.81,10.16,1.73,4.16-13.02,6.78-13.7,3.82l-1.58-12.22v-.35h0v-7.75c0-11.59-4.67-39.65-4.28-58.5Z" style="fill: #ffa8a7;"/>
        <path d="m297.94,357.3c.43.9.3,2.58-.2,3.64-.51,1.07-6.07,4.2-13.58,3.7-7.51-.51-12.66-3.53-15.52-5.43s-5.84-2.25-9.56-2.46c-3.72-.21-8.6-2.07-9.41-3.8-.82-1.74.12-4.73.12-4.73l48.15,9.09Z" style="fill: #37474f;"/>
        <path d="m267.65,333.87c.2-.04.39-.08.59-.12.33-.07.67-.13.99-.05.37.09.67.35.93.63.81.88,1.29,1.99,1.92,3.01,1.57,2.57,4.88,4.69,8.48,6.63,2.45,1.32,4.85,2.34,7.39,3.48,2.58,1.16,6.01,1.87,8.03,3.23,2.95,1.99,3.33,6.97-.03,8.94-2.89,1.7-10.51,3.54-18.5,1.28-4.35-1.23-9.18-5.88-14.9-6.33-3.63-.28-10.5-1.3-12.84-4.06-.86-1.22.29-5.1,1.24-8.45,1.03-3.65,2.27-9.38,3.48-9.06.05.72-.09.9.38,1.39.45.46,1.05.76,1.54,1.17.9.77,1.45,1.85,2.01,2.89.24.45.53.93,1.03,1.12.61.23,1.07-.16,1.61-.4.67-.31,1.46-.37,2.17-.16-.07-.72-.2-1.44-.38-2.14-.06-.23-.13-.47-.05-.69.07-.23.27-.39.47-.52,1.4-.98,2.85-1.43,4.45-1.78Z" style="fill: #455a64;"/>
        <path d="m237.95,378.57c.44.42.31,3.27-.18,4.04-.53.83-3.54,3.4-9,3.79-5.22.37-9.87-.33-12.94-2.27-3.06-1.94-4.54-4.09-4.83-7.06-.29-2.97.04-5.84-1.37-8.12-1.31-2.11-3.39-4.49-3.85-5.64-.99-2.49-.04-6.05-.04-6.05l32.21,21.31Z" style="fill: #37474f;"/>
        <path d="m223.68,352.63c.04,1.15.24,2.21.6,3.31.76,2.3,1.91,4.47,3.19,6.54.66,1.06,1.37,2.11,2.17,3.07,1.58,1.88,3.54,3.42,5.21,5.22,1.67,1.8,3.09,3.98,3.22,6.4.22,4.09-4.22,5.48-7.64,6.09-3.65.65-7.55.45-11.11-.56-3.96-1.13-6.82-4.2-7.48-8.15-.19-1.14-.12-2.3-.25-3.44-.31-2.61-1.66-4.99-3.18-7.16-.88-1.26-1.85-2.49-2.44-3.9-1.07-2.53-.21-5.38.47-7.9.59-2.18,1.26-4.64,2.02-4.44,0,1.13,0,1.25.81,2.01,1.02.97,1.07,2.42,2.15,3.28-.51-1.33-.54-1.89-.76-2.91-.07-.31.02-.92.23-1.16.29-.31.78-.51,1.26-.67,1.61-.54,3.28-.92,4.97-1.13,1.54-.19,3.32-.38,4.85-.04.47.11.93.33,1.22.71.31.39.36.74.44,1.4.07.65.02,2.34.06,3.43Z" style="fill: #455a64;"/>
        <path d="m228.03,363.33c-1.52-1.14-4.94-1.16-6.8-.96-2.34.25-4.23,1.07-5.3,1.86-.48.35-1.14.29-1.56-.12h0c-.5-.5-.46-1.32.12-1.74,1.14-.84,3.2-2.02,5.97-2.21,4.59-.32,5.94.46,5.94.46,0,0,2.09,1.35,1.64,2.7Z" style="fill: #f5f5f5;"/>
        <path d="m231.53,367.52c-1.92-1.13-5.67-.97-7.54-.77-2.34.25-4.08,1.17-5.16,1.96-.48.35-1.14.29-1.56-.12h0c-.5-.5-.46-1.32.12-1.74,1.14-.84,3.33-2.19,6.1-2.39,4.59-.32,5.79.61,5.79.61,0,0,1.94.75,2.25,2.44Z" style="fill: #f5f5f5;"/>
        <path d="m218.61,355.77c3.17-.33,4.52.03,5.77.48.81.45,1.34,1.73.82,2.06-1.02-.57-2.86-.8-5.12-.7-1.51.07-3.42.68-4.97,1.36-.39.17-.86.42-1.26.64-.55.3-1.25.09-1.51-.47h0c-.22-.47-.06-1.04.4-1.31,1.11-.67,3.3-1.8,5.87-2.06Z" style="fill: #f5f5f5;"/>
        <path d="m277.17,341.99s-.52-1.39-2.68-1.8c-1.65-.31-4.57.91-6.39,2.41-.74.61-.65,1.77.2,2.24h0c.5.28,1.12.2,1.55-.17,1.19-1.04,3.86-2.92,7.33-2.68Z" style="fill: #f5f5f5;"/>
        <path d="m282.29,344.86s-1.07-1.67-3.18-1.64c0,0-4.32.12-6.99,2.61-.68.64-.63,1.72.18,2.16h0c.49.27,1.08.2,1.49-.17,1.2-1.07,3.62-3.33,8.49-2.97Z" style="fill: #f5f5f5;"/>
        <path d="m287.95,347.44s-1.19-1.51-3.3-1.48c0,0-4.02.15-6.69,2.64-.68.64-.63,1.72.18,2.16h0c.49.27,1.08.2,1.49-.17,1.2-1.07,3.44-3.52,8.32-3.15Z" style="fill: #f5f5f5;"/>
        <path d="m273.57,165.33s.88,54.62.97,64.22c.09,9.6,0,28,0,37.39,0,0-2.43,4.1-16.29,4.09-13.86-.01-15.86-3.84-15.86-3.84l-2.05-44.16-3.82,45.87s-7.96,6.17-19.37,3.71c-11.41-2.46-13.09-5.86-13.09-5.86l2.24-101.21,67.26-.21Z" style="fill: #37474f;"/>
        <path d="m240.35,223.03l2.04-18.54s9.51-2.32,15.87-7.1c0,0-3.37,4.17-7.23,6.33-3.86,2.16-5.71,3.06-5.71,3.06l-2.78,17.94-.49,34.97-1.7-36.66Z" style="fill: #263238;"/>
        <path d="m205.47,174.8c9.05,6.59,50.07,13.9,69.11,0,0,0-.44-53.19-1.93-81.33-.07-1.28-.16-2.52-.28-3.72-.04-.4-.1-.8-.14-1.19-.23-1.75-.54-3.41-.97-4.99-.07-.27-.16-.54-.24-.81-.18-.61-.38-1.21-.63-1.79-.13-.31-.26-.63-.4-.92-.13-.28-.26-.57-.41-.84-.01-.06-.04-.1-.07-.16-.14-.27-.3-.54-.45-.8-.17-.28-.34-.57-.54-.85-.18-.26-.37-.53-.55-.77-.21-.27-.44-.54-.68-.8-.21-.26-.45-.5-.7-.72-.16-.16-.33-.31-.5-.47-.16-.14-.33-.28-.5-.41-.21-.18-.45-.36-.68-.53-.74-.53-1.53-.99-2.4-1.42-.23-.11-.47-.23-.71-.33-.06-.03-.13-.04-.17-.07-.28-.11-.57-.23-.85-.33-.47-.18-.97-.34-1.48-.48-.51-.14-1.04-.27-1.59-.4-.61-.03-1.29-.04-2.03-.04-.47,0-.98.01-1.51.03-.53.01-1.07.03-1.62.06-7.12.31-17.34,1.46-25.53,2.52-.54.07-1.08.14-1.61.21-.48.06-.95.11-1.41.17-5.63.74-9.8,1.35-10.44,1.45-.06.01-.09.01-.09.01-1.85.47-3.55.91-4.93,1.32-3.77,1.11-.97.16-1.79,3.79-2.43,10.69.4,49.53.4,49.53l-1.68,45.07Z" style="fill: #455a64;"/>
        <g>
          <g>
            <path d="m221.86,41.46s2.93,13.75,4.1,16c1.17,2.26,3.6,2.9,3.6,2.9l-.2-9.67-7.49-9.23Z" style="fill: #263238;"/>
            <path d="m225.53,21.77s-3.15-.54-5.61,1.97c-2.41,2.46-1.06,10.17,1.94,17.72l5.51.63-1.84-20.32Z" style="fill: #263238;"/>
            <path d="m229.02,42.1c-1.11.66-2.68-1.46-4.04-2.89-1.36-1.43-5.81-3.37-8.03,1.3-2.26,4.77,1.96,11.06,5.46,12.16,6.04,1.89,6.94-1.98,6.94-1.98l.4,22.2c6.33,11.44,27.71,5.58,19.69-2l-.02-5.64s6.44.41,9.1,0c4.44-.69,6.26-3.76,7.61-8.56,2.16-7.72,2.98-13.95,1.15-29.13-2.01-16.64-21.36-16.81-31.81-10.23-10.45,6.58-6.46,24.77-6.46,24.77Z" style="fill: #ffa8a7;"/>
            <path d="m226.44,12.67c3.58-1.68,7.53-2.59,11.41-3.43,8.44-1.83,17.03-3.52,24.74-7.41.95-.48,1.97-1.01,3.02-.87,2.03.27,2.92,2.73,3,4.78.07,1.9-.17,3.8-.73,5.62,1.09-1.3,3.33-1.12,4.54.07,1.21,1.19,1.54,3.05,1.31,4.74-.5,3.78-3.39,6.92-6.81,8.6-3.42,1.68-7.32,2.1-11.12,2.21-5.32.15-10.66-.25-15.89-1.2-1.27-.23-2.57-.49-3.85-.28-1.27.22-2.54,1.03-2.87,2.28-.56,2.1-1.14,16.39-4.08,16.45-.55.01-2.63-3.59-3.98-4.87-1.7-1.61-3.42-13.85-3.72-16.12-.02-.18-.13-.33-.23-.48-1.92-2.69.33-7.22,2.7-8.7.83-.52,1.69-.98,2.57-1.39Z" style="fill: #263238;"/>
            <path d="m222.23,22.95c-1.44,1.69-3.98,1.89-5.67.45s-1.89-3.98-.45-5.67l6.13,5.22Z" style="fill: #263238;"/>
            <path d="m249.43,65.25s-9.91-.95-13.37-2.79c-2.32-1.23-4.23-3.37-4.79-4.74,0,0,.65,2.94,2.72,5.59,2.53,3.24,15.44,5.62,15.44,5.62v-3.68Z" style="fill: #f28f8f;"/>
          </g>
          <g>
            <path d="m247.05,39.62c0,1.14-.89,2.06-1.99,2.06-1.1,0-1.99-.93-1.99-2.07s.89-2.06,1.99-2.06c1.1,0,1.99.93,1.99,2.07Z" style="fill: #263238;"/>
            <path d="m244.94,32.12l-4.25,2.34c-.63-1.22-.18-2.73.99-3.38,1.17-.65,2.63-.18,3.26,1.04Z" style="fill: #263238;"/>
            <path d="m248.54,53.34l4.53,1.7c-.45,1.3-1.83,1.97-3.08,1.5-1.25-.47-1.9-1.9-1.45-3.2Z" style="fill: #f28f8f;"/>
            <path d="m264.76,33.78l-3.87-2.98c.79-1.11,2.3-1.34,3.37-.52,1.07.82,1.3,2.39.51,3.5Z" style="fill: #263238;"/>
            <path d="m263.57,39.06c0,1.14-.89,2.06-1.99,2.06-1.1,0-1.99-.93-1.99-2.07s.89-2.06,1.99-2.06c1.1,0,1.99.93,1.99,2.07Z" style="fill: #263238;"/>
            <polygon points="255.09 37.64 255.74 49.58 261.98 47.45 255.09 37.64" style="fill: #f28f8f;"/>
          </g>
        </g>
        <path d="m214.24,75.07c-14.65.23-18.45,8.86-22.76,18.01-4.25,9.02-15.28,29.81-15.28,29.81l-27.58-12.47s-1.99,7.46-9.26,11.83c0,0,13.03,10.93,24.22,18.93,9.49,6.79,15.01,10.3,18.65,7.87,2.7-1.8,29.63-36.99,29.63-36.99,6.85-10.73,8.32-28.89,2.4-37Z" style="fill: #37474f;"/>
      </g>
      <g>
        <path d="m260.88,44.45s-1.57-.8-1.57-.8l-1.53-2.2s.85-.38,1.55.11c.7.49,1.55,2.88,1.55,2.88Z" style="fill: #27debf;"/>
        <path d="m260.88,44.45s-1.57-.8-1.57-.8l-1.53-2.2s.85-.38,1.55.11c.7.49,1.55,2.88,1.55,2.88Z" style="opacity: .65;"/>
        <g>
          <path d="m275.51,37.59c-.08,3.23-2.76,6.32-5.89,6.87l-2.47.43c-1.16.2-2.29.29-3.28.26-.11,0-.21,0-.33-.01-.18,0-.36-.02-.54-.03-.33-.03-.63-.09-.91-.15-.16-.03-.32-.07-.46-.13-.15-.04-.28-.1-.4-.16-.05-.02-.12-.05-.16-.09-.08-.04-.14-.09-.19-.13-.11-.1-.19-.19-.25-.3l-.85-1.73c-.33-.67-1.23-1.1-2.01-.96l-1.77.31c-.78.14-1.68.89-2.01,1.67,0,0-.37.92-.85,2.04s-3.38,2.48-6.51,3.03l-2.47.44c-.52.09-1.03.11-1.51.05-.29-.02-.56-.07-.82-.15-.13-.03-.26-.07-.39-.12-.07-.03-.16-.06-.24-.1-.21-.09-.43-.19-.62-.31-.67-.27-11.44-4.65-12.92-8.18-2.36-5.68,7.33-11.53,10.82-12.64h0c.41-.15.81-.28,1.24-.35l25.45-4.49c1.37-.25,2.65.03,3.67.69.65.42,3.05,1.83,4.05,2.43.09.04.18.1.26.15.14.09.28.18.42.28.04.03.1.06.13.11.14.11.27.22.4.35.16.16.3.32.43.5.11.13.19.27.27.41.13.19.23.41.32.62.07.18.14.37.19.57v.02c.05.17.1.35.12.55.01.04.02.09.02.13.03.2.05.42.05.63.06,2.49.06,4.99,0,7.49Z" style="fill: #27debf;"/>
          <g style="opacity: .2;">
            <path d="m275.51,37.59c-.08,3.23-2.76,6.32-5.89,6.87l-2.47.43c-1.16.2-2.29.29-3.28.26-.11,0-.21,0-.33-.01-.18,0-.36-.02-.54-.03-.33-.03-.63-.09-.91-.15-.16-.03-.32-.07-.46-.13-.15-.04-.28-.1-.4-.16-.05-.02-.12-.05-.16-.09-.08-.04-.14-.09-.19-.13-.11-.1-.19-.19-.25-.3l-.85-1.73c-.33-.67-1.23-1.1-2.01-.96l-1.77.31c-.78.14-1.68.89-2.01,1.67,0,0-.37.92-.85,2.04s-3.38,2.48-6.51,3.03l-2.47.44c-.52.09-1.03.11-1.51.05-.29-.02-.56-.07-.82-.15-.13-.03-.26-.07-.39-.12-.07-.03-.16-.06-.24-.1-.21-.09-.43-.19-.62-.31-.67-.27-11.44-4.65-12.92-8.18-2.36-5.68,7.33-11.53,10.82-12.64h0c.41-.15.81-.28,1.24-.35l25.45-4.49c1.37-.25,2.65.03,3.67.69.65.42,3.05,1.83,4.05,2.43.09.04.18.1.26.15.14.09.28.18.42.28.04.03.1.06.13.11.14.11.27.22.4.35.16.16.3.32.43.5.11.13.19.27.27.41.13.19.23.41.32.62.07.18.14.37.19.57v.02c.05.17.1.35.12.55.01.04.02.09.02.13.03.2.05.42.05.63.06,2.49.06,4.99,0,7.49Z"/>
          </g>
          <path d="m272.91,25.78c-.95-.49-2.09-.69-3.29-.47l-25.45,4.49c-2.99.54-5.58,3.37-5.87,6.44l-7.3-4.22c2.55-2.26,5.77-3.96,7.49-4.52h0c.41-.15.81-.28,1.24-.35l25.45-4.49c1.37-.25,2.65.03,3.67.69.65.42,3.05,1.83,4.05,2.43Z" style="fill: #27debf;"/>
          <path d="m272.91,25.78c-.95-.49-2.09-.69-3.29-.47l-25.45,4.49c-2.99.54-5.58,3.37-5.87,6.44l-7.3-4.22c2.55-2.26,5.77-3.96,7.49-4.52h0c.41-.15.81-.28,1.24-.35l25.45-4.49c1.37-.25,2.65.03,3.67.69.65.42,3.05,1.83,4.05,2.43Z" style="fill: #fff; opacity: .35;"/>
        </g>
        <g>
          <path d="m275.51,30.1c.06,2.49.06,4.99,0,7.49-.07,3.23-2.77,6.31-5.89,6.86l-2.47.44c-3.12.55-6.04.22-6.51-.74l-.85-1.73c-.33-.67-1.23-1.1-2.01-.97l-1.77.31c-.78.14-1.68.89-2.01,1.68,0,0-.38.91-.85,2.04-.47,1.12-3.38,2.48-6.51,3.03l-2.47.44c-3.12.55-5.82-1.58-5.89-4.79-.06-2.49-.06-4.99,0-7.49.07-3.23,2.77-6.31,5.89-6.86l25.44-4.49c3.12-.55,5.82,1.58,5.89,4.79Z" style="fill: #27debf;"/>
          <path d="m275.51,37.59c-.08,3.23-2.76,6.32-5.89,6.87l-2.47.43c-1.16.2-2.29.29-3.28.26-.11,0-.21,0-.33-.01-.18,0-.36-.02-.54-.03-.33-.03-.63-.09-.91-.15-.16-.03-.32-.07-.46-.13-.15-.04-.28-.1-.4-.16-.05-.02-.12-.05-.16-.09-.08-.04-.14-.09-.19-.13-.11-.1-.19-.19-.25-.3l-.85-1.73c-.33-.67-1.23-1.1-2.01-.96l-1.77.31c-.78.14-1.68.89-2.01,1.67,0,0-.37.92-.85,2.04s-3.38,2.48-6.51,3.03l-2.47.44c-.52.09-1.03.11-1.51.05-.29-.02-.56-.07-.82-.15-.13-.03-.26-.07-.39-.12-.07-.03-.16-.06-.24-.1-.21-.09-.43-.19-.62-.31-1.37-.83-2.28-2.32-2.32-4.16-.05-2.49-.05-4.99,0-7.49.07-3.23,2.77-6.32,5.9-6.87l25.45-4.49c1.2-.21,2.33-.02,3.29.47.09.04.18.1.26.15.14.09.28.18.42.28.04.03.1.06.13.11.14.11.27.22.4.35.16.16.3.32.43.5.11.13.19.27.27.41.13.19.23.41.32.62.07.18.14.37.19.57v.02c.05.17.1.35.12.55.01.04.02.09.02.13.03.2.05.42.05.63.06,2.49.06,4.99,0,7.49Z" style="fill: #fff; opacity: .5;"/>
        </g>
        <g style="opacity: .7;">
          <path d="m275.51,30.1c0-.21-.02-.43-.05-.63,0-.04-.01-.09-.02-.13-.02-.19-.06-.37-.12-.55v-.02c-.05-.19-.12-.39-.19-.57-.1-.21-.19-.43-.32-.62-.07-.14-.16-.28-.27-.41-.13-.18-.27-.34-.43-.5-.13-.13-.26-.25-.4-.35-.03-.04-.08-.07-.12-.1l-15.23,15.23c.61.09,1.18.46,1.43.97l.85,1.73c.05.11.14.2.25.3.05.04.12.09.19.13.04.03.11.06.16.09.12.06.25.12.4.16.14.05.3.1.46.13.28.06.58.12.91.15.17.01.35.03.54.03.12.01.22.01.33.01.61.02,1.28-.02,1.97-.09l9.69-9.69c.02-1.76.02-3.51-.03-5.27Z" style="fill: #27debf;"/>
          <path d="m263.43,26.4l-22.23,22.23s.01,0,.02,0c.07.03.16.06.24.1.13.04.26.09.39.12.27.07.54.13.82.15.48.05.98.03,1.51-.05l1.62-.29,23.25-23.25-5.61.99Z" style="fill: #27debf;"/>
          <path d="m247.61,29.19l-9.35,9.35c-.02,1.88-.02,3.75.02,5.62.02.92.26,1.75.66,2.46l19.3-19.3-10.63,1.87Z" style="fill: #27debf;"/>
        </g>
        <path d="m232.38,39.01c0,.63-.46,1.07-1.02.98-.56-.09-1.02-.67-1.02-1.3s.46-1.07,1.02-.98c.56.09,1.02.67,1.02,1.3Z" style="fill: #263238;"/>
        <g style="opacity: .5;">
          <path d="m270.58,25.76h0c.74,0,1.44.17,2.08.5.06.03.13.07.22.13.13.08.26.17.38.25l.05.03.02.02.06.04c.11.08.22.18.34.31.15.15.26.28.4.47.07.08.14.19.21.32v.02s.03.02.03.02c.1.16.19.34.27.53.06.13.11.28.15.44v.03l.02.08c.05.16.08.31.1.45v.03s.02.03.02.03v.08c.04.2.05.38.05.56.06,2.47.06,4.98,0,7.47-.07,2.93-2.56,5.84-5.44,6.36l-2.47.43c-.95.17-1.91.26-2.77.26-.13,0-.27,0-.41,0h-.03c-.08,0-.17,0-.3-.01-.11,0-.22,0-.33-.02h-.16c-.28-.04-.55-.08-.86-.15-.14-.03-.27-.06-.42-.12-.11-.03-.2-.07-.29-.12l-.06-.03h-.03s-.03-.03-.03-.03l-.03-.02s-.09-.05-.1-.06c-.09-.08-.12-.12-.12-.14l-.85-1.74c-.37-.76-1.27-1.29-2.19-1.29-.13,0-.27.01-.4.03l-1.77.31c-.95.17-2.01,1.04-2.41,2,0,0-.37.92-.84,2.04-.35.84-2.95,2.16-6.11,2.71l-2.47.44c-.31.05-.6.08-.88.08-.16,0-.32,0-.5-.03-.23-.02-.46-.06-.73-.14-.12-.03-.23-.07-.3-.09l-.13-.05-.12-.05c-.19-.07-.37-.17-.54-.27-1.28-.78-2.03-2.13-2.07-3.72-.05-2.47-.05-4.99,0-7.47.07-2.93,2.57-5.84,5.46-6.36l25.45-4.49c.29-.05.58-.08.87-.08m0-.54c-.32,0-.64.03-.97.09l-25.45,4.49c-3.13.56-5.82,3.64-5.9,6.87-.05,2.5-.05,5,0,7.49.04,1.84.95,3.33,2.32,4.16.19.12.41.22.62.31.07.03.16.06.24.1.13.04.26.09.39.12.27.07.54.13.82.15.18.02.36.03.54.03.31,0,.64-.03.97-.08l2.47-.44c3.13-.55,6.04-1.91,6.51-3.03.47-1.12.85-2.04.85-2.04.33-.78,1.23-1.53,2.01-1.67l1.77-.31c.1-.02.2-.03.3-.03.7,0,1.42.4,1.71.99l.85,1.73c.05.11.14.2.25.3.05.04.12.09.19.13.04.03.11.06.16.09.12.06.25.12.4.16.14.05.3.1.46.13.28.06.58.12.91.15.17.01.35.03.54.03.12.01.22.01.33.01.13,0,.27,0,.41,0,.88,0,1.87-.09,2.86-.26l2.47-.43c3.13-.56,5.81-3.64,5.89-6.87.06-2.51.06-5,0-7.49,0-.21-.02-.43-.05-.63,0-.04-.01-.09-.02-.13-.02-.19-.06-.37-.12-.55v-.02c-.05-.19-.12-.39-.19-.57-.1-.21-.19-.43-.32-.62-.07-.14-.16-.28-.27-.41-.13-.18-.27-.34-.43-.5-.13-.13-.26-.25-.4-.35-.03-.04-.09-.07-.13-.11-.14-.1-.28-.19-.42-.28-.07-.05-.17-.11-.26-.15-.69-.36-1.48-.56-2.32-.56h0Z"/>
        </g>
        <path d="m238.28,44.16l-.13-5.39c0-.9-.07-1.78,0-2.71.1-.92.4-1.81.83-2.62.87-1.62,2.32-2.95,4.07-3.6.89-.33,1.79-.41,2.67-.59l2.65-.48,10.61-1.81c3.54-.59,7.09-1.14,10.64-1.67-3.52.72-7.04,1.41-10.57,2.07l-10.59,1.93-2.65.46c-.88.17-1.79.25-2.59.54-1.64.58-3,1.84-3.88,3.34-.43.76-.74,1.59-.86,2.46-.1.86-.05,1.78-.08,2.67l-.13,5.38Z" style="fill: #fff;"/>
      </g>
    </g>
  </g>
  <g id="Windows">
    <g>
      <g style="opacity: .3;">
        <path d="m418.58.95v129.46c-2.22,13.55-9.19,26.86-21.04,39.08-4.05,4.17-8.61,8.23-13.75,12.1-4.56,3.36-9.5,6.65-14.88,9.75-19.58,11.34-42.77,19.32-67.41,24.01-3.92.75-7.88,1.41-11.87,1.99V87.3c27.69-4.47,53.79-12.73,75.65-24.76,27.14-14.94,43.69-33.51,49.68-52.86,0-.01,0-.02.01-.02,1.15-2.91,2.08-5.85,2.77-8.8.12-.48.82-.39.82.1Z" style="fill: #27debf;"/>
      </g>
      <path d="m289.11,217.96V86.84l.45-.07c28.34-4.58,54.44-13.12,75.48-24.7,26.12-14.38,43.2-32.53,49.4-52.47v-.45h.17c1.09-2.82,1.97-5.64,2.62-8.41.12-.48.55-.78,1.04-.72.49.06.84.45.84.94v129.46c-2.3,14.07-9.42,27.32-21.19,39.46-4.19,4.33-8.84,8.42-13.81,12.15-4.94,3.64-9.83,6.84-14.93,9.79-19.14,11.08-41.88,19.18-67.58,24.07-3.91.75-7.91,1.42-11.9,1.99l-.61.09Zm1.07-130.21v128.97c3.76-.55,7.54-1.19,11.24-1.9,25.58-4.87,48.2-12.93,67.24-23.95,5.07-2.93,9.92-6.1,14.83-9.72,4.92-3.7,9.52-7.75,13.68-12.04,11.61-11.98,18.64-25.03,20.89-38.8V1.92c-.67,2.61-1.53,5.28-2.57,7.93v.03c-6.29,20.23-23.56,38.6-49.93,53.13-21.04,11.58-47.09,20.13-75.38,24.75Z" style="fill: #27debf;"/>
      <g>
        <path d="m319.7,185.06c-.23,0-.46-.08-.65-.22-.26-.2-.42-.52-.42-.85v-76.46c0-.48.33-.91.79-1.03,6.33-1.7,12.17-3.51,17.84-5.55.33-.12.69-.07.98.13.29.2.45.53.45.88v76.46c0,.45-.28.86-.71,1.01-5.75,2.06-11.64,3.89-18.01,5.6-.09.02-.18.04-.28.04Zm1.07-76.71v74.24c5.54-1.52,10.73-3.14,15.79-4.93v-74.19c-5.04,1.77-10.23,3.37-15.79,4.88Z" style="fill: #fff;"/>
        <path d="m354.1,172.77c-.2,0-.41-.06-.58-.17-.3-.2-.49-.54-.49-.9v-76.46c0-.42.25-.81.64-.98,4.65-2.06,9.46-4.54,14.73-7.55,1.09-.58,2.1-1.21,3.07-1.82.33-.21.75-.22,1.09-.03.34.19.55.55.55.94v76.46c0,.37-.19.71-.5.91-1.01.63-2.05,1.29-3.17,1.88-5.29,3.04-10.17,5.54-14.89,7.63-.14.06-.29.09-.43.09Zm1.07-76.84v74.11c4.18-1.92,8.52-4.18,13.22-6.87.9-.48,1.74-.99,2.57-1.5v-73.95c-.5.3-1,.59-1.53.87-5.06,2.9-9.74,5.31-14.25,7.35Z" style="fill: #fff;"/>
        <path d="m388.43,151.74c-.16,0-.31-.03-.46-.1-.38-.18-.61-.55-.61-.97v-76.46c0-.32.14-.62.39-.83,3.25-2.69,6.3-5.48,9.04-8.29,3.17-3.23,6.1-6.75,8.7-10.45.27-.38.75-.55,1.2-.41.45.14.75.55.75,1.02v76.46c0,.22-.07.43-.19.62-2.66,3.8-5.66,7.4-8.92,10.71-2.79,2.86-5.89,5.7-9.2,8.44-.2.16-.44.25-.68.25Zm1.07-77.03v73.66c2.6-2.23,5.04-4.51,7.29-6.81,3.09-3.15,5.95-6.57,8.5-10.17V58.55c-2.15,2.82-4.49,5.52-6.97,8.05-2.68,2.75-5.65,5.48-8.81,8.12Z" style="fill: #fff;"/>
      </g>
      <g style="opacity: .3;">
        <path d="m302.6,198.32l43.49-80.34,34.79,45.19s-14.66,20.98-78.27,35.15Z" style="fill: #27debf;"/>
      </g>
    </g>
    <g>
      <g style="opacity: .3;">
        <path d="m221.81,203.15c-39.7-2.12-78.36-11.55-108.77-28.29-34.22-18.85-51.63-43.45-52.21-68.15v-2.45l-.31-83.2c-.02-5.94,10.46,10.9,32.37,28.17.51.42,1.04.81,1.56,1.22,1.22.94,2.47,1.86,3.77,2.78,4.55,3.23,9.53,6.35,14.92,9.31,30.3,16.69,68.78,26.11,108.34,28.26l.33,112.35Z" style="fill: #27debf;"/>
      </g>
      <path d="m61.63,20.6h0,0m-.04.57c1.19.83,3.65,3.41,6.23,6.12,5.36,5.63,13.47,14.15,24.4,22.76.38.31.77.61,1.17.91l.42.32c1.17.9,2.41,1.82,3.8,2.81,4.61,3.28,9.67,6.43,15.03,9.38,28.95,15.95,67.2,26,107.78,28.34l.33,110.21c-40.4-2.3-78.42-12.27-107.18-28.1-32.72-18.02-51.06-41.9-51.65-67.21v-2.46l-.31-83.08m-.46-1.34c-.41,0-.61.39-.61,1.22l.31,83.2v2.45c.58,24.7,17.98,49.3,52.21,68.15,30.41,16.74,69.07,26.17,108.77,28.29l-.33-112.35c-39.56-2.15-78.04-11.57-108.34-28.26-5.39-2.97-10.37-6.08-14.92-9.31-1.3-.92-2.55-1.84-3.77-2.78-.52-.41-1.05-.8-1.56-1.22-18.85-14.85-29.24-29.39-31.76-29.39h0Z" style="fill: #27debf;"/>
      <path d="m183.42,187.19s-.1,0-.15,0c-.32-.04-32.5-4.66-63.79-20.55-35.86-18.2-49.95-46.42-50.08-46.7-.07-.15-.11-.31-.11-.47v-21.57c0-.22.07-.44.2-.62l23.52-33.23c.22-.32.61-.49.99-.45.39.04.72.29.87.64l29.17,68.03-2.53-12.6c-.08-.42.09-.84.43-1.09l23.51-16.55c.24-.17.55-.23.84-.17.29.06.54.24.7.5l37.36,62.77c.1.17.15.36.15.55v20.44c0,.31-.13.6-.36.81-.2.17-.45.26-.7.26Zm-111.99-67.98c1.36,2.61,15.47,28.49,49.02,45.52,27.55,13.98,55.77,19.14,61.9,20.14v-18.9s-36.63-61.52-36.63-61.52l-22,15.48,4.43,22.04c.11.54-.21,1.07-.73,1.23-.52.16-1.09-.1-1.3-.6l-32.48-75.77-22.21,31.39v20.97Z" style="fill: #fff;"/>
      <path d="m183.01,123.86c-.66,0-1.34-.07-2.02-.2-6.44-1.26-11.69-8.32-11.69-15.72,0-3.93,1.48-7.41,4.07-9.54,2.23-1.83,5.07-2.52,8.03-1.94,6.44,1.26,11.69,8.32,11.69,15.72,0,3.93-1.48,7.41-4.07,9.54-1.71,1.41-3.79,2.14-6.01,2.14Zm-3.61-25.46c-1.72,0-3.34.57-4.66,1.65-2.09,1.72-3.29,4.6-3.29,7.89,0,6.44,4.47,12.55,9.96,13.62,2.31.45,4.53-.08,6.25-1.5,2.09-1.72,3.29-4.6,3.29-7.89,0-6.44-4.47-12.55-9.96-13.62-.54-.11-1.07-.16-1.59-.16Z" style="fill: #fff;"/>
      <g>
        <g style="opacity: .3;">
          <path d="m68.31,46.48s9.75,17.13,29.91,24.58v-9.68c-19.33-9.14-29.91-26.25-29.91-26.25v11.35Z" style="fill: #27debf;"/>
        </g>
        <g style="opacity: .3;">
          <path d="m68.31,64.02s9.75,17.13,29.91,24.58v-9.68c-19.33-9.14-29.91-26.25-29.91-26.25v11.35Z" style="fill: #27debf;"/>
        </g>
        <g style="opacity: .3;">
          <path d="m68.31,81.56s9.75,17.13,29.91,24.58v-9.68c-19.33-9.14-29.91-26.25-29.91-26.25v11.35Z" style="fill: #27debf;"/>
        </g>
      </g>
    </g>
  </g>
</svg>