<?xml version="1.0" encoding="utf-8"?>
<!-- Generator: Adobe Illustrator 27.5.0, SVG Export Plug-In . SVG Version: 6.00 Build 0)  -->
<svg version="1.1" xmlns="http://www.w3.org/2000/svg" xmlns:xlink="http://www.w3.org/1999/xlink" x="0px" y="0px"
	 viewBox="0 0 500 500" style="enable-background:new 0 0 500 500;" xml:space="preserve">
<g id="Background_Simple">
	<path style="fill:#263238;" d="M159.461,450.048c4.49,4.736,9.383,9.38,14.63,13.853h220.64
		c24.327-23.135,47.362-56.329,67.541-102.221c0,0,35.739-90.488,27.415-169.815c-8.323-79.327-60.415-142.019-134.215-155.344
		c-73.8-13.325-139.397,59.862-221.775,85.236C51.319,147.133-8.973,215.162,12.679,306.397
		C34.331,397.632,94.898,381.942,159.461,450.048z"/>
</g>
<g id="Plants">
	<g>
		<path style="fill:#C2C2C2;" d="M367.227,163.347c3.209,1.402,11.059,1.225,11.065,1.225c0.081-0.002-1.687-5.139-1.836-5.45
			c-1.723-3.603-7.169-9.552-11.601-8.953c-3.193,0.432-4.968,3.627-4.247,6.633C361.344,159.872,364.493,162.153,367.227,163.347z"
			/>
		<path style="fill:#C2C2C2;" d="M446.626,165.074c0.069,0.044,1.427-5.217,1.475-5.559c0.551-3.955-0.71-11.922-4.737-13.867
			c-2.901-1.401-6.144,0.284-7.201,3.189c-1.08,2.967,0.289,6.607,1.91,9.111C439.976,160.888,446.621,165.071,446.626,165.074z"/>
		<path style="fill:#C2C2C2;" d="M470.055,136.628c-4.447-0.479-9.73,5.615-11.355,9.263c-0.14,0.316-1.77,5.498-1.687,5.498
			c0,0,0.076-0.001,0.095-0.001c-0.842,0.955-1.733,1.99-2.684,3.139c-1.739,2.137-3.685,4.567-5.624,7.355
			c-1.945,2.781-3.98,5.857-5.831,9.29c-1.86,3.439-3.641,7.151-4.982,11.214c-0.015,0.046-0.025,0.096-0.04,0.142
			c0.023-1.31-0.035-4.975-0.072-5.256c-0.513-3.96-3.833-11.311-8.23-12.124c-3.168-0.585-5.852,1.897-6.104,4.978
			c-0.258,3.146,2.024,6.296,4.249,8.283c2.508,2.241,9.472,4.411,10.027,4.582c-1.241,3.881-2.199,7.964-2.942,12.149
			c-0.427,2.392-0.782,4.816-1.109,7.249c-0.016-1.133-0.04-2.146-0.058-2.288c-0.513-3.96-3.833-11.311-8.23-12.124
			c-3.169-0.586-5.852,1.896-6.104,4.977c-0.258,3.147,2.024,6.296,4.248,8.283c2.257,2.016,8.157,3.986,9.725,4.486
			c-0.115,0.935-0.241,1.868-0.352,2.803c-0.537,4.488-1.052,8.969-1.693,13.349c-0.225,1.544-0.503,3.055-0.776,4.569
			c-0.016-1.006-0.037-1.854-0.054-1.983c-0.513-3.961-3.833-11.311-8.231-12.124c-3.168-0.586-5.852,1.896-6.104,4.978
			c-0.258,3.146,2.024,6.296,4.249,8.283c2.154,1.924,7.583,3.791,9.444,4.394c-0.327,1.541-0.65,3.086-1.036,4.565
			c-0.287,1.004-0.492,1.99-0.836,2.983c-0.319,0.99-0.635,1.97-0.949,2.94c-0.672,1.847-1.354,3.756-2.055,5.541
			c-0.478,1.245-0.956,2.423-1.435,3.61c0.242-1.533,0.652-4.547,0.658-4.802c0.061-2.653-0.881-6.966-2.756-9.997
			c0.011-0.392-0.011-0.783-0.073-1.171c-0.491-3.052-3.358-5.319-6.471-4.489c-4.322,1.151-7.063,8.736-7.267,12.724
			c-0.012,0.235,0.142,2.803,0.266,4.421c-0.217-0.94-0.418-1.855-0.654-2.82c-0.453-1.911-0.961-3.805-1.501-5.846
			c-0.295-0.976-0.594-1.962-0.895-2.957c-0.277-0.994-0.697-2.008-1.044-3.023c-0.855-2.337-1.835-4.663-2.874-6.986
			c1.673-0.401,7.592-1.91,9.97-3.734c2.366-1.815,4.876-4.786,4.853-7.943c-0.022-3.091-2.512-5.766-5.716-5.418
			c-4.446,0.483-8.305,7.565-9.111,11.477c-0.051,0.244-0.314,3.115-0.428,4.696c-0.636-1.391-1.263-2.783-1.952-4.169
			c-1.987-4.002-4.123-7.991-6.236-11.98c-0.648-1.222-1.279-2.446-1.915-3.67c0.597-0.136,7.672-1.778,10.334-3.821
			c2.366-1.815,4.876-4.786,4.854-7.943c-0.022-3.091-2.513-5.766-5.716-5.418c-4.446,0.483-8.305,7.566-9.112,11.477
			c-0.061,0.295-0.434,4.427-0.477,5.483c-1.4-2.696-2.771-5.395-4.013-8.111c-1.72-3.745-3.201-7.515-4.365-11.273
			c0.278-0.063,7.67-1.743,10.397-3.835c2.366-1.816,4.876-4.786,4.853-7.943c-0.022-3.091-2.513-5.767-5.716-5.418
			c-4.446,0.483-8.304,7.566-9.112,11.476c-0.053,0.257-0.341,3.407-0.442,4.907c-0.14,0.015-0.114,0.012-0.253,0.027
			c-1.199-4.042-1.852-8.108-2.275-11.944c-0.249-2.221-0.364-4.358-0.428-6.44c1.409-0.171,7.839-1.027,10.501-2.64
			c2.552-1.545,5.372-4.222,5.697-7.362c0.317-3.075-1.865-6.008-5.086-6.013c-4.472-0.008-9.085,6.608-10.317,10.407
			c-0.067,0.206-0.515,2.382-0.82,3.971c-0.014-0.94-0.047-1.909-0.043-2.81c0.006-3.382,0.22-6.478,0.432-9.219
			c0.133-1.558,0.284-2.964,0.439-4.277c1.295-0.89,6.467-4.541,8.058-7.15c1.553-2.546,2.823-6.223,1.663-9.159
			c-1.136-2.875-4.423-4.473-7.285-2.993c-3.973,2.054-5.018,10.051-4.361,13.99c0.057,0.34,1.557,5.562,1.626,5.516
			c0,0,0.063-0.043,0.078-0.054c-0.175,1.261-0.348,2.616-0.506,4.099c-0.272,2.742-0.554,5.842-0.634,9.237
			c-0.088,3.392-0.089,7.081,0.261,10.965c0.346,3.895,0.908,7.974,2.031,12.102c0.013,0.047,0.032,0.094,0.045,0.14
			c-0.703-1.105-2.774-4.13-2.959-4.344c-2.613-3.02-9.437-7.319-13.553-5.572c-2.966,1.26-3.835,4.81-2.345,7.519
			c1.521,2.766,5.161,4.134,8.113,4.565c3.329,0.485,10.334-1.546,10.891-1.71c1.106,3.922,2.559,7.856,4.249,11.756
			c0.963,2.231,2.003,4.449,3.074,6.658c-0.639-0.936-1.217-1.768-1.311-1.876c-2.613-3.02-9.437-7.319-13.554-5.571
			c-2.966,1.259-3.834,4.81-2.345,7.519c1.52,2.767,5.161,4.135,8.113,4.565c2.995,0.436,9.002-1.175,10.586-1.623
			c0.42,0.843,0.829,1.69,1.252,2.532c2.029,4.039,4.071,8.062,5.952,12.067c0.664,1.412,1.266,2.826,1.874,4.24
			c-0.569-0.831-1.054-1.526-1.139-1.624c-2.613-3.02-9.436-7.319-13.553-5.571c-2.966,1.26-3.834,4.81-2.345,7.519
			c1.521,2.766,5.161,4.134,8.113,4.564c2.858,0.417,8.416-1.021,10.301-1.544c0.578,1.466,1.16,2.933,1.654,4.379
			c0.315,0.996,0.688,1.932,0.949,2.949c0.28,1.002,0.556,1.993,0.83,2.976c0.458,1.911,0.943,3.88,1.343,5.755
			c0.289,1.302,0.539,2.548,0.795,3.803c-0.644-1.413-1.964-4.152-2.101-4.368c-2.125-3.381-8.219-8.665-12.553-7.561
			c-3.122,0.796-4.519,4.174-3.457,7.077c1.084,2.965,4.475,4.869,7.328,5.741c3.141,0.96,10.094,0.083,10.962-0.033
			c0.417,2.077,0.802,4.102,1.135,6.019c0.575,3.258,1.04,6.255,1.419,8.928h2.885c-0.455-2.8-1.012-5.961-1.699-9.415
			c-0.415-2.111-0.9-4.359-1.42-6.663c0.522-0.208,3.488-1.407,6.115-2.875c2.289,2.478,8.154,5.38,8.914,5.749
			c-0.799,1.963-1.594,3.864-2.373,5.646c-1.201,2.763-2.354,5.285-3.426,7.558h3.097c0.88-2.003,1.811-4.184,2.769-6.527
			c0.819-1.99,1.655-4.132,2.492-6.341c0.841,0.176,7.725,1.574,10.933,0.85c2.909-0.657,6.433-2.303,7.735-5.179
			c1.275-2.816,0.134-6.289-2.921-7.315c-4.239-1.424-10.71,3.39-13.081,6.604c-0.14,0.19-1.427,2.416-2.217,3.834
			c0.337-0.904,0.675-1.778,1.011-2.713c0.677-1.844,1.298-3.705,1.973-5.704c0.292-0.977,0.587-1.963,0.885-2.96
			c0.317-0.981,0.527-2.059,0.797-3.098c0.576-2.421,1.043-4.902,1.457-7.412c1.616,0.589,7.386,2.596,10.375,2.386
			c2.975-0.209,6.708-1.302,8.43-3.948c1.687-2.591,1.085-6.196-1.779-7.673c-3.975-2.05-11.1,1.729-13.931,4.546
			c-0.177,0.175-1.98,2.425-2.947,3.68c0.238-1.511,0.482-3.017,0.672-4.553c0.551-4.434,0.97-8.94,1.408-13.432
			c0.133-1.377,0.283-2.746,0.428-4.118c0.572,0.216,7.38,2.75,10.727,2.514c2.975-0.208,6.708-1.302,8.431-3.948
			c1.686-2.59,1.085-6.196-1.779-7.673c-3.975-2.05-11.1,1.729-13.931,4.546c-0.213,0.212-2.804,3.453-3.423,4.309
			c0.319-3.021,0.665-6.028,1.127-8.979c0.632-4.073,1.476-8.034,2.578-11.811c0.266,0.101,7.359,2.778,10.787,2.537
			c2.975-0.209,6.708-1.302,8.431-3.948c1.687-2.59,1.085-6.196-1.778-7.673c-3.975-2.05-11.1,1.729-13.931,4.546
			c-0.186,0.185-2.162,2.651-3.075,3.847c-0.125-0.065-0.102-0.053-0.227-0.118c1.229-4.032,2.928-7.782,4.69-11.214
			c1.018-1.99,2.101-3.835,3.196-5.607c1.27,0.634,7.105,3.467,10.214,3.592c2.98,0.119,6.81-0.557,8.813-2.997
			c1.961-2.39,1.759-6.04-0.925-7.822c-3.726-2.474-11.223,0.5-14.345,2.989c-0.17,0.135-1.744,1.702-2.875,2.86
			c0.507-0.792,1.014-1.619,1.514-2.368c1.871-2.817,3.757-5.282,5.446-7.451c0.97-1.226,1.872-2.315,2.726-3.325
			c1.571-0.028,7.898-0.22,10.665-1.519c2.699-1.268,5.787-3.633,6.44-6.722C475.12,140.119,473.259,136.972,470.055,136.628z"/>
	</g>
	<g>
		<path style="fill:#C2C2C2;" d="M23.257,235.889c3.209,1.402,11.059,1.225,11.065,1.225c0.082-0.002-1.687-5.139-1.836-5.45
			c-1.723-3.603-7.169-9.552-11.601-8.953c-3.193,0.432-4.968,3.627-4.247,6.633C17.374,232.414,20.524,234.695,23.257,235.889z"/>
		<path style="fill:#C2C2C2;" d="M102.656,237.616c0.069,0.044,1.427-5.217,1.475-5.558c0.551-3.955-0.71-11.922-4.737-13.867
			c-2.901-1.401-6.144,0.284-7.201,3.189c-1.08,2.967,0.289,6.607,1.91,9.111C96.006,233.43,102.651,237.613,102.656,237.616z"/>
		<path style="fill:#C2C2C2;" d="M126.085,209.17c-4.447-0.479-9.73,5.615-11.355,9.263c-0.14,0.316-1.77,5.499-1.687,5.498
			c0,0,0.076-0.001,0.095-0.001c-0.842,0.955-1.733,1.99-2.684,3.139c-1.739,2.137-3.685,4.567-5.624,7.355
			c-1.945,2.781-3.98,5.857-5.831,9.29c-1.86,3.439-3.641,7.151-4.982,11.214c-0.015,0.046-0.025,0.096-0.04,0.142
			c0.023-1.31-0.035-4.975-0.072-5.256c-0.513-3.96-3.833-11.311-8.23-12.124c-3.168-0.585-5.852,1.897-6.104,4.978
			c-0.258,3.146,2.024,6.296,4.248,8.283c2.508,2.241,9.472,4.411,10.027,4.582c-1.241,3.881-2.199,7.964-2.942,12.149
			c-0.427,2.392-0.783,4.816-1.109,7.249c-0.016-1.133-0.04-2.146-0.058-2.288c-0.514-3.961-3.833-11.311-8.23-12.124
			c-3.169-0.586-5.852,1.896-6.104,4.977c-0.258,3.147,2.024,6.296,4.248,8.283c2.257,2.016,8.157,3.986,9.725,4.486
			c-0.115,0.935-0.241,1.868-0.352,2.803c-0.537,4.488-1.052,8.97-1.693,13.349c-0.225,1.544-0.503,3.056-0.776,4.569
			c-0.016-1.006-0.037-1.854-0.054-1.983c-0.514-3.961-3.833-11.311-8.231-12.124c-3.168-0.586-5.852,1.896-6.104,4.978
			c-0.258,3.146,2.024,6.296,4.249,8.283c2.154,1.924,7.583,3.791,9.444,4.394c-0.327,1.541-0.65,3.086-1.036,4.565
			c-0.287,1.004-0.492,1.991-0.836,2.983c-0.32,0.99-0.636,1.97-0.949,2.94c-0.672,1.847-1.354,3.756-2.054,5.541
			c-0.478,1.245-0.956,2.423-1.435,3.61c0.242-1.533,0.652-4.546,0.658-4.802c0.062-2.653-0.881-6.966-2.756-9.997
			c0.011-0.392-0.011-0.783-0.073-1.171c-0.491-3.052-3.358-5.319-6.471-4.489c-4.322,1.151-7.063,8.736-7.267,12.724
			c-0.012,0.235,0.142,2.802,0.266,4.421c-0.217-0.94-0.418-1.855-0.654-2.82c-0.453-1.911-0.961-3.805-1.501-5.846
			c-0.295-0.976-0.594-1.961-0.895-2.957c-0.277-0.994-0.697-2.008-1.044-3.023c-0.855-2.337-1.835-4.664-2.874-6.986
			c1.673-0.401,7.592-1.91,9.97-3.734c2.366-1.815,4.876-4.786,4.853-7.943c-0.022-3.091-2.512-5.766-5.716-5.418
			c-4.446,0.483-8.305,7.566-9.111,11.477c-0.051,0.244-0.314,3.115-0.428,4.696c-0.636-1.391-1.263-2.783-1.951-4.169
			c-1.987-4.002-4.123-7.991-6.236-11.98c-0.648-1.221-1.279-2.446-1.915-3.67c0.597-0.136,7.672-1.778,10.334-3.821
			c2.366-1.815,4.876-4.786,4.854-7.943c-0.022-3.091-2.513-5.766-5.716-5.418c-4.446,0.483-8.305,7.566-9.112,11.477
			c-0.061,0.295-0.434,4.427-0.477,5.483c-1.4-2.696-2.771-5.395-4.013-8.111c-1.72-3.745-3.201-7.515-4.365-11.273
			c0.278-0.063,7.67-1.743,10.397-3.835c2.366-1.816,4.876-4.786,4.853-7.943c-0.022-3.091-2.513-5.767-5.716-5.419
			c-4.446,0.483-8.304,7.566-9.111,11.476c-0.053,0.257-0.341,3.407-0.442,4.907c-0.14,0.015-0.114,0.012-0.253,0.027
			c-1.199-4.042-1.852-8.107-2.275-11.943c-0.249-2.221-0.364-4.358-0.428-6.44c1.409-0.171,7.839-1.027,10.501-2.64
			c2.551-1.545,5.372-4.222,5.697-7.362c0.317-3.075-1.864-6.008-5.086-6.014c-4.472-0.008-9.085,6.608-10.317,10.407
			c-0.067,0.206-0.515,2.382-0.82,3.971c-0.014-0.94-0.047-1.909-0.043-2.81c0.006-3.382,0.22-6.478,0.432-9.219
			c0.133-1.558,0.284-2.964,0.439-4.277c1.295-0.89,6.467-4.541,8.058-7.15c1.553-2.546,2.822-6.222,1.663-9.159
			c-1.136-2.875-4.423-4.473-7.285-2.993c-3.973,2.054-5.018,10.051-4.361,13.99c0.057,0.34,1.557,5.562,1.625,5.516
			c0,0,0.063-0.043,0.078-0.054c-0.175,1.261-0.347,2.616-0.506,4.099c-0.272,2.742-0.554,5.842-0.634,9.237
			c-0.088,3.392-0.089,7.081,0.261,10.965c0.346,3.895,0.908,7.974,2.031,12.102c0.013,0.047,0.032,0.094,0.045,0.14
			c-0.703-1.105-2.774-4.13-2.959-4.344c-2.613-3.02-9.437-7.32-13.553-5.572c-2.966,1.26-3.835,4.81-2.345,7.519
			c1.521,2.766,5.161,4.134,8.113,4.565c3.329,0.485,10.334-1.546,10.891-1.71c1.106,3.922,2.559,7.856,4.249,11.756
			c0.963,2.231,2.003,4.449,3.074,6.658c-0.639-0.936-1.217-1.768-1.311-1.876c-2.613-3.02-9.437-7.319-13.554-5.572
			c-2.966,1.259-3.834,4.81-2.345,7.519c1.52,2.767,5.161,4.135,8.113,4.565c2.995,0.436,9.002-1.175,10.586-1.623
			c0.42,0.843,0.829,1.69,1.252,2.532c2.029,4.039,4.071,8.062,5.952,12.068c0.664,1.412,1.266,2.826,1.874,4.24
			c-0.569-0.831-1.054-1.526-1.139-1.624c-2.613-3.02-9.437-7.319-13.553-5.571c-2.966,1.259-3.834,4.81-2.345,7.519
			c1.521,2.766,5.161,4.134,8.113,4.564c2.858,0.417,8.416-1.021,10.301-1.544c0.578,1.466,1.16,2.933,1.654,4.379
			c0.315,0.996,0.688,1.932,0.949,2.949c0.28,1.002,0.556,1.993,0.83,2.976c0.458,1.911,0.943,3.88,1.343,5.755
			c0.289,1.302,0.539,2.548,0.795,3.803c-0.644-1.413-1.964-4.152-2.101-4.368c-2.125-3.381-8.219-8.665-12.553-7.56
			c-3.122,0.796-4.519,4.173-3.457,7.077c1.084,2.965,4.475,4.869,7.328,5.741c3.141,0.96,10.094,0.083,10.962-0.033
			c0.417,2.077,0.802,4.102,1.135,6.018c0.575,3.258,1.04,6.255,1.419,8.928h2.884c-0.455-2.8-1.012-5.961-1.699-9.415
			c-0.415-2.111-0.9-4.359-1.42-6.663c0.522-0.208,3.488-1.407,6.115-2.875c2.289,2.478,8.154,5.38,8.914,5.749
			c-0.799,1.962-1.594,3.864-2.373,5.646c-1.201,2.763-2.354,5.285-3.426,7.558h3.097c0.88-2.003,1.811-4.185,2.769-6.527
			c0.819-1.99,1.655-4.132,2.492-6.341c0.841,0.176,7.725,1.574,10.933,0.85c2.909-0.657,6.433-2.303,7.735-5.179
			c1.275-2.816,0.134-6.289-2.92-7.315c-4.239-1.424-10.71,3.391-13.081,6.604c-0.14,0.19-1.427,2.416-2.217,3.834
			c0.337-0.904,0.675-1.778,1.011-2.713c0.677-1.844,1.298-3.704,1.973-5.704c0.292-0.977,0.588-1.964,0.885-2.96
			c0.317-0.981,0.527-2.059,0.797-3.098c0.576-2.421,1.043-4.902,1.457-7.412c1.617,0.589,7.386,2.596,10.375,2.386
			c2.975-0.209,6.708-1.302,8.43-3.948c1.687-2.591,1.085-6.196-1.779-7.673c-3.975-2.05-11.1,1.729-13.931,4.546
			c-0.176,0.175-1.98,2.425-2.947,3.68c0.238-1.511,0.482-3.017,0.672-4.553c0.551-4.434,0.97-8.94,1.408-13.432
			c0.133-1.377,0.283-2.746,0.428-4.118c0.572,0.216,7.38,2.75,10.727,2.514c2.975-0.208,6.708-1.302,8.43-3.948
			c1.686-2.591,1.085-6.196-1.779-7.673c-3.974-2.05-11.1,1.729-13.93,4.546c-0.213,0.212-2.804,3.453-3.423,4.31
			c0.319-3.021,0.665-6.028,1.127-8.979c0.632-4.073,1.476-8.034,2.578-11.811c0.266,0.101,7.359,2.778,10.787,2.537
			c2.976-0.209,6.708-1.302,8.431-3.948c1.687-2.59,1.085-6.196-1.778-7.673c-3.975-2.05-11.1,1.729-13.931,4.546
			c-0.186,0.185-2.162,2.651-3.075,3.847c-0.125-0.065-0.102-0.053-0.227-0.118c1.229-4.032,2.928-7.782,4.69-11.214
			c1.018-1.99,2.101-3.835,3.196-5.607c1.27,0.634,7.105,3.467,10.214,3.592c2.98,0.119,6.81-0.557,8.813-2.997
			c1.961-2.39,1.759-6.04-0.925-7.822c-3.726-2.474-11.223,0.5-14.345,2.989c-0.17,0.135-1.744,1.702-2.875,2.86
			c0.507-0.792,1.014-1.619,1.514-2.368c1.871-2.817,3.757-5.282,5.446-7.451c0.97-1.226,1.872-2.315,2.726-3.325
			c1.571-0.028,7.899-0.22,10.665-1.519c2.699-1.268,5.787-3.633,6.44-6.722C131.15,212.661,129.289,209.514,126.085,209.17z"/>
	</g>
</g>
<g id="Devie">
	<g>
		<path style="fill:#FFFFFF;stroke:#263238;stroke-linecap:round;stroke-linejoin:round;stroke-miterlimit:10;" d="M451.683,449.426
			H55.809V202.924c0-5.775,4.681-10.456,10.456-10.456h374.963c5.774,0,10.456,4.681,10.456,10.456V449.426z"/>
		
			<rect id="XMLID_6_" x="71.868" y="212.543" style="fill:none;stroke:#263238;stroke-linecap:round;stroke-linejoin:round;stroke-miterlimit:10;" width="363.755" height="205.566"/>
		
			<rect x="118.62" y="437.056" style="fill:#263238;stroke:#263238;stroke-linecap:round;stroke-linejoin:round;stroke-miterlimit:10;" width="272.066" height="13.405"/>
		
			<rect x="118.62" y="443.51" style="fill:#FFFFFF;stroke:#263238;stroke-linecap:round;stroke-linejoin:round;stroke-miterlimit:10;" width="272.066" height="6.951"/>
		<path style="fill:#263238;stroke:#263238;stroke-linecap:round;stroke-linejoin:round;stroke-miterlimit:10;" d="M23.795,458.405
			c0,0,4.468,5.461,17.873,9.929H467.64c0,0,9.929-2.483,14.398-9.433L23.795,458.405z"/>
		<path style="fill:#FFFFFF;stroke:#263238;stroke-linecap:round;stroke-linejoin:round;stroke-miterlimit:10;" d="M481.105,459.062
			H24.78c-1.046,0-1.895-0.848-1.895-1.895v-6.65c0-1.046,0.848-1.895,1.895-1.895h456.325c1.046,0,1.895,0.848,1.895,1.895v6.649
			C483,458.214,482.152,459.062,481.105,459.062z"/>
		<path style="fill:#FFFFFF;stroke:#263238;stroke-linecap:round;stroke-linejoin:round;stroke-miterlimit:10;" d="M257.136,200.24
			c0-1.919-1.556-3.475-3.475-3.475c-1.919,0-3.475,1.556-3.475,3.475c0,1.919,1.556,3.475,3.475,3.475
			C255.58,203.715,257.136,202.159,257.136,200.24z"/>
	</g>
	
		<line style="fill:none;stroke:#263238;stroke-linecap:round;stroke-linejoin:round;stroke-miterlimit:10;" x1="10" y1="468.334" x2="497" y2="468.334"/>
</g>
<g id="Sign">
	<g>
		<g>
			<path style="fill:#263238;stroke:#263238;stroke-linecap:round;stroke-linejoin:round;stroke-miterlimit:10;" d="
				M285.222,251.124c2.55-2.55,3.505-6.092,2.865-9.384l-6.544,6.544c-0.774,0.774-2.029,0.774-2.804,0l-5.441-5.441
				c-0.774-0.774-0.774-2.029,0-2.803l6.544-6.544c-3.293-0.64-6.834,0.315-9.384,2.865c-3.019,3.019-3.8,7.427-2.347,11.167
				l-16.9,16.485l-1.631-1.631l2.658-2.658c0.284-0.284,0.284-0.745,0-1.029l-2.058-2.058c-0.284-0.284-0.745-0.284-1.029,0
				l-1.029,1.029l-2.23-2.23l0.857-0.858c0.379-0.379,0.379-0.993,0-1.372l-18.438-18.438c-1.847-1.847-4.842-1.847-6.689,0
				l-1.887,1.887c-1.847,1.847-1.847,4.842,0,6.689l18.438,18.438c0.379,0.379,0.993,0.379,1.372,0l0.858-0.858l2.23,2.23
				l-1.029,1.029c-0.284,0.284-0.284,0.745,0,1.029l2.058,2.058c0.284,0.284,0.745,0.284,1.029,0l2.658-2.658l1.603,1.603
				l-14.01,13.667c-3.74-1.453-8.148-0.672-11.167,2.347c-2.55,2.55-3.505,6.091-2.865,9.384l6.544-6.544
				c0.774-0.774,2.029-0.774,2.804,0l5.441,5.441c0.774,0.774,0.774,2.029,0,2.804l-6.544,6.544c3.293,0.64,6.834-0.315,9.384-2.865
				c3.019-3.019,3.8-7.427,2.347-11.167l14.01-13.667L274,291.26c-0.543,1.401-0.251,3.05,0.879,4.181l4.609,4.609l5.531-5.531
				l-4.609-4.609c-1.13-1.13-2.78-1.422-4.181-0.879l-19.074-19.074l16.9-16.485C277.795,254.924,282.203,254.143,285.222,251.124z"
				/>
		</g>
		<g>
			<path style="fill:#263238;" d="M226.332,326.592c0,1.979,0.786,3.173,2.576,3.173c1.76,0,2.545-1.194,2.545-3.173v-16.809h2.294
				v16.683c0,3.33-1.54,5.561-4.933,5.561c-3.361,0-4.901-2.23-4.901-5.561v-16.683h2.419V326.592z"/>
			<path style="fill:#263238;" d="M238.331,331.775h-2.199v-21.992h3.11l5.09,15.897v-15.897h2.168v21.992h-2.545l-5.624-17.782
				V331.775z"/>
			<path style="fill:#263238;" d="M254.165,309.783c3.424,0,4.995,2.073,4.995,5.467v11.09c0,3.362-1.571,5.436-4.995,5.436h-5.153
				v-21.992H254.165z M254.133,329.545c1.76,0,2.608-1.1,2.608-3.11v-11.311c0-2.011-0.849-3.11-2.64-3.11h-2.639v17.531H254.133z"
				/>
			<path style="fill:#263238;" d="M269.275,319.522v2.199h-5.373v7.823h6.598v2.23h-9.048v-21.992h9.048v2.23h-6.598v7.509H269.275z
				"/>
			<path style="fill:#263238;" d="M277.661,309.783c3.456,0,4.901,1.759,4.901,5.026v1.791c0,2.419-0.849,3.927-2.733,4.524
				c2.011,0.597,2.765,2.23,2.765,4.587v3.425c0,0.974,0.031,1.885,0.439,2.639h-2.482c-0.282-0.628-0.408-1.194-0.408-2.671v-3.456
				c0-2.481-1.162-3.267-3.204-3.267h-1.729v9.394h-2.45v-21.992H277.661z M277.032,320.15c1.948,0,3.11-0.628,3.11-3.016v-2.105
				c0-1.978-0.723-3.016-2.545-3.016h-2.388v8.137H277.032z"/>
			<path style="fill:#263238;" d="M195.282,359.998v1.979h-2.325v-2.105c0-1.979-0.786-3.173-2.577-3.173
				c-1.759,0-2.576,1.193-2.576,3.173v11.625c0,1.979,0.817,3.173,2.576,3.173c1.791,0,2.577-1.194,2.577-3.173v-2.859h2.325v2.733
				c0,3.33-1.571,5.529-4.964,5.529c-3.362,0-4.933-2.199-4.933-5.529v-11.373c0-3.33,1.571-5.53,4.933-5.53
				C193.711,354.467,195.282,356.668,195.282,359.998z"/>
			<path style="fill:#263238;" d="M197.322,359.998c0-3.362,1.665-5.53,5.027-5.53c3.393,0,5.058,2.168,5.058,5.53v11.373
				c0,3.33-1.665,5.529-5.058,5.529c-3.362,0-5.027-2.199-5.027-5.529V359.998z M199.741,371.497c0,2.011,0.848,3.173,2.608,3.173
				c1.79,0,2.607-1.162,2.607-3.173v-11.625c0-1.979-0.817-3.173-2.607-3.173c-1.76,0-2.608,1.193-2.608,3.173V371.497z"/>
			<path style="fill:#263238;" d="M211.897,376.68h-2.199v-21.992h3.11l5.09,15.897v-15.897h2.168v21.992h-2.545l-5.624-17.782
				V376.68z"/>
			<path style="fill:#263238;" d="M232.098,359.966v0.597h-2.325v-0.723c0-1.979-0.754-3.142-2.513-3.142
				c-1.759,0-2.514,1.162-2.514,3.11c0,4.933,7.383,5.403,7.383,11.593c0,3.33-1.602,5.498-4.964,5.498
				c-3.362,0-4.933-2.168-4.933-5.498v-1.257h2.294v1.383c0,1.979,0.817,3.142,2.576,3.142c1.759,0,2.576-1.162,2.576-3.142
				c0-4.901-7.352-5.373-7.352-11.562c0-3.393,1.571-5.499,4.87-5.499C230.527,354.467,232.098,356.635,232.098,359.966z"/>
			<path style="fill:#263238;" d="M237.468,376.68v-19.762h-4.053v-2.23h10.557v2.23h-4.053v19.762H237.468z"/>
			<path style="fill:#263238;" d="M250.567,354.688c3.456,0,4.901,1.759,4.901,5.026v1.791c0,2.419-0.849,3.927-2.733,4.524
				c2.011,0.597,2.765,2.23,2.765,4.587v3.425c0,0.974,0.031,1.885,0.44,2.639h-2.482c-0.283-0.628-0.408-1.194-0.408-2.671v-3.456
				c0-2.481-1.163-3.267-3.205-3.267h-1.728v9.394h-2.451v-21.992H250.567z M249.939,365.055c1.947,0,3.11-0.628,3.11-3.016v-2.105
				c0-1.978-0.723-3.016-2.545-3.016h-2.388v8.137H249.939z"/>
			<path style="fill:#263238;" d="M260.368,371.497c0,1.979,0.785,3.173,2.576,3.173c1.759,0,2.545-1.194,2.545-3.173v-16.809h2.293
				v16.683c0,3.33-1.539,5.561-4.933,5.561c-3.361,0-4.901-2.23-4.901-5.561v-16.683h2.42V371.497z"/>
			<path style="fill:#263238;" d="M279.908,359.998v1.979h-2.325v-2.105c0-1.979-0.785-3.173-2.576-3.173
				c-1.759,0-2.576,1.193-2.576,3.173v11.625c0,1.979,0.817,3.173,2.576,3.173c1.791,0,2.576-1.194,2.576-3.173v-2.859h2.325v2.733
				c0,3.33-1.571,5.529-4.964,5.529c-3.362,0-4.933-2.199-4.933-5.529v-11.373c0-3.33,1.57-5.53,4.933-5.53
				C278.337,354.467,279.908,356.668,279.908,359.998z"/>
			<path style="fill:#263238;" d="M285.341,376.68v-19.762h-4.053v-2.23h10.557v2.23h-4.053v19.762H285.341z"/>
			<path style="fill:#263238;" d="M295.99,354.688v21.992h-2.45v-21.992H295.99z"/>
			<path style="fill:#263238;" d="M298.314,359.998c0-3.362,1.665-5.53,5.026-5.53c3.394,0,5.059,2.168,5.059,5.53v11.373
				c0,3.33-1.665,5.529-5.059,5.529c-3.361,0-5.026-2.199-5.026-5.529V359.998z M300.733,371.497c0,2.011,0.849,3.173,2.607,3.173
				c1.791,0,2.608-1.162,2.608-3.173v-11.625c0-1.979-0.817-3.173-2.608-3.173c-1.759,0-2.607,1.193-2.607,3.173V371.497z"/>
			<path style="fill:#263238;" d="M312.891,376.68h-2.199v-21.992h3.11l5.09,15.897v-15.897h2.167v21.992h-2.545l-5.623-17.782
				V376.68z"/>
			<g>
				<rect x="171.719" y="337.616" style="fill:#92E3A9;" width="159.518" height="9.508"/>
				<g>
					<polygon style="fill:#263238;" points="234.109,337.616 223.486,337.616 218.041,347.123 228.664,347.123 					"/>
					<polygon style="fill:#263238;" points="331.237,347.123 331.237,338.542 326.323,347.123 					"/>
					<polygon style="fill:#263238;" points="255.765,337.616 245.142,337.616 239.697,347.123 250.32,347.123 					"/>
					<polygon style="fill:#263238;" points="212.452,337.616 201.829,337.616 196.384,347.123 207.007,347.123 					"/>
					<polygon style="fill:#263238;" points="174.728,347.123 185.351,347.123 190.796,337.616 180.173,337.616 					"/>
					<polygon style="fill:#263238;" points="320.734,337.616 310.111,337.616 304.667,347.123 315.29,347.123 					"/>
					<polygon style="fill:#263238;" points="277.422,337.616 266.799,337.616 261.354,347.123 271.977,347.123 					"/>
					<polygon style="fill:#263238;" points="299.078,337.616 288.455,337.616 283.01,347.123 293.633,347.123 					"/>
				</g>
			</g>
		</g>
	</g>
</g>
<g id="Cone">
	<g>
		<path style="fill:#92E3A9;stroke:#263238;stroke-linecap:round;stroke-linejoin:round;stroke-miterlimit:10;" d="M99.242,357.751
			L71.923,462.118h60.923l-27.318-104.367C104.434,354.413,100.335,354.413,99.242,357.751z"/>
		<polygon style="fill:#263238;stroke:#263238;stroke-linecap:round;stroke-linejoin:round;stroke-miterlimit:10;" points="
			71.923,462.118 121.565,462.118 96.744,367.293 		"/>
		<path style="fill:#92E3A9;stroke:#263238;stroke-linecap:round;stroke-linejoin:round;stroke-miterlimit:10;" d="M139,468.334H63
			c-2.209,0-4-1.791-4-4v-0.506c0-2.209,1.791-4,4-4h76c2.209,0,4,1.791,4,4v0.506C143,466.543,141.209,468.334,139,468.334z"/>
		<path style="fill:#263238;stroke:#263238;stroke-linecap:round;stroke-linejoin:round;stroke-miterlimit:10;" d="M116.989,464.334
			v-0.506c0-2.209-1.791-4-4-4H63c-2.209,0-4,1.791-4,4v0.506c0,2.209,1.791,4,4,4h49.989
			C115.198,468.334,116.989,466.543,116.989,464.334z"/>
		<polygon style="fill:#FFFFFF;stroke:#263238;stroke-linecap:round;stroke-linejoin:round;stroke-miterlimit:10;" points="
			82.821,420.486 121.949,420.486 117.217,402.41 87.552,402.41 		"/>
		<polygon style="fill:#BABABA;stroke:#263238;stroke-linecap:round;stroke-linejoin:round;stroke-miterlimit:10;" points="
			82.821,420.486 110.667,420.486 105.936,402.41 87.552,402.41 		"/>
	</g>
</g>
<g id="Lamp">
	<polygon style="opacity:0.3;fill:#FFFFFF;" points="327.563,192.102 292.413,134.211 214.724,135.062 180.106,192.102 	"/>
	<g>
		<path style="fill:#808080;stroke:#263238;stroke-miterlimit:10;" d="M179.69,192.469H66.264c-5.775,0-10.456,4.681-10.456,10.456
			v197.89L179.69,192.469z"/>
		<path style="fill:#808080;stroke:#263238;stroke-miterlimit:10;" d="M327.802,192.469h113.425c5.775,0,10.456,4.681,10.456,10.456
			v197.89L327.802,192.469z"/>
		<g>
			<g>
				
					<ellipse transform="matrix(0.7071 -0.7071 0.7071 0.7071 -19.4535 218.3757)" style="fill:#FFFFFF;stroke:#263238;stroke-linecap:round;stroke-linejoin:round;stroke-miterlimit:10;" cx="253.876" cy="132.67" rx="8.766" ry="8.766"/>
				
					<line style="fill:none;stroke:#263238;stroke-width:2;stroke-linecap:round;stroke-linejoin:round;stroke-miterlimit:10;" x1="254.126" y1="61.844" x2="254.126" y2="20.872"/>
				
					<line style="fill:none;stroke:#808080;stroke-width:2;stroke-miterlimit:10;" x1="254.126" y1="88.901" x2="254.126" y2="61.844"/>
				<polygon style="fill:#92E3A9;stroke:#263238;stroke-width:0.9727;stroke-miterlimit:10;" points="240.544,88.901 
					213.468,135.798 294.231,135.798 267.155,88.901 				"/>
				<polygon style="fill:#263238;stroke:#263238;stroke-linecap:round;stroke-linejoin:round;stroke-miterlimit:10;" points="
					243.258,88.901 221.706,135.798 285.993,135.798 264.441,88.901 				"/>
			</g>
			
				<line style="fill:none;stroke:#263238;stroke-linecap:round;stroke-linejoin:round;stroke-miterlimit:10;" x1="213.468" y1="135.798" x2="40" y2="427.618"/>
			
				<line style="fill:none;stroke:#263238;stroke-linecap:round;stroke-linejoin:round;stroke-miterlimit:10;" x1="294.422" y1="135.798" x2="465.468" y2="424.901"/>
		</g>
		
			<polyline id="XMLID_3_" style="fill:none;stroke:#263238;stroke-linecap:round;stroke-linejoin:round;stroke-miterlimit:10;" points="
			71.868,374.308 71.868,212.543 167.307,212.543 		"/>
		
			<polyline id="XMLID_1_" style="fill:none;stroke:#263238;stroke-linecap:round;stroke-linejoin:round;stroke-miterlimit:10;" points="
			339.911,212.543 435.624,212.543 435.624,375.126 		"/>
	</g>
</g>
</svg>
